BluuNext-Bolditalic.ufo
<glyph name="exclam" format="1">
  <advance width="217"/>
  <unicode hex="0021"/>
  <outline>
    <contour>
      <point x="83" y="220" type="line"/>
      <point x="117" y="220" type="line"/>
      <point x="163" y="657" type="line"/>
      <point x="100" y="703" type="line"/>
      <point x="36" y="657" type="line"/>
    </contour>
    <contour>
      <point x="186" y="66" type="line"/>
      <point x="105" y="159" type="line"/>
      <point x="23" y="66" type="line"/>
      <point x="105" y="-26" type="line"/>
    </contour>
  </outline>
</glyph>
<glyph name="quotedbl" format="1">
  <advance width="246"/>
  <unicode hex="0022"/>
  <outline>
    <contour>
      <point x="38" y="703" type="line"/>
      <point x="34" y="482" type="line"/>
      <point x="72" y="479" type="line"/>
      <point x="109" y="696" type="line"/>
    </contour>
    <contour>
      <point x="149" y="693" type="line"/>
      <point x="145" y="472" type="line"/>
      <point x="183" y="469" type="line"/>
      <point x="220" y="687" type="line"/>
    </contour>
  </outline>
</glyph>
<glyph name="numbersign" format="1">
  <advance width="485"/>
  <unicode hex="0023"/>
  <outline>
    <contour>
      <point x="375" y="608" type="line"/>
      <point x="330" y="429" type="line"/>
      <point x="195" y="429" type="line"/>
      <point x="239" y="608" type="line"/>
      <point x="212" y="608" type="line"/>
      <point x="168" y="429" type="line"/>
      <point x="52" y="429" type="line"/>
      <point x="52" y="379" type="line"/>
      <point x="156" y="379" type="line"/>
      <point x="121" y="227" type="line"/>
      <point x="25" y="227" type="line"/>
      <point x="25" y="176" type="line"/>
      <point x="108" y="176" type="line"/>
      <point x="63" y="0" type="line"/>
      <point x="89" y="0" type="line"/>
      <point x="135" y="176" type="line"/>
      <point x="270" y="176" type="line"/>
      <point x="225" y="0" type="line"/>
      <point x="252" y="0" type="line"/>
      <point x="297" y="176" type="line"/>
      <point x="433" y="176" type="line"/>
      <point x="433" y="227" type="line"/>
      <point x="309" y="227" type="line"/>
      <point x="344" y="379" type="line"/>
      <point x="460" y="379" type="line"/>
      <point x="460" y="429" type="line"/>
      <point x="357" y="429" type="line"/>
      <point x="401" y="608" type="line"/>
    </contour>
    <contour>
      <point x="318" y="379" type="line"/>
      <point x="283" y="227" type="line"/>
      <point x="147" y="227" type="line"/>
      <point x="182" y="379" type="line"/>
    </contour>
  </outline>
</glyph>
<glyph name="dollar" format="1">
  <advance width="449"/>
  <unicode hex="0024"/>
  <outline>
    <contour>
      <point x="20" y="233" type="line"/>
      <point x="31" y="24" type="line"/>
      <point x="69" y="7"/>
      <point x="131" y="-4"/>
      <point x="184" y="-7" type="curve"/>
      <point x="184" y="-58" type="line"/>
      <point x="222" y="-58" type="line"/>
      <point x="224" y="-7" type="line"/>
      <point x="342" y="-1"/>
      <point x="425" y="55"/>
      <point x="425" y="187" type="curve" smooth="yes"/>
      <point x="425" y="296"/>
      <point x="325" y="333"/>
      <point x="237" y="370" type="curve"/>
      <point x="244" y="559" type="line"/>
      <point x="300" y="540"/>
      <point x="346" y="492"/>
      <point x="371" y="422" type="curve"/>
      <point x="378" y="421" type="line"/>
      <point x="378" y="609" type="line"/>
      <point x="336" y="596" type="line"/>
      <point x="245" y="596" type="line"/>
      <point x="247" y="649" type="line"/>
      <point x="185" y="649" type="line"/>
      <point x="185" y="595" type="line"/>
      <point x="74" y="585"/>
      <point x="23" y="512"/>
      <point x="23" y="428" type="curve" smooth="yes"/>
      <point x="23" y="318"/>
      <point x="105" y="278"/>
      <point x="184" y="243" type="curve"/>
      <point x="184" y="34" type="line"/>
      <point x="113" y="60"/>
      <point x="55" y="139"/>
      <point x="30" y="233" type="curve"/>
    </contour>
    <contour>
      <point x="185" y="393" type="line"/>
      <point x="140" y="416"/>
      <point x="108" y="444"/>
      <point x="108" y="489" type="curve" smooth="yes"/>
      <point x="108" y="537"/>
      <point x="140" y="566"/>
      <point x="185" y="568" type="curve"/>
    </contour>
    <contour>
      <point x="225" y="26" type="line"/>
      <point x="232" y="221" type="line"/>
      <point x="286" y="195"/>
      <point x="330" y="164"/>
      <point x="330" y="104" type="curve" smooth="yes"/>
      <point x="330" y="50"/>
      <point x="278" y="26"/>
      <point x="232" y="26" type="curve" smooth="yes"/>
    </contour>
  </outline>
</glyph>
<glyph name="percent" format="1">
  <advance width="716"/>
  <unicode hex="0025"/>
  <outline>
    <contour>
      <point x="313" y="526" type="curve" smooth="yes"/>
      <point x="313" y="612"/>
      <point x="270" y="695"/>
      <point x="188" y="695" type="curve" smooth="yes"/>
      <point x="80" y="695"/>
      <point x="30" y="587"/>
      <point x="30" y="494" type="curve" smooth="yes"/>
      <point x="30" y="408"/>
      <point x="73" y="325"/>
      <point x="155" y="325" type="curve" smooth="yes"/>
      <point x="263" y="325"/>
      <point x="313" y="433"/>
    </contour>
    <contour>
      <point x="496" y="695" type="line"/>
      <point x="153" y="0" type="line"/>
      <point x="211" y="0" type="line"/>
      <point x="554" y="695" type="line"/>
    </contour>
    <contour>
      <point x="157" y="655" type="curve" smooth="yes"/>
      <point x="207" y="655"/>
      <point x="239" y="567"/>
      <point x="239" y="464" type="curve" smooth="yes"/>
      <point x="239" y="430"/>
      <point x="229" y="365"/>
      <point x="187" y="365" type="curve" smooth="yes"/>
      <point x="137" y="365"/>
      <point x="105" y="453"/>
      <point x="105" y="556" type="curve" smooth="yes"/>
      <point x="105" y="596"/>
      <point x="110" y="655"/>
    </contour>
    <contour>
      <point x="682" y="201" type="curve" smooth="yes"/>
      <point x="682" y="287"/>
      <point x="639" y="370"/>
      <point x="557" y="370" type="curve" smooth="yes"/>
      <point x="449" y="370"/>
      <point x="399" y="262"/>
      <point x="399" y="169" type="curve" smooth="yes"/>
      <point x="399" y="83"/>
      <point x="442" y="0"/>
      <point x="524" y="0" type="curve" smooth="yes"/>
      <point x="632" y="0"/>
      <point x="682" y="108"/>
    </contour>
    <contour>
      <point x="526" y="330" type="curve" smooth="yes"/>
      <point x="576" y="330"/>
      <point x="608" y="242"/>
      <point x="608" y="139" type="curve" smooth="yes"/>
      <point x="608" y="105"/>
      <point x="598" y="40"/>
      <point x="556" y="40" type="curve" smooth="yes"/>
      <point x="506" y="40"/>
      <point x="474" y="128"/>
      <point x="474" y="231" type="curve" smooth="yes"/>
      <point x="474" y="271"/>
      <point x="479" y="330"/>
    </contour>
  </outline>
</glyph>
<glyph name="ampersand" format="1">
  <advance width="690"/>
  <unicode hex="0026"/>
  <outline>
    <contour>
      <point x="644" y="375" type="line"/>
      <point x="641" y="381" type="line"/>
      <point x="447" y="317" type="line"/>
      <point x="449" y="312" type="line"/>
      <point x="536" y="297" type="line"/>
      <point x="559" y="161"/>
      <point x="435" y="13"/>
      <point x="303" y="13" type="curve" smooth="yes"/>
      <point x="263" y="13"/>
      <point x="199" y="21"/>
      <point x="199" y="161" type="curve" smooth="yes"/>
      <point x="199" y="300"/>
      <point x="283" y="344"/>
      <point x="340" y="361" type="curve"/>
      <point x="366" y="359"/>
      <point x="392" y="359"/>
      <point x="417" y="359" type="curve"/>
      <point x="404" y="399" type="line"/>
      <point x="370" y="384"/>
      <point x="348" y="376"/>
      <point x="303" y="376" type="curve" smooth="yes"/>
      <point x="251" y="376"/>
      <point x="207" y="424"/>
      <point x="207" y="501" type="curve" smooth="yes"/>
      <point x="207" y="623"/>
      <point x="260" y="666"/>
      <point x="304" y="666" type="curve"/>
      <point x="440" y="574" type="line"/>
      <point x="445" y="579" type="line"/>
      <point x="410" y="695" type="line"/>
      <point x="184" y="695"/>
      <point x="68" y="581"/>
      <point x="68" y="490" type="curve" smooth="yes"/>
      <point x="68" y="396"/>
      <point x="180" y="373"/>
      <point x="278" y="359" type="curve"/>
      <point x="202" y="325"/>
      <point x="46" y="281"/>
      <point x="46" y="135" type="curve" smooth="yes"/>
      <point x="46" y="25"/>
      <point x="163" y="-19"/>
      <point x="252" y="-19" type="curve" smooth="yes"/>
      <point x="482" y="-19"/>
      <point x="574" y="171"/>
      <point x="568" y="297" type="curve"/>
    </contour>
  </outline>
</glyph>
<glyph name="quotesingle" format="1">
  <advance width="134"/>
  <unicode hex="0027"/>
  <outline>
    <contour>
      <point x="37" y="698" type="line"/>
      <point x="33" y="477" type="line"/>
      <point x="71" y="474" type="line"/>
      <point x="108" y="692" type="line"/>
    </contour>
  </outline>
</glyph>
<glyph name="parenleft" format="1">
  <advance width="266"/>
  <unicode hex="0028"/>
  <outline>
    <contour>
      <point x="261" y="726" type="line"/>
      <point x="166" y="630"/>
      <point x="37" y="526"/>
      <point x="37" y="276" type="curve" smooth="yes"/>
      <point x="37" y="26"/>
      <point x="166" y="-88"/>
      <point x="261" y="-174" type="curve"/>
      <point x="275" y="-159" type="line"/>
      <point x="160" y="-37"/>
      <point x="93" y="94"/>
      <point x="93" y="276" type="curve" smooth="yes"/>
      <point x="93" y="458"/>
      <point x="160" y="588"/>
      <point x="275" y="711" type="curve"/>
    </contour>
  </outline>
</glyph>
<glyph name="parenright" format="1">
  <advance width="290"/>
  <unicode hex="0029"/>
  <outline>
    <contour>
      <point x="15" y="711" type="line"/>
      <point x="130" y="588"/>
      <point x="197" y="458"/>
      <point x="197" y="276" type="curve" smooth="yes"/>
      <point x="197" y="94"/>
      <point x="130" y="-37"/>
      <point x="15" y="-159" type="curve"/>
      <point x="29" y="-174" type="line"/>
      <point x="124" y="-88"/>
      <point x="253" y="26"/>
      <point x="253" y="276" type="curve" smooth="yes"/>
      <point x="253" y="526"/>
      <point x="124" y="630"/>
      <point x="29" y="726" type="curve"/>
    </contour>
  </outline>
</glyph>
<glyph name="asterisk" format="1">
  <advance width="335"/>
  <unicode hex="002A"/>
  <outline>
    <contour>
      <point x="134" y="646" type="line"/>
      <point x="160" y="529" type="line"/>
      <point x="178" y="529" type="line"/>
      <point x="203" y="648" type="line"/>
      <point x="168" y="688" type="line"/>
    </contour>
    <contour>
      <point x="64" y="605" type="line"/>
      <point x="148" y="523" type="line"/>
      <point x="139" y="507" type="line"/>
      <point x="28" y="543" type="line"/>
      <point x="13" y="595" type="line"/>
    </contour>
    <contour>
      <point x="271" y="605" type="line"/>
      <point x="188" y="523" type="line"/>
      <point x="197" y="507" type="line"/>
      <point x="307" y="543" type="line"/>
      <point x="323" y="595" type="line"/>
    </contour>
    <contour>
      <point x="64" y="392" type="line"/>
      <point x="148" y="475" type="line"/>
      <point x="139" y="491" type="line"/>
      <point x="28" y="455" type="line"/>
      <point x="13" y="403" type="line"/>
    </contour>
    <contour>
      <point x="271" y="392" type="line"/>
      <point x="188" y="475" type="line"/>
      <point x="197" y="491" type="line"/>
      <point x="307" y="455" type="line"/>
      <point x="323" y="403" type="line"/>
    </contour>
    <contour>
      <point x="204" y="354" type="line"/>
      <point x="178" y="471" type="line"/>
      <point x="160" y="471" type="line"/>
      <point x="135" y="352" type="line"/>
      <point x="170" y="312" type="line"/>
    </contour>
  </outline>
</glyph>
<glyph name="plus" format="1">
  <advance width="530"/>
  <unicode hex="002B"/>
  <outline>
    <contour>
      <point x="473" y="238" type="line"/>
      <point x="473" y="310" type="line"/>
      <point x="293" y="310" type="line"/>
      <point x="293" y="498" type="line"/>
      <point x="215" y="498" type="line"/>
      <point x="215" y="310" type="line"/>
      <point x="45" y="310" type="line"/>
      <point x="45" y="238" type="line"/>
      <point x="215" y="238" type="line"/>
      <point x="215" y="40" type="line"/>
      <point x="293" y="40" type="line"/>
      <point x="293" y="238" type="line"/>
    </contour>
  </outline>
</glyph>
<glyph name="comma" format="1">
  <advance width="227"/>
  <unicode hex="002C"/>
  <outline>
    <contour>
      <point x="50" y="-123" type="line"/>
      <point x="71" y="-109"/>
      <point x="190" y="-36"/>
      <point x="190" y="62" type="curve" smooth="yes"/>
      <point x="190" y="96"/>
      <point x="144" y="139"/>
      <point x="113" y="159" type="curve"/>
      <point x="34" y="74" type="line"/>
      <point x="71" y="43" type="line"/>
      <point x="83" y="29"/>
      <point x="99" y="17"/>
      <point x="99" y="-9" type="curve" smooth="yes"/>
      <point x="99" y="-47"/>
      <point x="69" y="-85"/>
      <point x="37" y="-113" type="curve"/>
    </contour>
  </outline>
</glyph>
<glyph name="hyphen" format="1">
  <advance width="294"/>
  <unicode hex="002D"/>
  <outline>
    <contour>
      <point x="41" y="320" type="line"/>
      <point x="41" y="244" type="line"/>
      <point x="264" y="244" type="line"/>
      <point x="264" y="320" type="line"/>
    </contour>
  </outline>
</glyph>
<glyph name="period" format="1">
  <advance width="181"/>
  <unicode hex="002E"/>
  <outline>
    <contour>
      <point x="172" y="66" type="line"/>
      <point x="91" y="159" type="line"/>
      <point x="9" y="66" type="line"/>
      <point x="91" y="-26" type="line"/>
    </contour>
  </outline>
</glyph>
<glyph name="slash" format="1">
  <advance width="445"/>
  <unicode hex="002F"/>
  <outline>
    <contour>
      <point x="334" y="695" type="line"/>
      <point x="37" y="0" type="line"/>
      <point x="111" y="0" type="line"/>
      <point x="408" y="695" type="line"/>
    </contour>
  </outline>
</glyph>
<glyph name="zero" format="1">
  <advance width="561"/>
  <unicode hex="0030"/>
  <outline>
    <contour>
      <point x="510" y="320" type="curve" smooth="yes"/>
      <point x="510" y="464"/>
      <point x="438" y="602"/>
      <point x="307" y="602" type="curve" smooth="yes"/>
      <point x="136" y="602"/>
      <point x="51" y="423"/>
      <point x="51" y="268" type="curve" smooth="yes"/>
      <point x="51" y="124"/>
      <point x="124" y="-14"/>
      <point x="254" y="-14" type="curve" smooth="yes"/>
      <point x="425" y="-14"/>
      <point x="510" y="165"/>
    </contour>
    <contour>
      <point x="257" y="557" type="curve" smooth="yes"/>
      <point x="336" y="557"/>
      <point x="392" y="398"/>
      <point x="392" y="211" type="curve" smooth="yes"/>
      <point x="392" y="149"/>
      <point x="371" y="31"/>
      <point x="305" y="31" type="curve" smooth="yes"/>
      <point x="226" y="31"/>
      <point x="171" y="190"/>
      <point x="171" y="377" type="curve" smooth="yes"/>
      <point x="171" y="449"/>
      <point x="183" y="557"/>
    </contour>
  </outline>
</glyph>
<glyph name="one" format="1">
  <advance width="382"/>
  <unicode hex="0031"/>
  <outline>
    <contour>
      <point x="250" y="607" type="line"/>
      <point x="42" y="386" type="line"/>
      <point x="43" y="384" type="line"/>
      <point x="136" y="420" type="line"/>
      <point x="136" y="66" type="line"/>
      <point x="51" y="0" type="line"/>
      <point x="340" y="0" type="line"/>
      <point x="250" y="66" type="line"/>
    </contour>
  </outline>
</glyph>
<glyph name="two" format="1">
  <advance width="528"/>
  <unicode hex="0032"/>
  <outline>
    <contour>
      <point x="53" y="0" type="line"/>
      <point x="457" y="0" type="line"/>
      <point x="477" y="240" type="line"/>
      <point x="473" y="240" type="line"/>
      <point x="418" y="119" type="line"/>
      <point x="225" y="116" type="line"/>
      <point x="166" y="111" type="line"/>
      <point x="164" y="116" type="line"/>
      <point x="246" y="216"/>
      <point x="436" y="299"/>
      <point x="436" y="440" type="curve" smooth="yes"/>
      <point x="436" y="546"/>
      <point x="315" y="595"/>
      <point x="188" y="595" type="curve" smooth="yes"/>
      <point x="58" y="595" type="line"/>
      <point x="58" y="422" type="line"/>
      <point x="63" y="422" type="line"/>
      <point x="96" y="512"/>
      <point x="134" y="568"/>
      <point x="202" y="568" type="curve" smooth="yes"/>
      <point x="268" y="568"/>
      <point x="307" y="522"/>
      <point x="307" y="458" type="curve" smooth="yes"/>
      <point x="307" y="277"/>
      <point x="126" y="99"/>
      <point x="46" y="33" type="curve"/>
    </contour>
  </outline>
</glyph>
<glyph name="three" format="1">
  <advance width="502"/>
  <unicode hex="0033"/>
  <outline>
    <contour>
      <point x="53" y="-16" type="line"/>
      <point x="155" y="-16"/>
      <point x="447" y="42"/>
      <point x="447" y="186" type="curve" smooth="yes"/>
      <point x="447" y="282"/>
      <point x="319" y="310"/>
      <point x="217" y="319" type="curve"/>
      <point x="369" y="362"/>
      <point x="438" y="408"/>
      <point x="438" y="475" type="curve" smooth="yes"/>
      <point x="438" y="565"/>
      <point x="331" y="595"/>
      <point x="205" y="595" type="curve" smooth="yes"/>
      <point x="58" y="595" type="line"/>
      <point x="58" y="425" type="line"/>
      <point x="63" y="425" type="line"/>
      <point x="91" y="497"/>
      <point x="122" y="567"/>
      <point x="193" y="567" type="curve" smooth="yes"/>
      <point x="263" y="567"/>
      <point x="309" y="525"/>
      <point x="309" y="461" type="curve" smooth="yes"/>
      <point x="309" y="375"/>
      <point x="197" y="336"/>
      <point x="136" y="313" type="curve" smooth="yes"/>
      <point x="104" y="301" type="line"/>
      <point x="106" y="284" type="line"/>
      <point x="116" y="286"/>
      <point x="126" y="289"/>
      <point x="136" y="291" type="curve"/>
      <point x="224" y="273"/>
      <point x="296" y="240"/>
      <point x="296" y="152" type="curve" smooth="yes"/>
      <point x="296" y="46"/>
      <point x="141" y="9"/>
      <point x="45" y="9" type="curve"/>
    </contour>
  </outline>
</glyph>
<glyph name="four" format="1">
  <advance width="568"/>
  <unicode hex="0034"/>
  <outline>
    <contour>
      <point x="516" y="148" type="line"/>
      <point x="516" y="193" type="line"/>
      <point x="394" y="193" type="line"/>
      <point x="394" y="452" type="line"/>
      <point x="278" y="274" type="line"/>
      <point x="278" y="194" type="line"/>
      <point x="145" y="194" type="line"/>
      <point x="415" y="595" type="line"/>
      <point x="276" y="595" type="line"/>
      <point x="47" y="149" type="line"/>
      <point x="279" y="149" type="line"/>
      <point x="279" y="66" type="line"/>
      <point x="195" y="0" type="line"/>
      <point x="484" y="0" type="line"/>
      <point x="394" y="66" type="line"/>
      <point x="394" y="148" type="line"/>
    </contour>
  </outline>
</glyph>
<glyph name="five" format="1">
  <advance width="481"/>
  <unicode hex="0035"/>
  <outline>
    <contour>
      <point x="106" y="354" type="line"/>
      <point x="125" y="476" type="line"/>
      <point x="391" y="476" type="line"/>
      <point x="416" y="596" type="line"/>
      <point x="427" y="647" type="line"/>
      <point x="370" y="596" type="line"/>
      <point x="100" y="596" type="line"/>
      <point x="99" y="587" type="line"/>
      <point x="59" y="293" type="line"/>
      <point x="92" y="293" type="line"/>
      <point x="97" y="320" type="line"/>
      <point x="101" y="320" type="line"/>
      <point x="140" y="342"/>
      <point x="178" y="357"/>
      <point x="204" y="357" type="curve" smooth="yes"/>
      <point x="301" y="357"/>
      <point x="310" y="249"/>
      <point x="310" y="173" type="curve" smooth="yes"/>
      <point x="310" y="57"/>
      <point x="276" y="29"/>
      <point x="217" y="29" type="curve" smooth="yes"/>
      <point x="118" y="29"/>
      <point x="60" y="173"/>
      <point x="60" y="173" type="curve"/>
      <point x="53" y="173" type="line"/>
      <point x="52" y="106"/>
      <point x="49" y="1"/>
      <point x="49" y="1" type="curve"/>
      <point x="164" y="1" type="line" smooth="yes"/>
      <point x="324" y="1"/>
      <point x="427" y="71"/>
      <point x="427" y="213" type="curve" smooth="yes"/>
      <point x="427" y="327"/>
      <point x="329" y="397"/>
      <point x="238" y="397" type="curve" smooth="yes"/>
      <point x="208" y="397"/>
      <point x="176" y="390"/>
      <point x="143" y="375" type="curve"/>
    </contour>
  </outline>
</glyph>
<glyph name="six" format="1">
  <advance width="508"/>
  <unicode hex="0036"/>
  <outline>
    <contour>
      <point x="442" y="631" type="line"/>
      <point x="239" y="548"/>
      <point x="50" y="377"/>
      <point x="50" y="193" type="curve" smooth="yes"/>
      <point x="50" y="63"/>
      <point x="133" y="-12"/>
      <point x="240" y="-12" type="curve" smooth="yes"/>
      <point x="374" y="-12"/>
      <point x="453" y="94"/>
      <point x="453" y="184" type="curve" smooth="yes"/>
      <point x="453" y="299"/>
      <point x="375" y="361"/>
      <point x="284" y="361" type="curve" smooth="yes"/>
      <point x="249" y="361"/>
      <point x="208" y="338"/>
      <point x="181" y="319" type="curve"/>
      <point x="215" y="449"/>
      <point x="325" y="554"/>
      <point x="448" y="612" type="curve"/>
    </contour>
    <contour>
      <point x="175" y="294" type="curve"/>
      <point x="196" y="314"/>
      <point x="210" y="320"/>
      <point x="238" y="320" type="curve" smooth="yes"/>
      <point x="283" y="320"/>
      <point x="341" y="266"/>
      <point x="341" y="163" type="curve" smooth="yes"/>
      <point x="341" y="117"/>
      <point x="322" y="18"/>
      <point x="259" y="18" type="curve" smooth="yes"/>
      <point x="197" y="18"/>
      <point x="165" y="82"/>
      <point x="165" y="192" type="curve" smooth="yes"/>
      <point x="165" y="229"/>
      <point x="168" y="263"/>
    </contour>
  </outline>
</glyph>
<glyph name="seven" format="1">
  <advance width="483"/>
  <unicode hex="0037"/>
  <outline>
    <contour>
      <point x="45" y="595" type="line"/>
      <point x="45" y="402" type="line"/>
      <point x="48" y="402" type="line"/>
      <point x="96" y="475" type="line"/>
      <point x="339" y="475" type="line"/>
      <point x="93" y="-24" type="line"/>
      <point x="125" y="-40" type="line"/>
      <point x="453" y="595" type="line"/>
    </contour>
  </outline>
</glyph>
<glyph name="eight" format="1">
  <advance width="495"/>
  <unicode hex="0038"/>
  <outline>
    <contour>
      <point x="250" y="610" type="curve" smooth="yes"/>
      <point x="128" y="610"/>
      <point x="57" y="529"/>
      <point x="57" y="444" type="curve" smooth="yes"/>
      <point x="57" y="388"/>
      <point x="88" y="330"/>
      <point x="158" y="294" type="curve"/>
      <point x="110" y="263"/>
      <point x="50" y="215"/>
      <point x="50" y="130" type="curve" smooth="yes"/>
      <point x="50" y="40"/>
      <point x="121" y="-15"/>
      <point x="224" y="-15" type="curve" smooth="yes"/>
      <point x="336" y="-15"/>
      <point x="445" y="55"/>
      <point x="445" y="176" type="curve" smooth="yes"/>
      <point x="445" y="270"/>
      <point x="385" y="323"/>
      <point x="316" y="357" type="curve"/>
      <point x="358" y="388"/>
      <point x="390" y="425"/>
      <point x="390" y="487" type="curve" smooth="yes"/>
      <point x="390" y="574"/>
      <point x="316" y="610"/>
    </contour>
    <contour>
      <point x="294" y="368" type="curve"/>
      <point x="218" y="403"/>
      <point x="142" y="426"/>
      <point x="142" y="486" type="curve" smooth="yes"/>
      <point x="142" y="554"/>
      <point x="192" y="585"/>
      <point x="241" y="585" type="curve" smooth="yes"/>
      <point x="300" y="585"/>
      <point x="354" y="553"/>
      <point x="354" y="475" type="curve" smooth="yes"/>
      <point x="354" y="429"/>
      <point x="331" y="397"/>
    </contour>
    <contour>
      <point x="184" y="281" type="curve"/>
      <point x="264" y="246"/>
      <point x="353" y="224"/>
      <point x="353" y="124" type="curve" smooth="yes"/>
      <point x="353" y="48"/>
      <point x="298" y="10"/>
      <point x="225" y="10" type="curve" smooth="yes"/>
      <point x="132" y="10"/>
      <point x="86" y="72"/>
      <point x="86" y="134" type="curve" smooth="yes"/>
      <point x="86" y="203"/>
      <point x="140" y="255"/>
    </contour>
  </outline>
</glyph>
<glyph name="nine" format="1">
  <advance width="503"/>
  <unicode hex="0039"/>
  <outline>
    <contour>
      <point x="54" y="-33" type="line"/>
      <point x="257" y="50"/>
      <point x="446" y="221"/>
      <point x="446" y="405" type="curve" smooth="yes"/>
      <point x="446" y="535"/>
      <point x="363" y="610"/>
      <point x="256" y="610" type="curve" smooth="yes"/>
      <point x="122" y="610"/>
      <point x="43" y="504"/>
      <point x="43" y="414" type="curve" smooth="yes"/>
      <point x="43" y="299"/>
      <point x="121" y="237"/>
      <point x="212" y="237" type="curve" smooth="yes"/>
      <point x="247" y="237"/>
      <point x="288" y="260"/>
      <point x="315" y="279" type="curve"/>
      <point x="281" y="149"/>
      <point x="171" y="44"/>
      <point x="48" y="-14" type="curve"/>
    </contour>
    <contour>
      <point x="321" y="304" type="curve"/>
      <point x="300" y="284"/>
      <point x="286" y="278"/>
      <point x="258" y="278" type="curve" smooth="yes"/>
      <point x="213" y="278"/>
      <point x="155" y="332"/>
      <point x="155" y="435" type="curve" smooth="yes"/>
      <point x="155" y="481"/>
      <point x="174" y="580"/>
      <point x="237" y="580" type="curve" smooth="yes"/>
      <point x="299" y="580"/>
      <point x="331" y="516"/>
      <point x="331" y="406" type="curve" smooth="yes"/>
      <point x="331" y="369"/>
      <point x="328" y="335"/>
    </contour>
  </outline>
</glyph>
<glyph name="semicolon" format="1">
  <advance width="243"/>
  <unicode hex="003B"/>
  <outline>
    <contour>
      <point x="208" y="351" type="line"/>
      <point x="127" y="444" type="line"/>
      <point x="45" y="351" type="line"/>
      <point x="127" y="259" type="line"/>
    </contour>
    <contour>
      <point x="63" y="-123" type="line"/>
      <point x="84" y="-109"/>
      <point x="203" y="-36"/>
      <point x="203" y="62" type="curve" smooth="yes"/>
      <point x="203" y="96"/>
      <point x="157" y="139"/>
      <point x="126" y="159" type="curve"/>
      <point x="47" y="74" type="line"/>
      <point x="84" y="43" type="line"/>
      <point x="97" y="29"/>
      <point x="112" y="17"/>
      <point x="112" y="-9" type="curve" smooth="yes"/>
      <point x="112" y="-47"/>
      <point x="82" y="-85"/>
      <point x="50" y="-113" type="curve"/>
    </contour>
  </outline>
</glyph>
<glyph name="less" format="1">
  <advance width="516"/>
  <unicode hex="003C"/>
  <outline>
    <contour>
      <point x="465" y="393" type="line"/>
      <point x="465" y="465" type="line"/>
      <point x="39" y="292" type="line"/>
      <point x="37" y="293" type="line"/>
      <point x="37" y="212" type="line"/>
      <point x="39" y="212" type="line"/>
      <point x="465" y="40" type="line"/>
      <point x="465" y="112" type="line"/>
      <point x="130" y="252" type="line"/>
    </contour>
  </outline>
</glyph>
<glyph name="greater" format="1">
  <advance width="516"/>
  <unicode hex="003E"/>
  <outline>
    <contour>
      <point x="46" y="112" type="line"/>
      <point x="46" y="40" type="line"/>
      <point x="472" y="212" type="line"/>
      <point x="473" y="212" type="line"/>
      <point x="473" y="293" type="line"/>
      <point x="472" y="292" type="line"/>
      <point x="46" y="465" type="line"/>
      <point x="46" y="393" type="line"/>
      <point x="381" y="252" type="line"/>
    </contour>
  </outline>
</glyph>
<glyph name="question" format="1">
  <advance width="504"/>
  <unicode hex="003F"/>
  <outline>
    <contour>
      <point x="75" y="695" type="line"/>
      <point x="98" y="524" type="line"/>
      <point x="106" y="525" type="line"/>
      <point x="127" y="599"/>
      <point x="159" y="658"/>
      <point x="232" y="658" type="curve" smooth="yes"/>
      <point x="270" y="658"/>
      <point x="306" y="628"/>
      <point x="306" y="518" type="curve" smooth="yes"/>
      <point x="306" y="449"/>
      <point x="251" y="374"/>
      <point x="163" y="342" type="curve"/>
      <point x="180" y="220" type="line"/>
      <point x="203" y="220" type="line"/>
      <point x="214" y="328" type="line"/>
      <point x="277" y="362"/>
      <point x="451" y="410"/>
      <point x="451" y="540" type="curve" smooth="yes"/>
      <point x="451" y="677"/>
      <point x="294" y="695"/>
      <point x="157" y="695" type="curve" smooth="yes"/>
    </contour>
    <contour>
      <point x="274" y="66" type="line"/>
      <point x="193" y="159" type="line"/>
      <point x="112" y="66" type="line"/>
      <point x="193" y="-26" type="line"/>
    </contour>
  </outline>
</glyph>
<glyph name="at" format="1">
  <advance width="685"/>
  <unicode hex="0040"/>
  <outline>
    <contour>
      <point x="314" y="73" type="line"/>
      <point x="615" y="102" type="line"/>
      <point x="639" y="145"/>
      <point x="653" y="189"/>
      <point x="653" y="250" type="curve" smooth="yes"/>
      <point x="653" y="426"/>
      <point x="510" y="569"/>
      <point x="334" y="569" type="curve" smooth="yes"/>
      <point x="158" y="569"/>
      <point x="15" y="426"/>
      <point x="15" y="250" type="curve" smooth="yes"/>
      <point x="15" y="74"/>
      <point x="158" y="-69"/>
      <point x="334" y="-69" type="curve" smooth="yes"/>
      <point x="427" y="-69"/>
      <point x="512" y="-28"/>
      <point x="570" y="36" type="curve"/>
      <point x="550" y="56" type="line"/>
      <point x="497" y="-3"/>
      <point x="420" y="-41"/>
      <point x="334" y="-41" type="curve" smooth="yes"/>
      <point x="174" y="-41"/>
      <point x="44" y="89"/>
      <point x="44" y="249" type="curve" smooth="yes"/>
      <point x="44" y="409"/>
      <point x="174" y="539"/>
      <point x="334" y="539" type="curve" smooth="yes"/>
      <point x="494" y="539"/>
      <point x="624" y="409"/>
      <point x="624" y="249" type="curve" smooth="yes"/>
      <point x="624" y="203"/>
      <point x="614" y="166"/>
      <point x="598" y="130" type="curve"/>
      <point x="473" y="119" type="line"/>
      <point x="426" y="145" type="line"/>
      <point x="525" y="439" type="line"/>
      <point x="440" y="434" type="line"/>
      <point x="402" y="437" type="line" smooth="yes"/>
      <point x="259" y="447"/>
      <point x="114" y="306"/>
      <point x="114" y="172" type="curve" smooth="yes"/>
      <point x="114" y="103"/>
      <point x="149" y="83"/>
      <point x="188" y="83" type="curve" smooth="yes"/>
      <point x="246" y="83"/>
      <point x="314" y="151"/>
      <point x="361" y="210" type="curve"/>
    </contour>
    <contour>
      <point x="375" y="255" type="line"/>
      <point x="347" y="214"/>
      <point x="292" y="173"/>
      <point x="257" y="173" type="curve" smooth="yes"/>
      <point x="219" y="173"/>
      <point x="202" y="187"/>
      <point x="202" y="235" type="curve" smooth="yes"/>
      <point x="202" y="339"/>
      <point x="312" y="424"/>
      <point x="431" y="410" type="curve"/>
    </contour>
  </outline>
</glyph>
<glyph name="A" format="1">
  <advance width="727"/>
  <unicode hex="0041"/>
  <outline>
    <contour>
      <point x="441" y="214" type="line"/>
      <point x="499" y="69" type="line"/>
      <point x="412" y="0" type="line"/>
      <point x="705" y="0" type="line"/>
      <point x="634" y="67" type="line"/>
      <point x="376" y="695" type="line"/>
      <point x="332" y="695" type="line"/>
      <point x="90" y="79" type="line"/>
      <point x="22" y="0" type="line"/>
      <point x="233" y="0" type="line"/>
      <point x="142" y="78" type="line"/>
      <point x="194" y="214" type="line"/>
    </contour>
    <contour>
      <point x="424" y="259" type="line"/>
      <point x="211" y="259" type="line"/>
      <point x="315" y="533" type="line"/>
    </contour>
  </outline>
</glyph>
<glyph name="B" format="1">
  <advance width="630"/>
  <unicode hex="0042"/>
  <outline>
    <contour>
      <point x="53" y="685" type="line"/>
      <point x="110" y="581" type="line"/>
      <point x="110" y="106" type="line"/>
      <point x="53" y="0" type="line"/>
      <point x="263" y="0" type="line" smooth="yes"/>
      <point x="398" y="0"/>
      <point x="582" y="39"/>
      <point x="582" y="183" type="curve" smooth="yes"/>
      <point x="582" y="285"/>
      <point x="508" y="344"/>
      <point x="389" y="372" type="curve"/>
      <point x="460" y="400"/>
      <point x="540" y="444"/>
      <point x="540" y="534" type="curve" smooth="yes"/>
      <point x="540" y="653"/>
      <point x="415" y="685"/>
      <point x="271" y="685" type="curve" smooth="yes"/>
    </contour>
    <contour>
      <point x="234" y="653" type="line"/>
      <point x="267" y="653" type="line" smooth="yes"/>
      <point x="332" y="653"/>
      <point x="417" y="634"/>
      <point x="417" y="514" type="curve" smooth="yes"/>
      <point x="417" y="436"/>
      <point x="356" y="378"/>
      <point x="234" y="378" type="curve"/>
    </contour>
    <contour>
      <point x="234" y="39" type="line"/>
      <point x="234" y="353" type="line"/>
      <point x="356" y="353"/>
      <point x="442" y="318"/>
      <point x="442" y="186" type="curve" smooth="yes"/>
      <point x="442" y="90"/>
      <point x="361" y="39"/>
      <point x="264" y="39" type="curve" smooth="yes"/>
    </contour>
  </outline>
</glyph>
<glyph name="C" format="1">
  <advance width="651"/>
  <unicode hex="0043"/>
  <outline>
    <contour>
      <point x="554" y="482" type="line"/>
      <point x="554" y="685" type="line"/>
      <point x="405" y="685" type="line" smooth="yes"/>
      <point x="176" y="685"/>
      <point x="49" y="497"/>
      <point x="49" y="319" type="curve" smooth="yes"/>
      <point x="49" y="123"/>
      <point x="156" y="-12"/>
      <point x="327" y="-12" type="curve" smooth="yes"/>
      <point x="473" y="-12"/>
      <point x="560" y="107"/>
      <point x="602" y="211" type="curve"/>
      <point x="588" y="221" type="line"/>
      <point x="557" y="170"/>
      <point x="500" y="105"/>
      <point x="385" y="105" type="curve" smooth="yes"/>
      <point x="252" y="105"/>
      <point x="187" y="237"/>
      <point x="187" y="406" type="curve" smooth="yes"/>
      <point x="187" y="538"/>
      <point x="235" y="644"/>
      <point x="346" y="644" type="curve" smooth="yes"/>
      <point x="445" y="644"/>
      <point x="510" y="566"/>
      <point x="548" y="482" type="curve"/>
    </contour>
  </outline>
</glyph>
<glyph name="D" format="1">
  <advance width="735"/>
  <unicode hex="0044"/>
  <outline>
    <contour>
      <point x="56" y="685" type="line"/>
      <point x="126" y="579" type="line"/>
      <point x="126" y="106" type="line"/>
      <point x="56" y="0" type="line"/>
      <point x="293" y="0" type="line" smooth="yes"/>
      <point x="527" y="0"/>
      <point x="684" y="141"/>
      <point x="684" y="372" type="curve" smooth="yes"/>
      <point x="684" y="514"/>
      <point x="597" y="685"/>
      <point x="309" y="685" type="curve" smooth="yes"/>
    </contour>
    <contour>
      <point x="250" y="38" type="line"/>
      <point x="250" y="653" type="line"/>
      <point x="317" y="653" type="line" smooth="yes"/>
      <point x="467" y="653"/>
      <point x="553" y="544"/>
      <point x="553" y="344" type="curve" smooth="yes"/>
      <point x="553" y="222"/>
      <point x="512" y="38"/>
      <point x="310" y="38" type="curve" smooth="yes"/>
    </contour>
  </outline>
</glyph>
<glyph name="E" format="1">
  <advance width="592"/>
  <unicode hex="0045"/>
  <outline>
    <contour>
      <point x="52" y="0" type="line"/>
      <point x="529" y="0" type="line"/>
      <point x="540" y="217" type="line"/>
      <point x="535" y="219" type="line"/>
      <point x="398" y="36" type="line"/>
      <point x="233" y="36" type="line"/>
      <point x="233" y="327" type="line"/>
      <point x="493" y="327" type="line"/>
      <point x="493" y="372" type="line"/>
      <point x="233" y="372" type="line"/>
      <point x="233" y="649" type="line"/>
      <point x="389" y="649" type="line"/>
      <point x="506" y="475" type="line"/>
      <point x="511" y="475" type="line"/>
      <point x="511" y="685" type="line"/>
      <point x="52" y="685" type="line"/>
      <point x="109" y="581" type="line"/>
      <point x="109" y="106" type="line"/>
    </contour>
  </outline>
</glyph>
<glyph name="F" format="1">
  <advance width="562"/>
  <unicode hex="0046"/>
  <outline>
    <contour>
      <point x="109" y="581" type="line"/>
      <point x="109" y="106" type="line"/>
      <point x="51" y="6" type="line"/>
      <point x="51" y="0" type="line"/>
      <point x="334" y="0" type="line"/>
      <point x="232" y="106" type="line"/>
      <point x="232" y="323" type="line"/>
      <point x="485" y="323" type="line"/>
      <point x="485" y="369" type="line"/>
      <point x="232" y="369" type="line"/>
      <point x="232" y="649" type="line"/>
      <point x="389" y="649" type="line"/>
      <point x="507" y="475" type="line"/>
      <point x="511" y="475" type="line"/>
      <point x="511" y="685" type="line"/>
      <point x="51" y="685" type="line"/>
    </contour>
  </outline>
</glyph>
<glyph name="G" format="1">
  <advance width="687"/>
  <unicode hex="0047"/>
  <outline>
    <contour>
      <point x="598" y="262" type="line"/>
      <point x="648" y="299" type="line"/>
      <point x="648" y="309" type="line"/>
      <point x="376" y="309" type="line"/>
      <point x="376" y="298" type="line"/>
      <point x="476" y="244" type="line"/>
      <point x="476" y="79" type="line"/>
      <point x="450" y="66"/>
      <point x="416" y="60"/>
      <point x="397" y="60" type="curve" smooth="yes"/>
      <point x="227" y="60"/>
      <point x="192" y="251"/>
      <point x="192" y="405" type="curve" smooth="yes"/>
      <point x="192" y="562"/>
      <point x="244" y="643"/>
      <point x="340" y="643" type="curve" smooth="yes"/>
      <point x="448" y="643"/>
      <point x="499" y="561"/>
      <point x="542" y="481" type="curve"/>
      <point x="555" y="481" type="line"/>
      <point x="555" y="684" type="line"/>
      <point x="406" y="684" type="line" smooth="yes"/>
      <point x="177" y="684"/>
      <point x="50" y="496"/>
      <point x="50" y="318" type="curve" smooth="yes"/>
      <point x="50" y="122"/>
      <point x="157" y="-13"/>
      <point x="328" y="-13" type="curve" smooth="yes"/>
      <point x="391" y="-13"/>
      <point x="447" y="14"/>
      <point x="493" y="47" type="curve"/>
      <point x="583" y="-6" type="line"/>
      <point x="598" y="-6" type="line"/>
    </contour>
  </outline>
</glyph>
<glyph name="H" format="1">
  <advance width="780"/>
  <unicode hex="0048"/>
  <outline>
    <contour>
      <point x="457" y="0" type="line"/>
      <point x="722" y="0" type="line"/>
      <point x="652" y="106" type="line"/>
      <point x="652" y="579" type="line"/>
      <point x="723" y="685" type="line"/>
      <point x="458" y="685" type="line"/>
      <point x="528" y="580" type="line"/>
      <point x="528" y="378" type="line"/>
      <point x="241" y="378" type="line"/>
      <point x="241" y="579" type="line"/>
      <point x="313" y="685" type="line"/>
      <point x="48" y="685" type="line"/>
      <point x="117" y="580" type="line"/>
      <point x="117" y="106" type="line"/>
      <point x="47" y="0" type="line"/>
      <point x="312" y="0" type="line"/>
      <point x="241" y="106" type="line"/>
      <point x="241" y="333" type="line"/>
      <point x="528" y="333" type="line"/>
      <point x="528" y="106" type="line"/>
    </contour>
  </outline>
</glyph>
<glyph name="I" format="1">
  <advance width="358"/>
  <unicode hex="0049"/>
  <outline>
    <contour>
      <point x="117" y="106" type="line"/>
      <point x="47" y="0" type="line"/>
      <point x="311" y="0" type="line"/>
      <point x="241" y="106" type="line"/>
      <point x="241" y="579" type="line"/>
      <point x="311" y="685" type="line"/>
      <point x="47" y="685" type="line"/>
      <point x="117" y="579" type="line"/>
    </contour>
  </outline>
</glyph>
<glyph name="J" format="1">
  <advance width="338"/>
  <unicode hex="004A"/>
  <outline>
    <contour>
      <point x="231" y="579" type="line"/>
      <point x="301" y="685" type="line"/>
      <point x="37" y="685" type="line"/>
      <point x="107" y="579" type="line"/>
      <point x="107" y="-73" type="line" smooth="yes"/>
      <point x="107" y="-106"/>
      <point x="98" y="-147"/>
      <point x="86" y="-172" type="curve"/>
      <point x="93" y="-176" type="line"/>
      <point x="146" y="-142"/>
      <point x="231" y="-73"/>
      <point x="231" y="4" type="curve" smooth="yes"/>
    </contour>
  </outline>
</glyph>
<glyph name="K" format="1">
  <advance width="769"/>
  <unicode hex="004B"/>
  <outline>
    <contour>
      <point x="291" y="324" type="line"/>
      <point x="470" y="63" type="line"/>
      <point x="427" y="0" type="line"/>
      <point x="740" y="0" type="line"/>
      <point x="628" y="76" type="line"/>
      <point x="383" y="421" type="line"/>
      <point x="549" y="596" type="line"/>
      <point x="688" y="686" type="line"/>
      <point x="467" y="686" type="line"/>
      <point x="497" y="611" type="line"/>
      <point x="390" y="492" type="line"/>
      <point x="251" y="345" type="line"/>
      <point x="251" y="580" type="line"/>
      <point x="322" y="686" type="line"/>
      <point x="57" y="686" type="line"/>
      <point x="128" y="580" type="line"/>
      <point x="128" y="106" type="line"/>
      <point x="57" y="0" type="line"/>
      <point x="322" y="0" type="line"/>
      <point x="251" y="106" type="line"/>
      <point x="251" y="282" type="line"/>
    </contour>
  </outline>
</glyph>
<glyph name="L" format="1">
  <advance width="610"/>
  <unicode hex="004C"/>
  <outline>
    <contour>
      <point x="53" y="0" type="line"/>
      <point x="557" y="0" type="line"/>
      <point x="567" y="217" type="line"/>
      <point x="563" y="217" type="line"/>
      <point x="432" y="45" type="line"/>
      <point x="234" y="45" type="line"/>
      <point x="234" y="580" type="line"/>
      <point x="306" y="685" type="line"/>
      <point x="53" y="685" type="line"/>
      <point x="110" y="581" type="line"/>
      <point x="110" y="106" type="line"/>
    </contour>
  </outline>
</glyph>
<glyph name="M" format="1">
  <advance width="916"/>
  <unicode hex="004D"/>
  <outline>
    <contour>
      <point x="49" y="0" type="line"/>
      <point x="244" y="0" type="line"/>
      <point x="171" y="96" type="line"/>
      <point x="171" y="508" type="line"/>
      <point x="412" y="-12" type="line"/>
      <point x="419" y="-12" type="line"/>
      <point x="665" y="587" type="line"/>
      <point x="665" y="104" type="line"/>
      <point x="585" y="0" type="line"/>
      <point x="861" y="0" type="line"/>
      <point x="789" y="105" type="line"/>
      <point x="789" y="603" type="line"/>
      <point x="860" y="685" type="line"/>
      <point x="661" y="685" type="line"/>
      <point x="456" y="185" type="line"/>
      <point x="229" y="685" type="line"/>
      <point x="41" y="685" type="line"/>
      <point x="122" y="581" type="line"/>
      <point x="122" y="96" type="line"/>
    </contour>
  </outline>
</glyph>
<glyph name="N" format="1">
  <advance width="756"/>
  <unicode hex="004E"/>
  <outline>
    <contour>
      <point x="527" y="0" type="line"/>
      <point x="675" y="0" type="line"/>
      <point x="634" y="58" type="line"/>
      <point x="634" y="592" type="line"/>
      <point x="704" y="685" type="line"/>
      <point x="506" y="685" type="line"/>
      <point x="588" y="599" type="line"/>
      <point x="588" y="114" type="line"/>
      <point x="198" y="685" type="line"/>
      <point x="41" y="685" type="line"/>
      <point x="133" y="558" type="line"/>
      <point x="133" y="93" type="line"/>
      <point x="63" y="0" type="line"/>
      <point x="259" y="0" type="line"/>
      <point x="178" y="86" type="line"/>
      <point x="178" y="489" type="line"/>
    </contour>
  </outline>
</glyph>
<glyph name="P" format="1">
  <advance width="588"/>
  <unicode hex="0050"/>
  <outline>
    <contour>
      <point x="123" y="579" type="line"/>
      <point x="123" y="106" type="line"/>
      <point x="52" y="0" type="line"/>
      <point x="332" y="0" type="line"/>
      <point x="247" y="106" type="line"/>
      <point x="247" y="290" type="line"/>
      <point x="269" y="290"/>
      <point x="304" y="292"/>
      <point x="334" y="297" type="curve" smooth="yes"/>
      <point x="434" y="310"/>
      <point x="546" y="379"/>
      <point x="546" y="502" type="curve" smooth="yes"/>
      <point x="546" y="668"/>
      <point x="349" y="685"/>
      <point x="281" y="685" type="curve" smooth="yes"/>
      <point x="52" y="685" type="line"/>
    </contour>
    <contour>
      <point x="247" y="655" type="line"/>
      <point x="349" y="655"/>
      <point x="410" y="602"/>
      <point x="410" y="490" type="curve" smooth="yes"/>
      <point x="410" y="378"/>
      <point x="350" y="324"/>
      <point x="247" y="324" type="curve"/>
    </contour>
  </outline>
</glyph>
<glyph name="Q" format="1">
  <advance width="738"/>
  <unicode hex="0051"/>
  <outline>
    <contour>
      <point x="576" y="-119" type="line"/>
      <point x="539" y="54" type="line"/>
      <point x="637" y="124"/>
      <point x="687" y="244"/>
      <point x="687" y="373" type="curve" smooth="yes"/>
      <point x="687" y="536"/>
      <point x="580" y="693"/>
      <point x="405" y="693" type="curve" smooth="yes"/>
      <point x="173" y="693"/>
      <point x="51" y="514"/>
      <point x="51" y="313" type="curve" smooth="yes"/>
      <point x="51" y="150"/>
      <point x="158" y="-7"/>
      <point x="333" y="-7" type="curve" smooth="yes"/>
      <point x="346" y="-7"/>
      <point x="359" y="-6"/>
      <point x="371" y="-5" type="curve"/>
      <point x="437" y="-56"/>
      <point x="503" y="-99"/>
      <point x="572" y="-125" type="curve"/>
    </contour>
    <contour>
      <point x="338" y="650" type="curve" smooth="yes"/>
      <point x="473" y="650"/>
      <point x="554" y="458"/>
      <point x="554" y="252" type="curve" smooth="yes"/>
      <point x="554" y="173"/>
      <point x="515" y="35"/>
      <point x="400" y="35" type="curve" smooth="yes"/>
      <point x="265" y="35"/>
      <point x="186" y="228"/>
      <point x="186" y="434" type="curve" smooth="yes"/>
      <point x="186" y="513"/>
      <point x="209" y="650"/>
    </contour>
  </outline>
</glyph>
<glyph name="S" format="1">
  <advance width="541"/>
  <unicode hex="0053"/>
  <outline>
    <contour>
      <point x="46" y="268" type="line"/>
      <point x="58" y="28" type="line"/>
      <point x="104" y="6"/>
      <point x="185" y="-8"/>
      <point x="247" y="-8" type="curve" smooth="yes"/>
      <point x="372" y="-8"/>
      <point x="482" y="55"/>
      <point x="482" y="204" type="curve" smooth="yes"/>
      <point x="482" y="416"/>
      <point x="142" y="395"/>
      <point x="142" y="562" type="curve" smooth="yes"/>
      <point x="142" y="620"/>
      <point x="180" y="653"/>
      <point x="233" y="653" type="curve" smooth="yes"/>
      <point x="319" y="653"/>
      <point x="394" y="591"/>
      <point x="425" y="485" type="curve"/>
      <point x="437" y="484" type="line"/>
      <point x="437" y="700" type="line"/>
      <point x="391" y="685" type="line"/>
      <point x="255" y="685" type="line" smooth="yes"/>
      <point x="115" y="685"/>
      <point x="49" y="595"/>
      <point x="49" y="500" type="curve" smooth="yes"/>
      <point x="49" y="268"/>
      <point x="377" y="320"/>
      <point x="377" y="130" type="curve" smooth="yes"/>
      <point x="377" y="72"/>
      <point x="334" y="30"/>
      <point x="278" y="30" type="curve" smooth="yes"/>
      <point x="177" y="30"/>
      <point x="89" y="138"/>
      <point x="58" y="268" type="curve"/>
    </contour>
  </outline>
</glyph>
<glyph name="T" format="1">
  <advance width="660"/>
  <unicode hex="0054"/>
  <outline>
    <contour>
      <point x="611" y="685" type="line"/>
      <point x="34" y="685" type="line"/>
      <point x="34" y="466" type="line"/>
      <point x="38" y="465" type="line"/>
      <point x="166" y="649" type="line"/>
      <point x="258" y="649" type="line"/>
      <point x="258" y="106" type="line"/>
      <point x="188" y="0" type="line"/>
      <point x="453" y="0" type="line"/>
      <point x="382" y="106" type="line"/>
      <point x="382" y="650" type="line"/>
      <point x="478" y="650" type="line"/>
      <point x="605" y="465" type="line"/>
      <point x="611" y="466" type="line"/>
    </contour>
  </outline>
</glyph>
<glyph name="U" format="1">
  <advance width="781"/>
  <unicode hex="0055"/>
  <outline>
    <contour>
      <point x="642" y="592" type="line"/>
      <point x="643" y="595" type="line"/>
      <point x="729" y="685" type="line"/>
      <point x="515" y="685" type="line"/>
      <point x="596" y="595" type="line"/>
      <point x="596" y="301" type="line" smooth="yes"/>
      <point x="596" y="77"/>
      <point x="508" y="33"/>
      <point x="432" y="33" type="curve" smooth="yes"/>
      <point x="340" y="33"/>
      <point x="251" y="51"/>
      <point x="251" y="236" type="curve" smooth="yes"/>
      <point x="251" y="579" type="line"/>
      <point x="322" y="685" type="line"/>
      <point x="57" y="685" type="line"/>
      <point x="126" y="580" type="line"/>
      <point x="126" y="221" type="line" smooth="yes"/>
      <point x="126" y="-15"/>
      <point x="339" y="-15"/>
      <point x="397" y="-15" type="curve" smooth="yes"/>
      <point x="495" y="-15"/>
      <point x="568" y="30"/>
      <point x="603" y="96" type="curve" smooth="yes"/>
      <point x="629" y="148"/>
      <point x="642" y="186"/>
      <point x="642" y="277" type="curve" smooth="yes"/>
    </contour>
  </outline>
</glyph>
<glyph name="V" format="1">
  <advance width="681"/>
  <unicode hex="0056"/>
  <outline>
    <contour>
      <point x="461" y="685" type="line"/>
      <point x="542" y="599" type="line"/>
      <point x="381" y="138" type="line"/>
      <point x="369" y="185" type="line"/>
      <point x="203" y="624" type="line"/>
      <point x="279" y="685" type="line"/>
      <point x="19" y="685" type="line"/>
      <point x="69" y="626" type="line"/>
      <point x="320" y="-20" type="line"/>
      <point x="366" y="-20" type="line"/>
      <point x="593" y="596" type="line"/>
      <point x="660" y="685" type="line"/>
    </contour>
  </outline>
</glyph>
<glyph name="X" format="1">
  <advance width="722"/>
  <unicode hex="0058"/>
  <outline>
    <contour>
      <point x="192" y="94" type="line"/>
      <point x="329" y="294" type="line"/>
      <point x="466" y="99" type="line"/>
      <point x="381" y="0" type="line"/>
      <point x="705" y="0" type="line"/>
      <point x="603" y="106" type="line"/>
      <point x="415" y="371" type="line"/>
      <point x="567" y="582" type="line"/>
      <point x="679" y="685" type="line"/>
      <point x="432" y="685" type="line"/>
      <point x="501" y="584" type="line"/>
      <point x="383" y="413" type="line"/>
      <point x="255" y="588" type="line"/>
      <point x="332" y="685" type="line"/>
      <point x="31" y="685" type="line"/>
      <point x="129" y="579" type="line"/>
      <point x="295" y="341" type="line"/>
      <point x="121" y="104" type="line"/>
      <point x="21" y="0" type="line"/>
      <point x="268" y="0" type="line"/>
    </contour>
  </outline>
</glyph>
<glyph name="Y" format="1">
  <advance width="689"/>
  <unicode hex="0059"/>
  <outline>
    <contour>
      <point x="212" y="0" type="line"/>
      <point x="476" y="0" type="line"/>
      <point x="406" y="106" type="line"/>
      <point x="406" y="318" type="line"/>
      <point x="565" y="591" type="line"/>
      <point x="663" y="685" type="line"/>
      <point x="421" y="685" type="line"/>
      <point x="502" y="581" type="line"/>
      <point x="377" y="357" type="line"/>
      <point x="362" y="390" type="line"/>
      <point x="250" y="579" type="line"/>
      <point x="251" y="579" type="line"/>
      <point x="332" y="685" type="line"/>
      <point x="26" y="685" type="line"/>
      <point x="113" y="579" type="line"/>
      <point x="282" y="281" type="line"/>
      <point x="282" y="106" type="line"/>
    </contour>
  </outline>
</glyph>
<glyph name="Z" format="1">
  <advance width="668"/>
  <unicode hex="005A"/>
  <outline>
    <contour>
      <point x="51" y="-1" type="line"/>
      <point x="598" y="-1" type="line"/>
      <point x="609" y="216" type="line"/>
      <point x="605" y="216" type="line"/>
      <point x="474" y="44" type="line"/>
      <point x="204" y="44" type="line"/>
      <point x="608" y="670" type="line"/>
      <point x="601" y="684" type="line"/>
      <point x="193" y="684" type="line"/>
      <point x="92" y="694" type="line"/>
      <point x="86" y="465" type="line"/>
      <point x="90" y="465" type="line"/>
      <point x="216" y="638" type="line"/>
      <point x="443" y="638" type="line"/>
      <point x="44" y="11" type="line"/>
    </contour>
  </outline>
</glyph>
<glyph name="bracketleft" format="1">
  <advance width="214"/>
  <unicode hex="005B"/>
  <outline>
    <contour>
      <point x="191" y="665" type="line"/>
      <point x="191" y="711" type="line"/>
      <point x="10" y="711" type="line"/>
      <point x="10" y="-160" type="line"/>
      <point x="191" y="-160" type="line"/>
      <point x="191" y="-104" type="line"/>
      <point x="64" y="-104" type="line"/>
      <point x="64" y="665" type="line"/>
    </contour>
  </outline>
</glyph>
<glyph name="bracketright" format="1">
  <advance width="214"/>
  <unicode hex="005D"/>
  <outline>
    <contour>
      <point x="137" y="-114" type="line"/>
      <point x="10" y="-114" type="line"/>
      <point x="10" y="-160" type="line"/>
      <point x="191" y="-160" type="line"/>
      <point x="191" y="711" type="line"/>
      <point x="10" y="711" type="line"/>
      <point x="10" y="665" type="line"/>
      <point x="137" y="665" type="line"/>
    </contour>
  </outline>
</glyph>
<glyph name="asciicircum" format="1">
  <advance width="466"/>
  <unicode hex="005E"/>
  <outline>
    <contour>
      <point x="389" y="282" type="line"/>
      <point x="461" y="282" type="line"/>
      <point x="273" y="694" type="line"/>
      <point x="274" y="695" type="line"/>
      <point x="193" y="695" type="line"/>
      <point x="193" y="694" type="line"/>
      <point x="5" y="282" type="line"/>
      <point x="77" y="282" type="line"/>
      <point x="233" y="610" type="line"/>
    </contour>
  </outline>
</glyph>
<glyph name="underscore" format="1">
  <advance width="556"/>
  <unicode hex="005F"/>
  <outline>
    <contour>
      <point x="13" y="0" type="line"/>
      <point x="13" y="-60" type="line"/>
      <point x="543" y="-60" type="line"/>
      <point x="543" y="0" type="line"/>
    </contour>
  </outline>
</glyph>
<glyph name="grave" format="1">
  <advance width="192"/>
  <unicode hex="0060"/>
  <outline>
    <contour>
      <point x="153" y="681" type="line"/>
      <point x="33" y="681" type="line"/>
      <point x="156" y="552" type="line"/>
      <point x="171" y="552" type="line"/>
    </contour>
  </outline>
</glyph>
<glyph name="b" format="1">
  <advance width="499"/>
  <unicode hex="0062"/>
  <outline>
    <contour>
      <point x="305" y="490" type="line"/>
      <point x="261" y="402"/>
      <point x="219" y="269"/>
      <point x="189" y="150" type="curve"/>
      <point x="189" y="710" type="line"/>
      <point x="6" y="653" type="line"/>
      <point x="74" y="576" type="line"/>
      <point x="74" y="0" type="line"/>
      <point x="140" y="0" type="line" smooth="yes"/>
      <point x="357" y="0"/>
      <point x="470" y="129"/>
      <point x="470" y="271" type="curve" smooth="yes"/>
      <point x="470" y="369"/>
      <point x="435" y="460"/>
      <point x="404" y="508" type="curve"/>
    </contour>
    <contour>
      <point x="189" y="29" type="curve"/>
      <point x="190" y="127"/>
      <point x="278" y="399"/>
      <point x="298" y="399" type="curve" smooth="yes"/>
      <point x="316" y="399"/>
      <point x="346" y="323"/>
      <point x="346" y="217" type="curve" smooth="yes"/>
      <point x="346" y="131"/>
      <point x="322" y="30"/>
    </contour>
  </outline>
</glyph>
<glyph name="c" format="1">
  <advance width="381"/>
  <unicode hex="0063"/>
  <outline>
    <contour>
      <point x="350" y="360" type="line"/>
      <point x="353" y="364" type="line"/>
      <point x="283" y="504" type="line"/>
      <point x="273" y="504" type="line"/>
      <point x="151" y="473"/>
      <point x="29" y="335"/>
      <point x="29" y="183" type="curve" smooth="yes"/>
      <point x="29" y="50"/>
      <point x="93" y="-12"/>
      <point x="176" y="-12" type="curve" smooth="yes"/>
      <point x="228" y="-12"/>
      <point x="321" y="65"/>
      <point x="373" y="218" type="curve"/>
      <point x="357" y="228" type="line"/>
      <point x="311" y="122"/>
      <point x="257" y="59"/>
      <point x="224" y="59" type="curve" smooth="yes"/>
      <point x="179" y="59"/>
      <point x="155" y="140"/>
      <point x="155" y="269" type="curve" smooth="yes"/>
      <point x="155" y="335"/>
      <point x="172" y="427"/>
      <point x="191" y="427" type="curve"/>
    </contour>
  </outline>
</glyph>
<glyph name="d" format="1">
  <advance width="517"/>
  <unicode hex="0064"/>
  <outline>
    <contour>
      <point x="508" y="0" type="line"/>
      <point x="434" y="70" type="line"/>
      <point x="434" y="710" type="line"/>
      <point x="251" y="653" type="line"/>
      <point x="319" y="576" type="line"/>
      <point x="319" y="488" type="line"/>
      <point x="132" y="468"/>
      <point x="29" y="333"/>
      <point x="29" y="163" type="curve" smooth="yes"/>
      <point x="29" y="82"/>
      <point x="62" y="10"/>
      <point x="92" y="-11" type="curve"/>
      <point x="166" y="0" type="line"/>
      <point x="225" y="95"/>
      <point x="294" y="230"/>
      <point x="329" y="373" type="curve"/>
      <point x="317" y="257" type="line"/>
      <point x="317" y="-9" type="line"/>
    </contour>
    <contour>
      <point x="182" y="77" type="curve" smooth="yes"/>
      <point x="170" y="77"/>
      <point x="153" y="119"/>
      <point x="153" y="217" type="curve" smooth="yes"/>
      <point x="153" y="318"/>
      <point x="185" y="460"/>
      <point x="319" y="461" type="curve"/>
      <point x="318" y="355"/>
      <point x="201" y="77"/>
    </contour>
  </outline>
</glyph>
<glyph name="f" format="1">
  <advance width="370"/>
  <unicode hex="0066"/>
  <outline>
    <contour>
      <point x="383" y="570" type="line"/>
      <point x="386" y="573" type="line"/>
      <point x="348" y="704" type="line"/>
      <point x="307" y="695" type="line" smooth="yes"/>
      <point x="177" y="666"/>
      <point x="99" y="530"/>
      <point x="99" y="490" type="curve"/>
      <point x="24" y="490" type="line"/>
      <point x="94" y="427" type="line"/>
      <point x="94" y="202" type="line"/>
      <point x="104" y="-229" type="line"/>
      <point x="112" y="-229" type="line"/>
      <point x="157" y="-58"/>
      <point x="209" y="-29"/>
      <point x="209" y="256" type="curve" smooth="yes"/>
      <point x="209" y="436" type="line"/>
      <point x="370" y="466" type="line"/>
      <point x="370" y="490" type="line"/>
      <point x="209" y="490" type="line"/>
      <point x="188" y="566"/>
      <point x="209" y="646"/>
      <point x="236" y="646" type="curve"/>
    </contour>
  </outline>
</glyph>
<glyph name="g" format="1">
  <advance width="492"/>
  <unicode hex="0067"/>
  <outline>
    <contour>
      <point x="159" y="0" type="line"/>
      <point x="218" y="95"/>
      <point x="287" y="230"/>
      <point x="322" y="373" type="curve"/>
      <point x="310" y="257" type="line"/>
      <point x="310" y="25" type="line"/>
      <point x="309" y="-135"/>
      <point x="263" y="-173"/>
      <point x="199" y="-173" type="curve" smooth="yes"/>
      <point x="158" y="-173"/>
      <point x="64" y="-138"/>
      <point x="6" y="-90" type="curve"/>
      <point x="0" y="-97" type="line"/>
      <point x="111" y="-233" type="line"/>
      <point x="117" y="-233" type="line" smooth="yes"/>
      <point x="247" y="-233"/>
      <point x="424" y="-91"/>
      <point x="424" y="75" type="curve" smooth="yes"/>
      <point x="424" y="87" type="line"/>
      <point x="426" y="113" type="line"/>
      <point x="425" y="113" type="line"/>
      <point x="425" y="121" type="line" smooth="yes"/>
      <point x="426" y="226"/>
      <point x="426" y="331"/>
      <point x="427" y="435" type="curve"/>
      <point x="465" y="490" type="line"/>
      <point x="351" y="490" type="line" smooth="yes"/>
      <point x="140" y="486"/>
      <point x="28" y="345"/>
      <point x="28" y="163" type="curve" smooth="yes"/>
      <point x="28" y="82"/>
      <point x="55" y="10"/>
      <point x="85" y="-11" type="curve"/>
    </contour>
    <contour>
      <point x="175" y="77" type="curve" smooth="yes"/>
      <point x="163" y="77"/>
      <point x="152" y="119"/>
      <point x="152" y="217" type="curve" smooth="yes"/>
      <point x="152" y="318"/>
      <point x="178" y="460"/>
      <point x="312" y="461" type="curve"/>
      <point x="311" y="355"/>
      <point x="194" y="77"/>
    </contour>
  </outline>
</glyph>
<glyph name="h" format="1">
  <advance width="533"/>
  <unicode hex="0068"/>
  <outline>
    <contour>
      <point x="187" y="710" type="line"/>
      <point x="4" y="653" type="line"/>
      <point x="72" y="576" type="line"/>
      <point x="72" y="0" type="line"/>
      <point x="202" y="0" type="line"/>
      <point x="187" y="61" type="line"/>
      <point x="187" y="145"/>
      <point x="258" y="311"/>
      <point x="308" y="410" type="curve"/>
      <point x="316" y="409" type="line"/>
      <point x="327" y="370"/>
      <point x="336" y="300"/>
      <point x="336" y="144" type="curve" smooth="yes"/>
      <point x="336" y="0" type="line"/>
      <point x="525" y="0" type="line"/>
      <point x="451" y="86" type="line"/>
      <point x="451" y="202" type="line" smooth="yes"/>
      <point x="451" y="406"/>
      <point x="449" y="435"/>
      <point x="423" y="515" type="curve"/>
      <point x="325" y="490" type="line"/>
      <point x="304" y="461"/>
      <point x="226" y="316"/>
      <point x="187" y="168" type="curve"/>
    </contour>
  </outline>
</glyph>
<glyph name="i" format="1">
  <advance width="274"/>
  <unicode hex="0069"/>
  <outline>
    <contour>
      <point x="215" y="639" type="line"/>
      <point x="132" y="731" type="line"/>
      <point x="48" y="639" type="line"/>
      <point x="132" y="546" type="line"/>
    </contour>
    <contour>
      <point x="195" y="86" type="line"/>
      <point x="195" y="500" type="line"/>
      <point x="12" y="433" type="line"/>
      <point x="80" y="356" type="line"/>
      <point x="80" y="0" type="line"/>
      <point x="269" y="0" type="line"/>
    </contour>
  </outline>
</glyph>
<glyph name="j" format="1">
  <advance width="283"/>
  <unicode hex="006A"/>
  <outline>
    <contour>
      <point x="236" y="639" type="line"/>
      <point x="155" y="731" type="line"/>
      <point x="73" y="639" type="line"/>
      <point x="155" y="546" type="line"/>
    </contour>
    <contour>
      <point x="215" y="500" type="line"/>
      <point x="36" y="433" type="line"/>
      <point x="101" y="356" type="line"/>
      <point x="101" y="-63" type="line" smooth="yes"/>
      <point x="101" y="-133"/>
      <point x="95" y="-201"/>
      <point x="79" y="-222" type="curve"/>
      <point x="85" y="-225" type="line"/>
      <point x="144" y="-173"/>
      <point x="215" y="-89"/>
      <point x="215" y="6" type="curve" smooth="yes"/>
    </contour>
  </outline>
</glyph>
<glyph name="k" format="1">
  <advance width="532"/>
  <unicode hex="006B"/>
  <outline>
    <contour>
      <point x="195" y="710" type="line"/>
      <point x="12" y="653" type="line"/>
      <point x="80" y="576" type="line"/>
      <point x="80" y="0" type="line"/>
      <point x="217" y="0" type="line"/>
      <point x="195" y="61" type="line"/>
      <point x="195" y="98"/>
      <point x="213" y="144"/>
      <point x="238" y="192" type="curve"/>
      <point x="284" y="140"/>
      <point x="318" y="77"/>
      <point x="376" y="23" type="curve"/>
      <point x="414" y="-1"/>
      <point x="471" y="-9"/>
      <point x="526" y="-12" type="curve"/>
      <point x="528" y="-10" type="line"/>
      <point x="486" y="36" type="line" smooth="yes"/>
      <point x="438" y="90"/>
      <point x="345" y="225"/>
      <point x="296" y="291" type="curve"/>
      <point x="317" y="323"/>
      <point x="338" y="353"/>
      <point x="354" y="379" type="curve"/>
      <point x="482" y="335" type="line"/>
      <point x="487" y="337" type="line"/>
      <point x="412" y="504" type="line"/>
      <point x="405" y="503" type="line"/>
      <point x="384" y="474"/>
      <point x="254" y="294"/>
      <point x="195" y="151" type="curve"/>
    </contour>
  </outline>
</glyph>
<glyph name="l" format="1">
  <advance width="274"/>
  <unicode hex="006C"/>
  <outline>
    <contour>
      <point x="80" y="576" type="line"/>
      <point x="80" y="546" type="line"/>
      <point x="12" y="517" type="line"/>
      <point x="80" y="440" type="line"/>
      <point x="80" y="0" type="line"/>
      <point x="269" y="0" type="line"/>
      <point x="195" y="86" type="line"/>
      <point x="195" y="710" type="line"/>
      <point x="12" y="653" type="line"/>
    </contour>
  </outline>
</glyph>
<glyph name="m" format="1">
  <advance width="806"/>
  <unicode hex="006D"/>
  <outline>
    <contour>
      <point x="193" y="500" type="line"/>
      <point x="10" y="433" type="line"/>
      <point x="78" y="356" type="line"/>
      <point x="78" y="0" type="line"/>
      <point x="208" y="0" type="line"/>
      <point x="193" y="61" type="line"/>
      <point x="193" y="145"/>
      <point x="264" y="311"/>
      <point x="314" y="410" type="curve"/>
      <point x="322" y="409" type="line"/>
      <point x="333" y="370"/>
      <point x="342" y="300"/>
      <point x="342" y="144" type="curve" smooth="yes"/>
      <point x="342" y="0" type="line"/>
      <point x="471" y="0" type="line"/>
      <point x="457" y="57" type="line"/>
      <point x="457" y="80" type="line"/>
      <point x="466" y="171"/>
      <point x="535" y="329"/>
      <point x="582" y="419" type="curve"/>
      <point x="594" y="383"/>
      <point x="605" y="316"/>
      <point x="605" y="144" type="curve" smooth="yes"/>
      <point x="605" y="3" type="line"/>
      <point x="794" y="3" type="line"/>
      <point x="720" y="86" type="line"/>
      <point x="720" y="202" type="line" smooth="yes"/>
      <point x="720" y="406"/>
      <point x="718" y="435"/>
      <point x="692" y="515" type="curve"/>
      <point x="594" y="490" type="line"/>
      <point x="573" y="461"/>
      <point x="496" y="319"/>
      <point x="457" y="172" type="curve"/>
      <point x="457" y="202" type="line" smooth="yes"/>
      <point x="457" y="406"/>
      <point x="455" y="435"/>
      <point x="429" y="515" type="curve"/>
      <point x="331" y="490" type="line"/>
      <point x="310" y="461"/>
      <point x="232" y="316"/>
      <point x="193" y="168" type="curve"/>
    </contour>
  </outline>
</glyph>
<glyph name="n" format="1">
  <advance width="543"/>
  <unicode hex="006E"/>
  <outline>
    <contour>
      <point x="193" y="500" type="line"/>
      <point x="10" y="433" type="line"/>
      <point x="78" y="356" type="line"/>
      <point x="78" y="0" type="line"/>
      <point x="208" y="0" type="line"/>
      <point x="193" y="61" type="line"/>
      <point x="193" y="145"/>
      <point x="264" y="311"/>
      <point x="314" y="410" type="curve"/>
      <point x="322" y="409" type="line"/>
      <point x="333" y="370"/>
      <point x="342" y="300"/>
      <point x="342" y="144" type="curve" smooth="yes"/>
      <point x="342" y="0" type="line"/>
      <point x="531" y="0" type="line"/>
      <point x="457" y="86" type="line"/>
      <point x="457" y="202" type="line" smooth="yes"/>
      <point x="457" y="406"/>
      <point x="455" y="435"/>
      <point x="429" y="515" type="curve"/>
      <point x="331" y="490" type="line"/>
      <point x="310" y="461"/>
      <point x="232" y="316"/>
      <point x="193" y="168" type="curve"/>
    </contour>
  </outline>
</glyph>
<glyph name="p" format="1">
  <advance width="508"/>
  <unicode hex="0070"/>
  <outline>
    <contour>
      <point x="311" y="490" type="line"/>
      <point x="267" y="402"/>
      <point x="225" y="293"/>
      <point x="195" y="174" type="curve"/>
      <point x="195" y="505" type="line"/>
      <point x="12" y="448" type="line"/>
      <point x="80" y="371" type="line"/>
      <point x="80" y="-149" type="line"/>
      <point x="56" y="-215" type="line"/>
      <point x="269" y="-215" type="line"/>
      <point x="195" y="-159" type="line"/>
      <point x="195" y="-39" type="line"/>
      <point x="380" y="-15"/>
      <point x="476" y="140"/>
      <point x="476" y="271" type="curve" smooth="yes"/>
      <point x="476" y="369"/>
      <point x="441" y="460"/>
      <point x="410" y="508" type="curve"/>
    </contour>
    <contour>
      <point x="195" y="50" type="line" smooth="yes"/>
      <point x="195" y="146"/>
      <point x="284" y="399"/>
      <point x="304" y="399" type="curve" smooth="yes"/>
      <point x="322" y="399"/>
      <point x="352" y="323"/>
      <point x="352" y="217" type="curve" smooth="yes"/>
      <point x="352" y="131"/>
      <point x="328" y="-12"/>
      <point x="195" y="-13" type="curve"/>
    </contour>
  </outline>
</glyph>
<glyph name="q" format="1">
  <advance width="507"/>
  <unicode hex="0071"/>
  <outline>
    <contour>
      <point x="166" y="0" type="line"/>
      <point x="225" y="95"/>
      <point x="294" y="230"/>
      <point x="329" y="373" type="curve"/>
      <point x="317" y="257" type="line"/>
      <point x="317" y="0" type="line"/>
      <point x="319" y="-155" type="line"/>
      <point x="284" y="-215" type="line"/>
      <point x="502" y="-215" type="line"/>
      <point x="434" y="-138" type="line"/>
      <point x="434" y="490" type="line"/>
      <point x="358" y="490" type="line" smooth="yes"/>
      <point x="147" y="486"/>
      <point x="29" y="345"/>
      <point x="29" y="163" type="curve" smooth="yes"/>
      <point x="29" y="82"/>
      <point x="62" y="10"/>
      <point x="92" y="-11" type="curve"/>
    </contour>
    <contour>
      <point x="182" y="77" type="curve" smooth="yes"/>
      <point x="170" y="77"/>
      <point x="153" y="119"/>
      <point x="153" y="217" type="curve" smooth="yes"/>
      <point x="153" y="318"/>
      <point x="185" y="460"/>
      <point x="319" y="461" type="curve"/>
      <point x="318" y="355"/>
      <point x="201" y="77"/>
    </contour>
  </outline>
</glyph>
<glyph name="s" format="1">
  <advance width="343"/>
  <unicode hex="0073"/>
  <outline>
    <contour>
      <point x="290" y="342" type="line"/>
      <point x="285" y="490" type="line"/>
      <point x="214" y="490" type="line" smooth="yes"/>
      <point x="104" y="490"/>
      <point x="41" y="406"/>
      <point x="41" y="335" type="curve" smooth="yes"/>
      <point x="41" y="226"/>
      <point x="238" y="176"/>
      <point x="238" y="78" type="curve" smooth="yes"/>
      <point x="238" y="51"/>
      <point x="222" y="38"/>
      <point x="192" y="38" type="curve" smooth="yes"/>
      <point x="134" y="38"/>
      <point x="83" y="100"/>
      <point x="29" y="179" type="curve"/>
      <point x="26" y="170" type="line"/>
      <point x="50" y="0" type="line"/>
      <point x="132" y="0" type="line" smooth="yes"/>
      <point x="261" y="0"/>
      <point x="317" y="84"/>
      <point x="317" y="150" type="curve" smooth="yes"/>
      <point x="317" y="256"/>
      <point x="117" y="334"/>
      <point x="117" y="404" type="curve" smooth="yes"/>
      <point x="117" y="429"/>
      <point x="124" y="442"/>
      <point x="152" y="442" type="curve" smooth="yes"/>
      <point x="196" y="442"/>
      <point x="246" y="400"/>
      <point x="284" y="341" type="curve"/>
    </contour>
  </outline>
</glyph>
<glyph name="t" format="1">
  <advance width="364"/>
  <unicode hex="0074"/>
  <outline>
    <contour>
      <point x="344" y="479" type="line"/>
      <point x="344" y="490" type="line"/>
      <point x="185" y="490" type="line"/>
      <point x="185" y="660" type="line"/>
      <point x="72" y="490" type="line"/>
      <point x="1" y="490" type="line"/>
      <point x="69" y="431" type="line"/>
      <point x="69" y="147" type="line" smooth="yes"/>
      <point x="71" y="-5"/>
      <point x="146" y="-12"/>
      <point x="182" y="-12" type="curve" smooth="yes"/>
      <point x="244" y="-12"/>
      <point x="313" y="85"/>
      <point x="341" y="196" type="curve"/>
      <point x="330" y="200" type="line"/>
      <point x="309" y="138"/>
      <point x="264" y="62"/>
      <point x="232" y="62" type="curve" smooth="yes"/>
      <point x="205" y="62"/>
      <point x="185" y="68"/>
      <point x="185" y="178" type="curve" smooth="yes"/>
      <point x="185" y="428" type="line"/>
    </contour>
  </outline>
</glyph>
<glyph name="v" format="1">
  <advance width="435"/>
  <unicode hex="0076"/>
  <outline>
    <contour>
      <point x="292" y="490" type="line"/>
      <point x="292" y="484" type="line"/>
      <point x="352" y="435" type="line" smooth="yes"/>
      <point x="386" y="407"/>
      <point x="365" y="184"/>
      <point x="256" y="83" type="curve"/>
      <point x="180" y="522" type="line"/>
      <point x="0" y="427" type="line"/>
      <point x="93" y="358" type="line"/>
      <point x="159" y="-15" type="line"/>
      <point x="322" y="36"/>
      <point x="423" y="328"/>
      <point x="435" y="490" type="curve"/>
    </contour>
  </outline>
</glyph>
<glyph name="x" format="1">
  <advance width="541"/>
  <unicode hex="0078"/>
  <outline>
    <contour>
      <point x="351" y="0" type="line"/>
      <point x="519" y="0" type="line"/>
      <point x="435" y="65" type="line"/>
      <point x="316" y="270" type="line"/>
      <point x="353" y="318"/>
      <point x="416" y="404"/>
      <point x="447" y="490" type="curve"/>
      <point x="304" y="490" type="line"/>
      <point x="369" y="435" type="line"/>
      <point x="369" y="379"/>
      <point x="328" y="331"/>
      <point x="302" y="294" type="curve"/>
      <point x="188" y="490" type="line"/>
      <point x="20" y="490" type="line"/>
      <point x="93" y="427" type="line"/>
      <point x="207" y="237" type="line"/>
      <point x="164" y="183"/>
      <point x="77" y="81"/>
      <point x="48" y="0" type="curve"/>
      <point x="200" y="0" type="line"/>
      <point x="140" y="55" type="line"/>
      <point x="140" y="108"/>
      <point x="190" y="170"/>
      <point x="222" y="213" type="curve"/>
    </contour>
  </outline>
</glyph>
<glyph name="y" format="1">
  <advance width="516"/>
  <unicode hex="0079"/>
  <outline>
    <contour>
      <point x="339" y="25" type="line"/>
      <point x="338" y="-135"/>
      <point x="292" y="-173"/>
      <point x="228" y="-173" type="curve" smooth="yes"/>
      <point x="187" y="-173"/>
      <point x="93" y="-138"/>
      <point x="35" y="-90" type="curve"/>
      <point x="29" y="-97" type="line"/>
      <point x="140" y="-233" type="line"/>
      <point x="146" y="-233" type="line" smooth="yes"/>
      <point x="276" y="-233"/>
      <point x="453" y="-91"/>
      <point x="453" y="75" type="curve" smooth="yes"/>
      <point x="453" y="490" type="line"/>
      <point x="340" y="490" type="line"/>
      <point x="340" y="420" type="line" smooth="yes"/>
      <point x="340" y="376"/>
      <point x="326" y="183"/>
      <point x="222" y="85" type="curve"/>
      <point x="190" y="490" type="line"/>
      <point x="5" y="490" type="line"/>
      <point x="87" y="411" type="line"/>
      <point x="124" y="-15" type="line"/>
      <point x="223" y="16"/>
      <point x="295" y="135"/>
      <point x="339" y="251" type="curve"/>
    </contour>
  </outline>
</glyph>
<glyph name="z" format="1">
  <advance width="425"/>
  <unicode hex="007A"/>
  <outline>
    <contour>
      <point x="412" y="490" type="line"/>
      <point x="99" y="490" type="line"/>
      <point x="52" y="498" type="line"/>
      <point x="33" y="275" type="line"/>
      <point x="39" y="276" type="line"/>
      <point x="100" y="379" type="line"/>
      <point x="303" y="379" type="line"/>
      <point x="23" y="-12" type="line"/>
      <point x="48" y="-12" type="line"/>
      <point x="96" y="50" type="line" smooth="yes"/>
      <point x="118" y="80"/>
      <point x="172" y="92"/>
      <point x="220" y="92" type="curve" smooth="yes"/>
      <point x="286" y="92"/>
      <point x="317" y="35"/>
      <point x="317" y="-35" type="curve" smooth="yes"/>
      <point x="317" y="-156"/>
      <point x="215" y="-205"/>
      <point x="132" y="-205" type="curve" smooth="yes"/>
      <point x="75" y="-205"/>
      <point x="45" y="-182"/>
      <point x="16" y="-161" type="curve"/>
      <point x="4" y="-179" type="line"/>
      <point x="50" y="-217"/>
      <point x="93" y="-225"/>
      <point x="130" y="-225" type="curve" smooth="yes"/>
      <point x="292" y="-225"/>
      <point x="415" y="-58"/>
      <point x="415" y="85" type="curve" smooth="yes"/>
      <point x="415" y="152"/>
      <point x="381" y="203"/>
      <point x="300" y="203" type="curve" smooth="yes"/>
      <point x="257" y="203"/>
      <point x="214" y="186"/>
      <point x="180" y="162" type="curve"/>
    </contour>
  </outline>
</glyph>
<glyph name="braceleft" format="1">
  <advance width="296"/>
  <unicode hex="007B"/>
  <outline>
    <contour>
      <point x="55" y="284" type="line"/>
      <point x="73" y="297"/>
      <point x="178" y="329"/>
      <point x="178" y="449" type="curve" smooth="yes"/>
      <point x="178" y="500"/>
      <point x="159" y="513"/>
      <point x="159" y="580" type="curve" smooth="yes"/>
      <point x="159" y="660"/>
      <point x="186" y="705"/>
      <point x="239" y="705" type="curve"/>
      <point x="239" y="726" type="line"/>
      <point x="142" y="726"/>
      <point x="85" y="685"/>
      <point x="85" y="568" type="curve" smooth="yes"/>
      <point x="85" y="526"/>
      <point x="105" y="472"/>
      <point x="105" y="424" type="curve" smooth="yes"/>
      <point x="105" y="365"/>
      <point x="75" y="331"/>
      <point x="57" y="316" type="curve" smooth="yes"/>
      <point x="44" y="306"/>
      <point x="37" y="303"/>
      <point x="17" y="297" type="curve"/>
      <point x="17" y="267" type="line"/>
      <point x="37" y="261"/>
      <point x="44" y="258"/>
      <point x="57" y="248" type="curve" smooth="yes"/>
      <point x="75" y="233"/>
      <point x="105" y="199"/>
      <point x="105" y="140" type="curve" smooth="yes"/>
      <point x="105" y="92"/>
      <point x="85" y="38"/>
      <point x="85" y="-4" type="curve" smooth="yes"/>
      <point x="85" y="-121"/>
      <point x="142" y="-162"/>
      <point x="238" y="-162" type="curve"/>
      <point x="238" y="-141" type="line"/>
      <point x="186" y="-141"/>
      <point x="159" y="-96"/>
      <point x="159" y="-16" type="curve" smooth="yes"/>
      <point x="159" y="51"/>
      <point x="178" y="64"/>
      <point x="178" y="115" type="curve" smooth="yes"/>
      <point x="178" y="235"/>
      <point x="73" y="267"/>
      <point x="55" y="280" type="curve"/>
    </contour>
  </outline>
</glyph>
<glyph name="braceright" format="1">
  <advance width="296"/>
  <unicode hex="007D"/>
  <outline>
    <contour>
      <point x="209" y="280" type="line"/>
      <point x="191" y="267"/>
      <point x="86" y="235"/>
      <point x="86" y="115" type="curve" smooth="yes"/>
      <point x="86" y="64"/>
      <point x="105" y="51"/>
      <point x="105" y="-16" type="curve" smooth="yes"/>
      <point x="105" y="-96"/>
      <point x="78" y="-141"/>
      <point x="25" y="-141" type="curve"/>
      <point x="25" y="-162" type="line"/>
      <point x="122" y="-162"/>
      <point x="179" y="-121"/>
      <point x="179" y="-4" type="curve" smooth="yes"/>
      <point x="179" y="38"/>
      <point x="159" y="92"/>
      <point x="159" y="140" type="curve" smooth="yes"/>
      <point x="159" y="199"/>
      <point x="189" y="233"/>
      <point x="207" y="248" type="curve" smooth="yes"/>
      <point x="220" y="258"/>
      <point x="227" y="261"/>
      <point x="247" y="267" type="curve"/>
      <point x="247" y="297" type="line"/>
      <point x="227" y="303"/>
      <point x="220" y="306"/>
      <point x="207" y="316" type="curve" smooth="yes"/>
      <point x="189" y="331"/>
      <point x="159" y="365"/>
      <point x="159" y="424" type="curve" smooth="yes"/>
      <point x="159" y="472"/>
      <point x="179" y="526"/>
      <point x="179" y="568" type="curve" smooth="yes"/>
      <point x="179" y="685"/>
      <point x="122" y="726"/>
      <point x="26" y="726" type="curve"/>
      <point x="26" y="705" type="line"/>
      <point x="78" y="705"/>
      <point x="105" y="660"/>
      <point x="105" y="580" type="curve" smooth="yes"/>
      <point x="105" y="513"/>
      <point x="86" y="500"/>
      <point x="86" y="449" type="curve" smooth="yes"/>
      <point x="86" y="329"/>
      <point x="191" y="297"/>
      <point x="209" y="284" type="curve"/>
    </contour>
  </outline>
</glyph>
<glyph name="asciitilde" format="1">
  <advance width="399"/>
  <unicode hex="007E"/>
  <outline>
    <contour>
      <point x="330" y="580" type="line"/>
      <point x="315" y="586" type="line"/>
      <point x="271" y="552" type="line"/>
      <point x="132" y="565" type="line"/>
      <point x="69" y="456" type="line"/>
      <point x="83" y="447" type="line"/>
      <point x="123" y="490" type="line"/>
      <point x="271" y="477" type="line"/>
    </contour>
  </outline>
</glyph>
<glyph name="exclamdown" format="1">
  <advance width="217"/>
  <unicode hex="00A1"/>
  <outline>
    <contour>
      <point x="27" y="411" type="line"/>
      <point x="108" y="318" type="line"/>
      <point x="190" y="411" type="line"/>
      <point x="108" y="503" type="line"/>
    </contour>
    <contour>
      <point x="130" y="257" type="line"/>
      <point x="96" y="257" type="line"/>
      <point x="50" y="-180" type="line"/>
      <point x="113" y="-226" type="line"/>
      <point x="177" y="-180" type="line"/>
    </contour>
  </outline>
</glyph>
<glyph name="dieresis" format="1">
  <advance width="411"/>
  <unicode hex="00A8"/>
  <outline>
    <contour>
      <point x="174" y="622" type="line"/>
      <point x="113" y="698" type="line"/>
      <point x="51" y="622" type="line"/>
      <point x="113" y="545" type="line"/>
    </contour>
    <contour>
      <point x="359" y="622" type="line"/>
      <point x="298" y="698" type="line"/>
      <point x="236" y="622" type="line"/>
      <point x="298" y="545" type="line"/>
    </contour>
  </outline>
</glyph>
<glyph name="guillemotleft" format="1">
  <advance width="512"/>
  <unicode hex="00AB"/>
  <outline>
    <contour>
      <point x="289" y="28" type="line"/>
      <point x="182" y="246" type="line"/>
      <point x="97" y="246" type="line"/>
      <point x="289" y="457" type="line"/>
      <point x="279" y="474" type="line"/>
      <point x="44" y="246" type="line"/>
      <point x="279" y="18" type="line"/>
    </contour>
    <contour>
      <point x="499" y="28" type="line"/>
      <point x="392" y="246" type="line"/>
      <point x="308" y="246" type="line"/>
      <point x="499" y="457" type="line"/>
      <point x="490" y="474" type="line"/>
      <point x="254" y="246" type="line"/>
      <point x="490" y="18" type="line"/>
    </contour>
  </outline>
</glyph>
<glyph name="softhyphen" format="1">
  <advance width="446"/>
  <unicode hex="00AD"/>
  <outline>
    <contour>
      <point x="26" y="309" type="line"/>
      <point x="26" y="243" type="line"/>
      <point x="420" y="243" type="line"/>
      <point x="420" y="309" type="line"/>
    </contour>
  </outline>
</glyph>
<glyph name="macron" format="1">
  <advance width="330"/>
  <unicode hex="00AF"/>
  <outline>
    <contour>
      <point x="60" y="640" type="line"/>
      <point x="60" y="601" type="line"/>
      <point x="280" y="601" type="line"/>
      <point x="280" y="640" type="line"/>
    </contour>
  </outline>
</glyph>
<glyph name="twosuperior" format="1">
  <advance width="361"/>
  <unicode hex="00B2"/>
  <outline>
    <contour>
      <point x="38" y="432" type="line"/>
      <point x="322" y="432" type="line"/>
      <point x="336" y="585" type="line"/>
      <point x="334" y="585" type="line"/>
      <point x="295" y="508" type="line"/>
      <point x="158" y="506" type="line"/>
      <point x="158" y="506"/>
      <point x="126" y="503"/>
      <point x="126" y="503" type="curve"/>
      <point x="124" y="506" type="line"/>
      <point x="182" y="570"/>
      <point x="308" y="622"/>
      <point x="308" y="712" type="curve" smooth="yes"/>
      <point x="308" y="779"/>
      <point x="222" y="810"/>
      <point x="133" y="810" type="curve" smooth="yes"/>
      <point x="42" y="810" type="line"/>
      <point x="42" y="700" type="line"/>
      <point x="45" y="700" type="line"/>
      <point x="68" y="757"/>
      <point x="95" y="790"/>
      <point x="143" y="790" type="curve" smooth="yes"/>
      <point x="189" y="790"/>
      <point x="216" y="764"/>
      <point x="216" y="724" type="curve" smooth="yes"/>
      <point x="216" y="608"/>
      <point x="89" y="495"/>
      <point x="33" y="453" type="curve"/>
    </contour>
  </outline>
</glyph>
<glyph name="threesuperior" format="1">
  <advance width="340"/>
  <unicode hex="00B3"/>
  <outline>
    <contour>
      <point x="40" y="416" type="line"/>
      <point x="111" y="416"/>
      <point x="318" y="453"/>
      <point x="318" y="545" type="curve" smooth="yes"/>
      <point x="318" y="606"/>
      <point x="228" y="624"/>
      <point x="162" y="629" type="curve"/>
      <point x="263" y="657"/>
      <point x="312" y="686"/>
      <point x="312" y="728" type="curve" smooth="yes"/>
      <point x="312" y="786"/>
      <point x="236" y="805"/>
      <point x="148" y="805" type="curve" smooth="yes"/>
      <point x="44" y="805" type="line"/>
      <point x="44" y="697" type="line"/>
      <point x="47" y="697" type="line"/>
      <point x="67" y="742"/>
      <point x="89" y="785"/>
      <point x="139" y="785" type="curve" smooth="yes"/>
      <point x="188" y="785"/>
      <point x="221" y="760"/>
      <point x="221" y="719" type="curve" smooth="yes"/>
      <point x="221" y="665"/>
      <point x="142" y="640"/>
      <point x="99" y="625" type="curve" smooth="yes"/>
      <point x="76" y="618" type="line"/>
      <point x="78" y="607" type="line"/>
      <point x="86" y="608"/>
      <point x="92" y="610"/>
      <point x="99" y="611" type="curve"/>
      <point x="161" y="600"/>
      <point x="211" y="579"/>
      <point x="211" y="523" type="curve" smooth="yes"/>
      <point x="211" y="456"/>
      <point x="103" y="435"/>
      <point x="35" y="435" type="curve"/>
    </contour>
  </outline>
</glyph>
<glyph name="acute" format="1">
  <advance width="204"/>
  <unicode hex="00B4"/>
  <outline>
    <contour>
      <point x="51" y="681" type="line"/>
      <point x="33" y="552" type="line"/>
      <point x="48" y="552" type="line"/>
      <point x="171" y="681" type="line"/>
    </contour>
  </outline>
</glyph>
<glyph name="paragraph" format="1">
  <advance width="583"/>
  <unicode hex="00B6"/>
  <outline>
    <contour>
      <point x="264" y="271" type="line"/>
      <point x="264" y="-9" type="line" smooth="yes"/>
      <point x="264" y="-31"/>
      <point x="264" y="-65"/>
      <point x="247" y="-100" type="curve"/>
      <point x="250" y="-102" type="line"/>
      <point x="274" y="-97"/>
      <point x="330" y="-49"/>
      <point x="330" y="24" type="curve" smooth="yes"/>
      <point x="330" y="641" type="line"/>
      <point x="394" y="641" type="line"/>
      <point x="394" y="0" type="line"/>
      <point x="460" y="0" type="line"/>
      <point x="460" y="606" type="line"/>
      <point x="529" y="683" type="line"/>
      <point x="442" y="683" type="line"/>
      <point x="442" y="685" type="line"/>
      <point x="304" y="685" type="line"/>
      <point x="304" y="684" type="line"/>
      <point x="265" y="684" type="line"/>
      <point x="264" y="685" type="line"/>
      <point x="122" y="685"/>
      <point x="22" y="632"/>
      <point x="22" y="490" type="curve" smooth="yes"/>
      <point x="22" y="377"/>
      <point x="113" y="303"/>
      <point x="213" y="303" type="curve" smooth="yes"/>
      <point x="230" y="303"/>
      <point x="252" y="307"/>
      <point x="268" y="314" type="curve"/>
    </contour>
  </outline>
</glyph>
<glyph name="cedilla" format="1">
  <advance width="249"/>
  <unicode hex="00B8"/>
  <outline>
    <contour>
      <point x="135" y="8" type="line"/>
      <point x="109" y="8" type="line"/>
      <point x="58" y="-72" type="line"/>
      <point x="132" y="-90"/>
      <point x="164" y="-95"/>
      <point x="164" y="-122" type="curve" smooth="yes"/>
      <point x="164" y="-138"/>
      <point x="144" y="-148"/>
      <point x="117" y="-148" type="curve" smooth="yes"/>
      <point x="91" y="-148"/>
      <point x="67" y="-139"/>
      <point x="47" y="-124" type="curve"/>
      <point x="38" y="-137" type="line"/>
      <point x="61" y="-156"/>
      <point x="84" y="-166"/>
      <point x="113" y="-166" type="curve" smooth="yes"/>
      <point x="163" y="-166"/>
      <point x="209" y="-132"/>
      <point x="209" y="-96" type="curve" smooth="yes"/>
      <point x="209" y="-63"/>
      <point x="162" y="-45"/>
      <point x="114" y="-34" type="curve"/>
    </contour>
  </outline>
</glyph>
<glyph name="onesuperior" format="1">
  <advance width="329"/>
  <unicode hex="00B9"/>
  <outline>
    <contour>
      <point x="213" y="814" type="line"/>
      <point x="67" y="674" type="line"/>
      <point x="68" y="673" type="line"/>
      <point x="133" y="696" type="line"/>
      <point x="133" y="468" type="line"/>
      <point x="74" y="426" type="line"/>
      <point x="277" y="426" type="line"/>
      <point x="213" y="468" type="line"/>
    </contour>
  </outline>
</glyph>
<glyph name="guillemotright" format="1">
  <advance width="512"/>
  <unicode hex="00BB"/>
  <outline>
    <contour>
      <point x="19" y="464" type="line"/>
      <point x="126" y="246" type="line"/>
      <point x="210" y="246" type="line"/>
      <point x="19" y="35" type="line"/>
      <point x="28" y="18" type="line"/>
      <point x="264" y="246" type="line"/>
      <point x="28" y="474" type="line"/>
    </contour>
    <contour>
      <point x="229" y="464" type="line"/>
      <point x="336" y="246" type="line"/>
      <point x="421" y="246" type="line"/>
      <point x="229" y="35" type="line"/>
      <point x="239" y="18" type="line"/>
      <point x="474" y="246" type="line"/>
      <point x="239" y="474" type="line"/>
    </contour>
  </outline>
</glyph>
<glyph name="onequarter" format="1">
  <advance width="745"/>
  <unicode hex="00BC"/>
  <outline>
    <contour>
      <point x="149" y="-33" type="line"/>
      <point x="192" y="-33" type="line"/>
      <point x="622" y="719" type="line"/>
      <point x="578" y="719" type="line"/>
    </contour>
    <contour>
      <point x="213" y="685" type="line"/>
      <point x="67" y="545" type="line"/>
      <point x="68" y="544" type="line"/>
      <point x="133" y="567" type="line"/>
      <point x="133" y="339" type="line"/>
      <point x="74" y="297" type="line"/>
      <point x="277" y="297" type="line"/>
      <point x="213" y="339" type="line"/>
    </contour>
    <contour>
      <point x="724" y="94" type="line"/>
      <point x="724" y="123" type="line"/>
      <point x="637" y="123" type="line"/>
      <point x="637" y="288" type="line"/>
      <point x="556" y="175" type="line"/>
      <point x="556" y="124" type="line"/>
      <point x="462" y="124" type="line"/>
      <point x="652" y="379" type="line"/>
      <point x="555" y="379" type="line"/>
      <point x="393" y="95" type="line"/>
      <point x="557" y="95" type="line"/>
      <point x="557" y="42" type="line"/>
      <point x="498" y="0" type="line"/>
      <point x="701" y="0" type="line"/>
      <point x="637" y="42" type="line"/>
      <point x="637" y="94" type="line"/>
    </contour>
  </outline>
</glyph>
<glyph name="onehalf" format="1">
  <advance width="782"/>
  <unicode hex="00BD"/>
  <outline>
    <contour>
      <point x="108" y="-33" type="line"/>
      <point x="151" y="-33" type="line"/>
      <point x="581" y="719" type="line"/>
      <point x="537" y="719" type="line"/>
    </contour>
    <contour>
      <point x="198" y="685" type="line"/>
      <point x="52" y="545" type="line"/>
      <point x="53" y="544" type="line"/>
      <point x="118" y="567" type="line"/>
      <point x="118" y="339" type="line"/>
      <point x="59" y="297" type="line"/>
      <point x="262" y="297" type="line"/>
      <point x="198" y="339" type="line"/>
    </contour>
    <contour>
      <point x="431" y="0" type="line"/>
      <point x="715" y="0" type="line"/>
      <point x="729" y="153" type="line"/>
      <point x="727" y="153" type="line"/>
      <point x="688" y="76" type="line"/>
      <point x="551" y="74" type="line"/>
      <point x="519" y="71" type="line"/>
      <point x="517" y="74" type="line"/>
      <point x="575" y="138"/>
      <point x="701" y="190"/>
      <point x="701" y="280" type="curve" smooth="yes"/>
      <point x="701" y="347"/>
      <point x="615" y="378"/>
      <point x="526" y="378" type="curve" smooth="yes"/>
      <point x="435" y="378" type="line"/>
      <point x="435" y="268" type="line"/>
      <point x="438" y="268" type="line"/>
      <point x="461" y="325"/>
      <point x="488" y="358"/>
      <point x="536" y="358" type="curve" smooth="yes"/>
      <point x="582" y="358"/>
      <point x="609" y="332"/>
      <point x="609" y="292" type="curve" smooth="yes"/>
      <point x="609" y="176"/>
      <point x="482" y="63"/>
      <point x="426" y="21" type="curve"/>
    </contour>
  </outline>
</glyph>
<glyph name="threequarters" format="1">
  <advance width="807"/>
  <unicode hex="00BE"/>
  <outline>
    <contour>
      <point x="184" y="-33" type="line"/>
      <point x="227" y="-33" type="line"/>
      <point x="657" y="719" type="line"/>
      <point x="613" y="719" type="line"/>
    </contour>
    <contour>
      <point x="55" y="296" type="line"/>
      <point x="126" y="296"/>
      <point x="333" y="333"/>
      <point x="333" y="425" type="curve" smooth="yes"/>
      <point x="333" y="486"/>
      <point x="243" y="504"/>
      <point x="177" y="509" type="curve"/>
      <point x="278" y="537"/>
      <point x="327" y="566"/>
      <point x="327" y="608" type="curve" smooth="yes"/>
      <point x="327" y="666"/>
      <point x="251" y="685"/>
      <point x="163" y="685" type="curve" smooth="yes"/>
      <point x="59" y="685" type="line"/>
      <point x="59" y="577" type="line"/>
      <point x="62" y="577" type="line"/>
      <point x="82" y="622"/>
      <point x="104" y="665"/>
      <point x="154" y="665" type="curve" smooth="yes"/>
      <point x="203" y="665"/>
      <point x="236" y="640"/>
      <point x="236" y="599" type="curve" smooth="yes"/>
      <point x="236" y="545"/>
      <point x="157" y="520"/>
      <point x="114" y="505" type="curve" smooth="yes"/>
      <point x="91" y="498" type="line"/>
      <point x="93" y="487" type="line"/>
      <point x="101" y="488"/>
      <point x="107" y="490"/>
      <point x="114" y="491" type="curve"/>
      <point x="176" y="480"/>
      <point x="226" y="459"/>
      <point x="226" y="403" type="curve" smooth="yes"/>
      <point x="226" y="336"/>
      <point x="118" y="315"/>
      <point x="50" y="315" type="curve"/>
    </contour>
    <contour>
      <point x="759" y="94" type="line"/>
      <point x="759" y="123" type="line"/>
      <point x="672" y="123" type="line"/>
      <point x="672" y="288" type="line"/>
      <point x="591" y="175" type="line"/>
      <point x="591" y="124" type="line"/>
      <point x="497" y="124" type="line"/>
      <point x="687" y="379" type="line"/>
      <point x="590" y="379" type="line"/>
      <point x="428" y="95" type="line"/>
      <point x="592" y="95" type="line"/>
      <point x="592" y="42" type="line"/>
      <point x="533" y="0" type="line"/>
      <point x="736" y="0" type="line"/>
      <point x="672" y="42" type="line"/>
      <point x="672" y="94" type="line"/>
    </contour>
  </outline>
</glyph>
<glyph name="questiondown" format="1">
  <advance width="504"/>
  <unicode hex="00BF"/>
  <outline>
    <contour>
      <point x="333" y="316" type="line"/>
      <point x="414" y="409" type="line"/>
      <point x="333" y="501" type="line"/>
      <point x="252" y="409" type="line"/>
    </contour>
    <contour>
      <point x="451" y="-220" type="line"/>
      <point x="428" y="-49" type="line"/>
      <point x="420" y="-50" type="line"/>
      <point x="399" y="-124"/>
      <point x="367" y="-183"/>
      <point x="294" y="-183" type="curve" smooth="yes"/>
      <point x="256" y="-183"/>
      <point x="220" y="-153"/>
      <point x="220" y="-43" type="curve" smooth="yes"/>
      <point x="220" y="26"/>
      <point x="275" y="101"/>
      <point x="363" y="133" type="curve"/>
      <point x="346" y="255" type="line"/>
      <point x="323" y="255" type="line"/>
      <point x="312" y="147" type="line"/>
      <point x="249" y="113"/>
      <point x="75" y="65"/>
      <point x="75" y="-65" type="curve" smooth="yes"/>
      <point x="75" y="-202"/>
      <point x="232" y="-220"/>
      <point x="369" y="-220" type="curve" smooth="yes"/>
    </contour>
  </outline>
</glyph>
<glyph name="Agrave" format="1">
  <advance width="730"/>
  <unicode hex="00C0"/>
  <outline>
    <contour>
      <point x="356" y="869" type="line"/>
      <point x="231" y="869" type="line"/>
      <point x="354" y="740" type="line"/>
      <point x="368" y="740" type="line"/>
    </contour>
    <contour>
      <point x="240" y="0" type="line"/>
      <point x="149" y="78" type="line"/>
      <point x="201" y="214" type="line"/>
      <point x="448" y="214" type="line"/>
      <point x="506" y="69" type="line"/>
      <point x="419" y="0" type="line"/>
      <point x="712" y="0" type="line"/>
      <point x="641" y="67" type="line"/>
      <point x="383" y="695" type="line"/>
      <point x="339" y="695" type="line"/>
      <point x="97" y="79" type="line"/>
      <point x="29" y="0" type="line"/>
    </contour>
    <contour>
      <point x="216" y="254" type="line"/>
      <point x="322" y="533" type="line"/>
      <point x="433" y="254" type="line"/>
    </contour>
  </outline>
</glyph>
<glyph name="Aacute" format="1">
  <advance width="730"/>
  <unicode hex="00C1"/>
  <outline>
    <contour>
      <point x="360" y="869" type="line"/>
      <point x="347" y="740" type="line"/>
      <point x="361" y="740" type="line"/>
      <point x="484" y="869" type="line"/>
    </contour>
    <contour>
      <point x="240" y="0" type="line"/>
      <point x="149" y="78" type="line"/>
      <point x="201" y="214" type="line"/>
      <point x="448" y="214" type="line"/>
      <point x="506" y="69" type="line"/>
      <point x="419" y="0" type="line"/>
      <point x="712" y="0" type="line"/>
      <point x="641" y="67" type="line"/>
      <point x="383" y="695" type="line"/>
      <point x="339" y="695" type="line"/>
      <point x="97" y="79" type="line"/>
      <point x="29" y="0" type="line"/>
    </contour>
    <contour>
      <point x="216" y="254" type="line"/>
      <point x="322" y="533" type="line"/>
      <point x="433" y="254" type="line"/>
    </contour>
  </outline>
</glyph>
<glyph name="Acircumflex" format="1">
  <advance width="730"/>
  <unicode hex="00C2"/>
  <outline>
    <contour>
      <point x="401" y="869" type="line"/>
      <point x="322" y="869" type="line"/>
      <point x="263" y="740" type="line"/>
      <point x="278" y="740" type="line"/>
      <point x="362" y="810" type="line"/>
      <point x="447" y="740" type="line"/>
      <point x="461" y="740" type="line"/>
    </contour>
    <contour>
      <point x="240" y="0" type="line"/>
      <point x="149" y="78" type="line"/>
      <point x="201" y="214" type="line"/>
      <point x="448" y="214" type="line"/>
      <point x="506" y="69" type="line"/>
      <point x="419" y="0" type="line"/>
      <point x="712" y="0" type="line"/>
      <point x="641" y="67" type="line"/>
      <point x="383" y="695" type="line"/>
      <point x="339" y="695" type="line"/>
      <point x="97" y="79" type="line"/>
      <point x="29" y="0" type="line"/>
    </contour>
    <contour>
      <point x="216" y="254" type="line"/>
      <point x="322" y="533" type="line"/>
      <point x="433" y="254" type="line"/>
    </contour>
  </outline>
</glyph>
<glyph name="Atilde" format="1">
  <advance width="727"/>
  <unicode hex="00C3"/>
  <outline>
    <contour>
      <point x="484" y="868" type="line"/>
      <point x="470" y="874" type="line"/>
      <point x="455" y="855"/>
      <point x="442" y="840"/>
      <point x="428" y="840" type="curve" smooth="yes"/>
      <point x="384" y="840"/>
      <point x="334" y="847"/>
      <point x="290" y="851" type="curve"/>
      <point x="230" y="744" type="line"/>
      <point x="243" y="735" type="line"/>
      <point x="255" y="757"/>
      <point x="269" y="778"/>
      <point x="281" y="778" type="curve" smooth="yes"/>
      <point x="328" y="778"/>
      <point x="381" y="771"/>
      <point x="428" y="767" type="curve"/>
    </contour>
    <contour>
      <point x="441" y="214" type="line"/>
      <point x="499" y="69" type="line"/>
      <point x="412" y="0" type="line"/>
      <point x="705" y="0" type="line"/>
      <point x="634" y="67" type="line"/>
      <point x="376" y="695" type="line"/>
      <point x="332" y="695" type="line"/>
      <point x="90" y="79" type="line"/>
      <point x="22" y="0" type="line"/>
      <point x="233" y="0" type="line"/>
      <point x="142" y="78" type="line"/>
      <point x="194" y="214" type="line"/>
    </contour>
    <contour>
      <point x="424" y="259" type="line"/>
      <point x="211" y="259" type="line"/>
      <point x="315" y="533" type="line"/>
    </contour>
  </outline>
</glyph>
<glyph name="Adieresis" format="1">
  <advance width="730"/>
  <unicode hex="00C4"/>
  <outline>
    <contour>
      <point x="316" y="830" type="line"/>
      <point x="242" y="917" type="line"/>
      <point x="169" y="830" type="line"/>
      <point x="242" y="742" type="line"/>
    </contour>
    <contour>
      <point x="538" y="830" type="line"/>
      <point x="465" y="917" type="line"/>
      <point x="391" y="830" type="line"/>
      <point x="465" y="742" type="line"/>
    </contour>
    <contour>
      <point x="240" y="0" type="line"/>
      <point x="149" y="78" type="line"/>
      <point x="201" y="214" type="line"/>
      <point x="448" y="214" type="line"/>
      <point x="506" y="69" type="line"/>
      <point x="419" y="0" type="line"/>
      <point x="712" y="0" type="line"/>
      <point x="641" y="67" type="line"/>
      <point x="383" y="695" type="line"/>
      <point x="339" y="695" type="line"/>
      <point x="97" y="79" type="line"/>
      <point x="29" y="0" type="line"/>
    </contour>
    <contour>
      <point x="216" y="254" type="line"/>
      <point x="322" y="533" type="line"/>
      <point x="433" y="254" type="line"/>
    </contour>
  </outline>
</glyph>
<glyph name="Aring" format="1">
  <advance width="730"/>
  <unicode hex="00C5"/>
  <outline>
    <contour>
      <point x="267" y="829" type="curve" smooth="yes"/>
      <point x="267" y="775"/>
      <point x="309" y="731"/>
      <point x="361" y="731" type="curve" smooth="yes"/>
      <point x="412" y="731"/>
      <point x="454" y="775"/>
      <point x="454" y="829" type="curve" smooth="yes"/>
      <point x="454" y="883"/>
      <point x="412" y="927"/>
      <point x="361" y="927" type="curve" smooth="yes"/>
      <point x="309" y="927"/>
      <point x="267" y="883"/>
    </contour>
    <contour>
      <point x="300" y="829" type="curve" smooth="yes"/>
      <point x="300" y="864"/>
      <point x="327" y="893"/>
      <point x="361" y="893" type="curve" smooth="yes"/>
      <point x="394" y="893"/>
      <point x="421" y="864"/>
      <point x="421" y="829" type="curve" smooth="yes"/>
      <point x="421" y="794"/>
      <point x="394" y="765"/>
      <point x="361" y="765" type="curve" smooth="yes"/>
      <point x="327" y="765"/>
      <point x="300" y="794"/>
    </contour>
    <contour>
      <point x="240" y="0" type="line"/>
      <point x="149" y="78" type="line"/>
      <point x="201" y="214" type="line"/>
      <point x="448" y="214" type="line"/>
      <point x="506" y="69" type="line"/>
      <point x="419" y="0" type="line"/>
      <point x="712" y="0" type="line"/>
      <point x="641" y="67" type="line"/>
      <point x="383" y="695" type="line"/>
      <point x="339" y="695" type="line"/>
      <point x="97" y="79" type="line"/>
      <point x="29" y="0" type="line"/>
    </contour>
    <contour>
      <point x="216" y="254" type="line"/>
      <point x="322" y="533" type="line"/>
      <point x="433" y="254" type="line"/>
    </contour>
  </outline>
</glyph>
<glyph name="AE" format="1">
  <advance width="910"/>
  <unicode hex="00C6"/>
  <outline>
    <contour>
      <point x="433" y="106" type="line"/>
      <point x="376" y="0" type="line"/>
      <point x="853" y="0" type="line"/>
      <point x="864" y="217" type="line"/>
      <point x="859" y="219" type="line"/>
      <point x="722" y="36" type="line"/>
      <point x="557" y="36" type="line"/>
      <point x="557" y="332" type="line"/>
      <point x="817" y="332" type="line"/>
      <point x="817" y="372" type="line"/>
      <point x="557" y="372" type="line"/>
      <point x="557" y="649" type="line"/>
      <point x="713" y="649" type="line"/>
      <point x="830" y="475" type="line"/>
      <point x="835" y="475" type="line"/>
      <point x="835" y="685" type="line"/>
      <point x="513" y="685" type="line"/>
      <point x="514" y="686" type="line"/>
      <point x="326" y="686" type="line"/>
      <point x="399" y="625" type="line"/>
      <point x="93" y="85" type="line"/>
      <point x="21" y="0" type="line"/>
      <point x="220" y="0" type="line"/>
      <point x="141" y="76" type="line"/>
      <point x="218" y="214" type="line"/>
      <point x="433" y="214" type="line"/>
    </contour>
    <contour>
      <point x="417" y="575" type="line"/>
      <point x="430" y="601" type="line"/>
      <point x="433" y="598" type="line"/>
      <point x="433" y="254" type="line"/>
      <point x="240" y="254" type="line"/>
    </contour>
  </outline>
</glyph>
<glyph name="Ccedilla" format="1">
  <advance width="651"/>
  <unicode hex="00C7"/>
  <outline>
    <contour>
      <point x="588" y="221" type="line"/>
      <point x="557" y="170"/>
      <point x="500" y="105"/>
      <point x="385" y="105" type="curve" smooth="yes"/>
      <point x="252" y="105"/>
      <point x="187" y="237"/>
      <point x="187" y="406" type="curve" smooth="yes"/>
      <point x="187" y="538"/>
      <point x="235" y="644"/>
      <point x="346" y="644" type="curve" smooth="yes"/>
      <point x="445" y="644"/>
      <point x="510" y="566"/>
      <point x="548" y="482" type="curve"/>
      <point x="554" y="482" type="line"/>
      <point x="554" y="685" type="line"/>
      <point x="405" y="685" type="line" smooth="yes"/>
      <point x="176" y="685"/>
      <point x="49" y="497"/>
      <point x="49" y="319" type="curve" smooth="yes"/>
      <point x="49" y="129"/>
      <point x="149" y="-3"/>
      <point x="311" y="-12" type="curve"/>
      <point x="268" y="-76" type="line"/>
      <point x="268" y="-79" type="line"/>
      <point x="306" y="-89"/>
      <point x="372" y="-92"/>
      <point x="372" y="-124" type="curve" smooth="yes"/>
      <point x="372" y="-138"/>
      <point x="349" y="-147"/>
      <point x="323" y="-147" type="curve" smooth="yes"/>
      <point x="296" y="-147"/>
      <point x="273" y="-138"/>
      <point x="254" y="-119" type="curve"/>
      <point x="243" y="-137" type="line"/>
      <point x="268" y="-160"/>
      <point x="289" y="-171"/>
      <point x="321" y="-171" type="curve" smooth="yes"/>
      <point x="369" y="-171"/>
      <point x="415" y="-145"/>
      <point x="415" y="-96" type="curve" smooth="yes"/>
      <point x="415" y="-63"/>
      <point x="356" y="-45"/>
      <point x="329" y="-34" type="curve"/>
      <point x="340" y="-12" type="line"/>
      <point x="478" y="-5"/>
      <point x="561" y="110"/>
      <point x="602" y="211" type="curve"/>
    </contour>
  </outline>
</glyph>
<glyph name="Egrave" format="1">
  <advance width="592"/>
  <unicode hex="00C8"/>
  <outline>
    <contour>
      <point x="327" y="869" type="line"/>
      <point x="203" y="869" type="line"/>
      <point x="326" y="740" type="line"/>
      <point x="340" y="740" type="line"/>
    </contour>
    <contour>
      <point x="389" y="649" type="line"/>
      <point x="506" y="475" type="line"/>
      <point x="511" y="475" type="line"/>
      <point x="511" y="685" type="line"/>
      <point x="52" y="685" type="line"/>
      <point x="109" y="581" type="line"/>
      <point x="109" y="106" type="line"/>
      <point x="52" y="0" type="line"/>
      <point x="529" y="0" type="line"/>
      <point x="540" y="217" type="line"/>
      <point x="535" y="219" type="line"/>
      <point x="398" y="36" type="line"/>
      <point x="233" y="36" type="line"/>
      <point x="233" y="332" type="line"/>
      <point x="493" y="332" type="line"/>
      <point x="493" y="372" type="line"/>
      <point x="233" y="372" type="line"/>
      <point x="233" y="649" type="line"/>
    </contour>
  </outline>
</glyph>
<glyph name="Eacute" format="1">
  <advance width="592"/>
  <unicode hex="00C9"/>
  <outline>
    <contour>
      <point x="272" y="869" type="line"/>
      <point x="260" y="740" type="line"/>
      <point x="274" y="740" type="line"/>
      <point x="397" y="869" type="line"/>
    </contour>
    <contour>
      <point x="389" y="649" type="line"/>
      <point x="506" y="475" type="line"/>
      <point x="511" y="475" type="line"/>
      <point x="511" y="685" type="line"/>
      <point x="52" y="685" type="line"/>
      <point x="109" y="581" type="line"/>
      <point x="109" y="106" type="line"/>
      <point x="52" y="0" type="line"/>
      <point x="529" y="0" type="line"/>
      <point x="540" y="217" type="line"/>
      <point x="535" y="219" type="line"/>
      <point x="398" y="36" type="line"/>
      <point x="233" y="36" type="line"/>
      <point x="233" y="332" type="line"/>
      <point x="493" y="332" type="line"/>
      <point x="493" y="372" type="line"/>
      <point x="233" y="372" type="line"/>
      <point x="233" y="649" type="line"/>
    </contour>
  </outline>
</glyph>
<glyph name="Edieresis" format="1">
  <advance width="592"/>
  <unicode hex="00CB"/>
  <outline>
    <contour>
      <point x="266" y="829" type="line"/>
      <point x="193" y="916" type="line"/>
      <point x="119" y="829" type="line"/>
      <point x="193" y="741" type="line"/>
    </contour>
    <contour>
      <point x="488" y="829" type="line"/>
      <point x="416" y="916" type="line"/>
      <point x="342" y="829" type="line"/>
      <point x="416" y="741" type="line"/>
    </contour>
    <contour>
      <point x="389" y="649" type="line"/>
      <point x="506" y="475" type="line"/>
      <point x="511" y="475" type="line"/>
      <point x="511" y="685" type="line"/>
      <point x="52" y="685" type="line"/>
      <point x="109" y="581" type="line"/>
      <point x="109" y="106" type="line"/>
      <point x="52" y="0" type="line"/>
      <point x="529" y="0" type="line"/>
      <point x="540" y="217" type="line"/>
      <point x="535" y="219" type="line"/>
      <point x="398" y="36" type="line"/>
      <point x="233" y="36" type="line"/>
      <point x="233" y="332" type="line"/>
      <point x="493" y="332" type="line"/>
      <point x="493" y="372" type="line"/>
      <point x="233" y="372" type="line"/>
      <point x="233" y="649" type="line"/>
    </contour>
  </outline>
</glyph>
<glyph name="Igrave" format="1">
  <advance width="358"/>
  <unicode hex="00CC"/>
  <outline>
    <contour>
      <point x="204" y="869" type="line"/>
      <point x="79" y="869" type="line"/>
      <point x="202" y="740" type="line"/>
      <point x="216" y="740" type="line"/>
    </contour>
    <contour>
      <point x="117" y="106" type="line"/>
      <point x="47" y="0" type="line"/>
      <point x="311" y="0" type="line"/>
      <point x="241" y="106" type="line"/>
      <point x="241" y="579" type="line"/>
      <point x="311" y="685" type="line"/>
      <point x="47" y="685" type="line"/>
      <point x="117" y="579" type="line"/>
    </contour>
  </outline>
</glyph>
<glyph name="Iacute" format="1">
  <advance width="358"/>
  <unicode hex="00CD"/>
  <outline>
    <contour>
      <point x="155" y="869" type="line"/>
      <point x="143" y="740" type="line"/>
      <point x="157" y="740" type="line"/>
      <point x="280" y="869" type="line"/>
    </contour>
    <contour>
      <point x="117" y="106" type="line"/>
      <point x="47" y="0" type="line"/>
      <point x="311" y="0" type="line"/>
      <point x="241" y="106" type="line"/>
      <point x="241" y="579" type="line"/>
      <point x="311" y="685" type="line"/>
      <point x="47" y="685" type="line"/>
      <point x="117" y="579" type="line"/>
    </contour>
  </outline>
</glyph>
<glyph name="Icircumflex" format="1">
  <advance width="358"/>
  <unicode hex="00CE"/>
  <outline>
    <contour>
      <point x="221" y="869" type="line"/>
      <point x="142" y="869" type="line"/>
      <point x="83" y="740" type="line"/>
      <point x="97" y="740" type="line"/>
      <point x="182" y="810" type="line"/>
      <point x="267" y="740" type="line"/>
      <point x="281" y="740" type="line"/>
    </contour>
    <contour>
      <point x="117" y="106" type="line"/>
      <point x="47" y="0" type="line"/>
      <point x="311" y="0" type="line"/>
      <point x="241" y="106" type="line"/>
      <point x="241" y="579" type="line"/>
      <point x="311" y="685" type="line"/>
      <point x="47" y="685" type="line"/>
      <point x="117" y="579" type="line"/>
    </contour>
  </outline>
</glyph>
<glyph name="Idieresis" format="1">
  <advance width="446"/>
  <unicode hex="00CF"/>
  <outline>
    <contour>
      <point x="186" y="830" type="line"/>
      <point x="112" y="917" type="line"/>
      <point x="39" y="830" type="line"/>
      <point x="112" y="742" type="line"/>
    </contour>
    <contour>
      <point x="407" y="830" type="line"/>
      <point x="334" y="917" type="line"/>
      <point x="260" y="830" type="line"/>
      <point x="334" y="742" type="line"/>
    </contour>
    <contour>
      <point x="161" y="106" type="line"/>
      <point x="91" y="0" type="line"/>
      <point x="355" y="0" type="line"/>
      <point x="285" y="106" type="line"/>
      <point x="285" y="579" type="line"/>
      <point x="355" y="685" type="line"/>
      <point x="91" y="685" type="line"/>
      <point x="161" y="579" type="line"/>
    </contour>
  </outline>
</glyph>
<glyph name="Eth" format="1">
  <advance width="708"/>
  <unicode hex="00D0"/>
  <outline>
    <contour>
      <point x="40" y="685" type="line"/>
      <point x="111" y="579" type="line"/>
      <point x="111" y="378" type="line"/>
      <point x="40" y="378" type="line"/>
      <point x="40" y="328" type="line"/>
      <point x="111" y="328" type="line"/>
      <point x="111" y="106" type="line"/>
      <point x="40" y="0" type="line"/>
      <point x="278" y="0" type="line" smooth="yes"/>
      <point x="512" y="0"/>
      <point x="658" y="140"/>
      <point x="658" y="382" type="curve" smooth="yes"/>
      <point x="658" y="524"/>
      <point x="581" y="685"/>
      <point x="294" y="685" type="curve" smooth="yes"/>
    </contour>
    <contour>
      <point x="235" y="38" type="line"/>
      <point x="235" y="328" type="line"/>
      <point x="374" y="328" type="line"/>
      <point x="374" y="378" type="line"/>
      <point x="235" y="378" type="line"/>
      <point x="235" y="653" type="line"/>
      <point x="301" y="653" type="line" smooth="yes"/>
      <point x="452" y="653"/>
      <point x="524" y="544"/>
      <point x="524" y="344" type="curve" smooth="yes"/>
      <point x="524" y="222"/>
      <point x="497" y="38"/>
      <point x="295" y="38" type="curve" smooth="yes"/>
    </contour>
  </outline>
</glyph>
<glyph name="Ntilde" format="1">
  <advance width="756"/>
  <unicode hex="00D1"/>
  <outline>
    <contour>
      <point x="504" y="836" type="line"/>
      <point x="490" y="842" type="line"/>
      <point x="476" y="823"/>
      <point x="463" y="808"/>
      <point x="448" y="808" type="curve" smooth="yes"/>
      <point x="404" y="808"/>
      <point x="354" y="815"/>
      <point x="310" y="819" type="curve"/>
      <point x="250" y="712" type="line"/>
      <point x="263" y="703" type="line"/>
      <point x="276" y="725"/>
      <point x="289" y="746"/>
      <point x="302" y="746" type="curve" smooth="yes"/>
      <point x="348" y="746"/>
      <point x="402" y="739"/>
      <point x="448" y="735" type="curve"/>
    </contour>
    <contour>
      <point x="527" y="0" type="line"/>
      <point x="675" y="0" type="line"/>
      <point x="634" y="58" type="line"/>
      <point x="634" y="592" type="line"/>
      <point x="704" y="685" type="line"/>
      <point x="506" y="685" type="line"/>
      <point x="588" y="599" type="line"/>
      <point x="588" y="114" type="line"/>
      <point x="198" y="685" type="line"/>
      <point x="41" y="685" type="line"/>
      <point x="133" y="558" type="line"/>
      <point x="133" y="93" type="line"/>
      <point x="63" y="0" type="line"/>
      <point x="259" y="0" type="line"/>
      <point x="178" y="86" type="line"/>
      <point x="178" y="489" type="line"/>
    </contour>
  </outline>
</glyph>
<glyph name="Otilde" format="1">
  <advance width="738"/>
  <unicode hex="00D5"/>
  <outline>
    <contour>
      <point x="229" y="739" type="line"/>
      <point x="242" y="730" type="line"/>
      <point x="255" y="752"/>
      <point x="268" y="773"/>
      <point x="280" y="773" type="curve" smooth="yes"/>
      <point x="327" y="773"/>
      <point x="380" y="766"/>
      <point x="427" y="762" type="curve"/>
      <point x="483" y="863" type="line"/>
      <point x="469" y="869" type="line"/>
      <point x="455" y="850"/>
      <point x="441" y="835"/>
      <point x="427" y="835" type="curve" smooth="yes"/>
      <point x="383" y="835"/>
      <point x="333" y="842"/>
      <point x="289" y="846" type="curve"/>
    </contour>
    <contour>
      <point x="687" y="373" type="curve" smooth="yes"/>
      <point x="687" y="536"/>
      <point x="580" y="698"/>
      <point x="405" y="698" type="curve" smooth="yes"/>
      <point x="173" y="698"/>
      <point x="51" y="514"/>
      <point x="51" y="313" type="curve" smooth="yes"/>
      <point x="51" y="150"/>
      <point x="158" y="-12"/>
      <point x="333" y="-12" type="curve" smooth="yes"/>
      <point x="565" y="-12"/>
      <point x="687" y="172"/>
    </contour>
    <contour>
      <point x="338" y="655" type="curve" smooth="yes"/>
      <point x="473" y="655"/>
      <point x="554" y="458"/>
      <point x="554" y="252" type="curve" smooth="yes"/>
      <point x="554" y="173"/>
      <point x="515" y="30"/>
      <point x="400" y="30" type="curve" smooth="yes"/>
      <point x="265" y="30"/>
      <point x="186" y="228"/>
      <point x="186" y="434" type="curve" smooth="yes"/>
      <point x="186" y="513"/>
      <point x="209" y="655"/>
    </contour>
  </outline>
</glyph>
<glyph name="Odieresis" format="1">
  <advance width="738"/>
  <unicode hex="00D6"/>
  <outline>
    <contour>
      <point x="327" y="828" type="line"/>
      <point x="255" y="915" type="line"/>
      <point x="180" y="828" type="line"/>
      <point x="255" y="740" type="line"/>
    </contour>
    <contour>
      <point x="550" y="828" type="line"/>
      <point x="478" y="915" type="line"/>
      <point x="403" y="828" type="line"/>
      <point x="478" y="740" type="line"/>
    </contour>
    <contour>
      <point x="687" y="373" type="curve" smooth="yes"/>
      <point x="687" y="536"/>
      <point x="580" y="698"/>
      <point x="405" y="698" type="curve" smooth="yes"/>
      <point x="173" y="698"/>
      <point x="51" y="514"/>
      <point x="51" y="313" type="curve" smooth="yes"/>
      <point x="51" y="150"/>
      <point x="158" y="-12"/>
      <point x="333" y="-12" type="curve" smooth="yes"/>
      <point x="565" y="-12"/>
      <point x="687" y="172"/>
    </contour>
    <contour>
      <point x="338" y="655" type="curve" smooth="yes"/>
      <point x="473" y="655"/>
      <point x="554" y="458"/>
      <point x="554" y="252" type="curve" smooth="yes"/>
      <point x="554" y="173"/>
      <point x="515" y="30"/>
      <point x="400" y="30" type="curve" smooth="yes"/>
      <point x="265" y="30"/>
      <point x="186" y="228"/>
      <point x="186" y="434" type="curve" smooth="yes"/>
      <point x="186" y="513"/>
      <point x="209" y="655"/>
    </contour>
  </outline>
</glyph>
<glyph name="Oslash" format="1">
  <advance width="752"/>
  <unicode hex="00D8"/>
  <outline>
    <contour>
      <point x="706" y="690" type="line"/>
      <point x="642" y="690" type="line"/>
      <point x="590" y="630" type="line"/>
      <point x="545" y="672"/>
      <point x="486" y="698"/>
      <point x="415" y="698" type="curve" smooth="yes"/>
      <point x="183" y="698"/>
      <point x="61" y="514"/>
      <point x="61" y="313" type="curve" smooth="yes"/>
      <point x="61" y="234"/>
      <point x="86" y="155"/>
      <point x="132" y="95" type="curve"/>
      <point x="46" y="-5" type="line"/>
      <point x="110" y="-5" type="line"/>
      <point x="165" y="58" type="line"/>
      <point x="210" y="15"/>
      <point x="271" y="-12"/>
      <point x="343" y="-12" type="curve" smooth="yes"/>
      <point x="575" y="-12"/>
      <point x="697" y="172"/>
      <point x="697" y="373" type="curve" smooth="yes"/>
      <point x="697" y="453"/>
      <point x="671" y="534"/>
      <point x="624" y="594" type="curve"/>
    </contour>
    <contour>
      <point x="230" y="209" type="line"/>
      <point x="207" y="276"/>
      <point x="196" y="354"/>
      <point x="196" y="434" type="curve" smooth="yes"/>
      <point x="196" y="513"/>
      <point x="219" y="655"/>
      <point x="347" y="655" type="curve" smooth="yes"/>
      <point x="415" y="655"/>
      <point x="468" y="606"/>
      <point x="506" y="531" type="curve"/>
    </contour>
    <contour>
      <point x="526" y="481" type="line"/>
      <point x="551" y="414"/>
      <point x="564" y="334"/>
      <point x="564" y="252" type="curve" smooth="yes"/>
      <point x="564" y="173"/>
      <point x="525" y="30"/>
      <point x="410" y="30" type="curve" smooth="yes"/>
      <point x="342" y="30"/>
      <point x="287" y="81"/>
      <point x="250" y="159" type="curve"/>
    </contour>
  </outline>
</glyph>
<glyph name="Ugrave" format="1">
  <advance width="763"/>
  <unicode hex="00D9"/>
  <outline>
    <contour>
      <point x="437" y="869" type="line"/>
      <point x="313" y="869" type="line"/>
      <point x="435" y="740" type="line"/>
      <point x="450" y="740" type="line"/>
    </contour>
    <contour>
      <point x="251" y="579" type="line"/>
      <point x="321" y="685" type="line"/>
      <point x="56" y="685" type="line"/>
      <point x="126" y="580" type="line"/>
      <point x="126" y="221" type="line" smooth="yes"/>
      <point x="126" y="-15"/>
      <point x="338" y="-15"/>
      <point x="396" y="-15" type="curve" smooth="yes"/>
      <point x="494" y="-15"/>
      <point x="568" y="30"/>
      <point x="602" y="96" type="curve" smooth="yes"/>
      <point x="629" y="148"/>
      <point x="641" y="186"/>
      <point x="641" y="277" type="curve" smooth="yes"/>
      <point x="641" y="595" type="line"/>
      <point x="712" y="685" type="line"/>
      <point x="522" y="685" type="line"/>
      <point x="595" y="595" type="line"/>
      <point x="595" y="301" type="line" smooth="yes"/>
      <point x="595" y="77"/>
      <point x="508" y="33"/>
      <point x="432" y="33" type="curve" smooth="yes"/>
      <point x="339" y="33"/>
      <point x="251" y="51"/>
      <point x="251" y="236" type="curve" smooth="yes"/>
    </contour>
  </outline>
</glyph>
<glyph name="Ucircumflex" format="1">
  <advance width="763"/>
  <unicode hex="00DB"/>
  <outline>
    <contour>
      <point x="451" y="869" type="line"/>
      <point x="372" y="869" type="line"/>
      <point x="313" y="740" type="line"/>
      <point x="327" y="740" type="line"/>
      <point x="412" y="810" type="line"/>
      <point x="496" y="740" type="line"/>
      <point x="511" y="740" type="line"/>
    </contour>
    <contour>
      <point x="251" y="579" type="line"/>
      <point x="321" y="685" type="line"/>
      <point x="56" y="685" type="line"/>
      <point x="126" y="580" type="line"/>
      <point x="126" y="221" type="line" smooth="yes"/>
      <point x="126" y="-15"/>
      <point x="338" y="-15"/>
      <point x="396" y="-15" type="curve" smooth="yes"/>
      <point x="494" y="-15"/>
      <point x="568" y="30"/>
      <point x="602" y="96" type="curve" smooth="yes"/>
      <point x="629" y="148"/>
      <point x="641" y="186"/>
      <point x="641" y="277" type="curve" smooth="yes"/>
      <point x="641" y="595" type="line"/>
      <point x="712" y="685" type="line"/>
      <point x="522" y="685" type="line"/>
      <point x="595" y="595" type="line"/>
      <point x="595" y="301" type="line" smooth="yes"/>
      <point x="595" y="77"/>
      <point x="508" y="33"/>
      <point x="432" y="33" type="curve" smooth="yes"/>
      <point x="339" y="33"/>
      <point x="251" y="51"/>
      <point x="251" y="236" type="curve" smooth="yes"/>
    </contour>
  </outline>
</glyph>
<glyph name="Udieresis" format="1">
  <advance width="763"/>
  <unicode hex="00DC"/>
  <outline>
    <contour>
      <point x="384" y="828" type="line"/>
      <point x="307" y="919" type="line"/>
      <point x="230" y="828" type="line"/>
      <point x="307" y="736" type="line"/>
    </contour>
    <contour>
      <point x="617" y="828" type="line"/>
      <point x="541" y="919" type="line"/>
      <point x="463" y="828" type="line"/>
      <point x="541" y="736" type="line"/>
    </contour>
    <contour>
      <point x="251" y="579" type="line"/>
      <point x="321" y="685" type="line"/>
      <point x="56" y="685" type="line"/>
      <point x="126" y="580" type="line"/>
      <point x="126" y="221" type="line" smooth="yes"/>
      <point x="126" y="-15"/>
      <point x="338" y="-15"/>
      <point x="396" y="-15" type="curve" smooth="yes"/>
      <point x="494" y="-15"/>
      <point x="568" y="30"/>
      <point x="602" y="96" type="curve" smooth="yes"/>
      <point x="629" y="148"/>
      <point x="641" y="186"/>
      <point x="641" y="277" type="curve" smooth="yes"/>
      <point x="641" y="595" type="line"/>
      <point x="712" y="685" type="line"/>
      <point x="522" y="685" type="line"/>
      <point x="595" y="595" type="line"/>
      <point x="595" y="301" type="line" smooth="yes"/>
      <point x="595" y="77"/>
      <point x="508" y="33"/>
      <point x="432" y="33" type="curve" smooth="yes"/>
      <point x="339" y="33"/>
      <point x="251" y="51"/>
      <point x="251" y="236" type="curve" smooth="yes"/>
    </contour>
  </outline>
</glyph>
<glyph name="Thorn" format="1">
  <advance width="605"/>
  <unicode hex="00DE"/>
  <outline>
    <contour>
      <point x="247" y="558" type="line"/>
      <point x="247" y="579" type="line"/>
      <point x="317" y="685" type="line"/>
      <point x="52" y="685" type="line"/>
      <point x="123" y="579" type="line"/>
      <point x="123" y="106" type="line"/>
      <point x="52" y="0" type="line"/>
      <point x="332" y="0" type="line"/>
      <point x="247" y="106" type="line"/>
      <point x="247" y="163" type="line"/>
      <point x="269" y="163"/>
      <point x="304" y="165"/>
      <point x="334" y="170" type="curve" smooth="yes"/>
      <point x="434" y="183"/>
      <point x="546" y="252"/>
      <point x="546" y="375" type="curve" smooth="yes"/>
      <point x="546" y="541"/>
      <point x="349" y="558"/>
      <point x="281" y="558" type="curve" smooth="yes"/>
    </contour>
    <contour>
      <point x="247" y="528" type="line"/>
      <point x="349" y="528"/>
      <point x="410" y="475"/>
      <point x="410" y="363" type="curve" smooth="yes"/>
      <point x="410" y="251"/>
      <point x="350" y="197"/>
      <point x="247" y="197" type="curve"/>
    </contour>
  </outline>
</glyph>
<glyph name="germandbls" format="1">
  <advance width="584"/>
  <unicode hex="00DF"/>
  <outline>
    <contour>
      <point x="30" y="490" type="line"/>
      <point x="100" y="427" type="line"/>
      <point x="100" y="202" type="line"/>
      <point x="110" y="-229" type="line"/>
      <point x="118" y="-229" type="line"/>
      <point x="163" y="-58"/>
      <point x="215" y="-29"/>
      <point x="215" y="256" type="curve" smooth="yes"/>
      <point x="215" y="490" type="line"/>
      <point x="194" y="566"/>
      <point x="219" y="666"/>
      <point x="296" y="666" type="curve" smooth="yes"/>
      <point x="337" y="666"/>
      <point x="377" y="623"/>
      <point x="377" y="543" type="curve" smooth="yes"/>
      <point x="377" y="472"/>
      <point x="340" y="417"/>
      <point x="268" y="328" type="curve"/>
      <point x="343" y="266"/>
      <point x="452" y="176"/>
      <point x="452" y="88" type="curve" smooth="yes"/>
      <point x="452" y="51"/>
      <point x="436" y="38"/>
      <point x="406" y="38" type="curve" smooth="yes"/>
      <point x="348" y="38"/>
      <point x="306" y="79"/>
      <point x="288" y="125" type="curve"/>
      <point x="285" y="125" type="line"/>
      <point x="275" y="0" type="line"/>
      <point x="347" y="0" type="line" smooth="yes"/>
      <point x="475" y="0"/>
      <point x="531" y="84"/>
      <point x="531" y="150" type="curve" smooth="yes"/>
      <point x="531" y="256"/>
      <point x="424" y="350"/>
      <point x="350" y="404" type="curve"/>
      <point x="394" y="448"/>
      <point x="452" y="509"/>
      <point x="452" y="575" type="curve" smooth="yes"/>
      <point x="452" y="630"/>
      <point x="431" y="694"/>
      <point x="328" y="694" type="curve" smooth="yes"/>
      <point x="217" y="694"/>
      <point x="105" y="586"/>
      <point x="105" y="490" type="curve"/>
    </contour>
  </outline>
</glyph>
<glyph name="atilde" format="1">
  <advance width="507"/>
  <unicode hex="00E3"/>
  <outline>
    <contour>
      <point x="167" y="572" type="line"/>
      <point x="181" y="563" type="line"/>
      <point x="193" y="585"/>
      <point x="206" y="606"/>
      <point x="219" y="606" type="curve" smooth="yes"/>
      <point x="265" y="606"/>
      <point x="313" y="597"/>
      <point x="360" y="593" type="curve"/>
      <point x="416" y="696" type="line"/>
      <point x="402" y="702" type="line"/>
      <point x="387" y="683"/>
      <point x="374" y="668"/>
      <point x="360" y="668" type="curve" smooth="yes"/>
      <point x="316" y="668"/>
      <point x="271" y="677"/>
      <point x="227" y="681" type="curve"/>
    </contour>
    <contour>
      <point x="160" y="0" type="line"/>
      <point x="219" y="95"/>
      <point x="288" y="230"/>
      <point x="323" y="373" type="curve"/>
      <point x="311" y="257" type="line"/>
      <point x="311" y="0" type="line"/>
      <point x="502" y="0" type="line"/>
      <point x="428" y="86" type="line"/>
      <point x="428" y="436" type="line"/>
      <point x="466" y="490" type="line"/>
      <point x="352" y="490" type="line" smooth="yes"/>
      <point x="143" y="486"/>
      <point x="29" y="349"/>
      <point x="29" y="163" type="curve" smooth="yes"/>
      <point x="29" y="82"/>
      <point x="56" y="10"/>
      <point x="86" y="-11" type="curve"/>
    </contour>
    <contour>
      <point x="176" y="77" type="curve" smooth="yes"/>
      <point x="164" y="77"/>
      <point x="153" y="119"/>
      <point x="153" y="217" type="curve" smooth="yes"/>
      <point x="153" y="318"/>
      <point x="179" y="460"/>
      <point x="313" y="461" type="curve"/>
      <point x="312" y="355"/>
      <point x="195" y="77"/>
    </contour>
  </outline>
</glyph>
<glyph name="adieresis" format="1">
  <advance width="507"/>
  <unicode hex="00E4"/>
  <outline>
    <contour>
      <point x="250" y="622" type="line"/>
      <point x="189" y="698" type="line"/>
      <point x="127" y="622" type="line"/>
      <point x="189" y="545" type="line"/>
    </contour>
    <contour>
      <point x="435" y="622" type="line"/>
      <point x="374" y="698" type="line"/>
      <point x="312" y="622" type="line"/>
      <point x="374" y="545" type="line"/>
    </contour>
    <contour>
      <point x="160" y="0" type="line"/>
      <point x="219" y="95"/>
      <point x="288" y="230"/>
      <point x="323" y="373" type="curve"/>
      <point x="311" y="257" type="line"/>
      <point x="311" y="0" type="line"/>
      <point x="502" y="0" type="line"/>
      <point x="428" y="86" type="line"/>
      <point x="428" y="436" type="line"/>
      <point x="466" y="490" type="line"/>
      <point x="352" y="490" type="line" smooth="yes"/>
      <point x="143" y="486"/>
      <point x="29" y="349"/>
      <point x="29" y="163" type="curve" smooth="yes"/>
      <point x="29" y="82"/>
      <point x="56" y="10"/>
      <point x="86" y="-11" type="curve"/>
    </contour>
    <contour>
      <point x="176" y="77" type="curve" smooth="yes"/>
      <point x="164" y="77"/>
      <point x="153" y="119"/>
      <point x="153" y="217" type="curve" smooth="yes"/>
      <point x="153" y="318"/>
      <point x="179" y="460"/>
      <point x="313" y="461" type="curve"/>
      <point x="312" y="355"/>
      <point x="195" y="77"/>
    </contour>
  </outline>
</glyph>
<glyph name="aring" format="1">
  <advance width="507"/>
  <unicode hex="00E5"/>
  <outline>
    <contour>
      <point x="203" y="628" type="curve" smooth="yes"/>
      <point x="203" y="583"/>
      <point x="238" y="546"/>
      <point x="281" y="546" type="curve" smooth="yes"/>
      <point x="324" y="546"/>
      <point x="359" y="583"/>
      <point x="359" y="628" type="curve" smooth="yes"/>
      <point x="359" y="673"/>
      <point x="324" y="710"/>
      <point x="281" y="710" type="curve" smooth="yes"/>
      <point x="238" y="710"/>
      <point x="203" y="673"/>
    </contour>
    <contour>
      <point x="231" y="628" type="curve" smooth="yes"/>
      <point x="231" y="657"/>
      <point x="253" y="681"/>
      <point x="281" y="681" type="curve" smooth="yes"/>
      <point x="309" y="681"/>
      <point x="331" y="657"/>
      <point x="331" y="628" type="curve" smooth="yes"/>
      <point x="331" y="599"/>
      <point x="309" y="575"/>
      <point x="281" y="575" type="curve" smooth="yes"/>
      <point x="253" y="575"/>
      <point x="231" y="599"/>
    </contour>
    <contour>
      <point x="160" y="0" type="line"/>
      <point x="219" y="95"/>
      <point x="288" y="230"/>
      <point x="323" y="373" type="curve"/>
      <point x="311" y="257" type="line"/>
      <point x="311" y="0" type="line"/>
      <point x="502" y="0" type="line"/>
      <point x="428" y="86" type="line"/>
      <point x="428" y="436" type="line"/>
      <point x="466" y="490" type="line"/>
      <point x="352" y="490" type="line" smooth="yes"/>
      <point x="143" y="486"/>
      <point x="29" y="349"/>
      <point x="29" y="163" type="curve" smooth="yes"/>
      <point x="29" y="82"/>
      <point x="56" y="10"/>
      <point x="86" y="-11" type="curve"/>
    </contour>
    <contour>
      <point x="176" y="77" type="curve" smooth="yes"/>
      <point x="164" y="77"/>
      <point x="153" y="119"/>
      <point x="153" y="217" type="curve" smooth="yes"/>
      <point x="153" y="318"/>
      <point x="179" y="460"/>
      <point x="313" y="461" type="curve"/>
      <point x="312" y="355"/>
      <point x="195" y="77"/>
    </contour>
  </outline>
</glyph>
<glyph name="ae" format="1">
  <advance width="642"/>
  <unicode hex="00E6"/>
  <outline>
    <contour>
      <point x="594" y="227" type="line"/>
      <point x="594" y="227"/>
      <point x="525" y="59"/>
      <point x="453" y="59" type="curve" smooth="yes"/>
      <point x="417" y="59"/>
      <point x="390" y="116"/>
      <point x="381" y="199" type="curve"/>
      <point x="601" y="388" type="line"/>
      <point x="601" y="410"/>
      <point x="563" y="527"/>
      <point x="439" y="499" type="curve"/>
      <point x="134" y="486"/>
      <point x="20" y="349"/>
      <point x="20" y="163" type="curve" smooth="yes"/>
      <point x="20" y="82"/>
      <point x="47" y="10"/>
      <point x="77" y="-11" type="curve"/>
      <point x="151" y="0" type="line"/>
      <point x="184" y="53"/>
      <point x="220" y="118"/>
      <point x="251" y="190" type="curve"/>
      <point x="251" y="188" type="line" smooth="yes"/>
      <point x="251" y="55"/>
      <point x="310" y="-12"/>
      <point x="399" y="-12" type="curve" smooth="yes"/>
      <point x="496" y="-12"/>
      <point x="584" y="131"/>
      <point x="610" y="217" type="curve"/>
    </contour>
    <contour>
      <point x="379" y="223" type="line"/>
      <point x="378" y="237"/>
      <point x="377" y="252"/>
      <point x="377" y="268" type="curve" smooth="yes"/>
      <point x="377" y="428"/>
      <point x="408" y="461"/>
      <point x="426" y="472" type="curve"/>
      <point x="439" y="481"/>
      <point x="489" y="433"/>
      <point x="494" y="332" type="curve"/>
    </contour>
    <contour>
      <point x="167" y="77" type="curve" smooth="yes"/>
      <point x="155" y="77"/>
      <point x="144" y="119"/>
      <point x="144" y="217" type="curve" smooth="yes"/>
      <point x="144" y="318"/>
      <point x="170" y="460"/>
      <point x="304" y="461" type="curve"/>
      <point x="303" y="355"/>
      <point x="186" y="77"/>
    </contour>
  </outline>
</glyph>
<glyph name="ccedilla" format="1">
  <advance width="381"/>
  <unicode hex="00E7"/>
  <outline>
    <contour>
      <point x="357" y="228" type="line"/>
      <point x="311" y="122"/>
      <point x="257" y="59"/>
      <point x="224" y="59" type="curve" smooth="yes"/>
      <point x="179" y="59"/>
      <point x="155" y="140"/>
      <point x="155" y="269" type="curve" smooth="yes"/>
      <point x="155" y="335"/>
      <point x="172" y="427"/>
      <point x="191" y="427" type="curve"/>
      <point x="350" y="360" type="line"/>
      <point x="353" y="364" type="line"/>
      <point x="283" y="504" type="line"/>
      <point x="273" y="504" type="line"/>
      <point x="151" y="473"/>
      <point x="29" y="335"/>
      <point x="29" y="183" type="curve" smooth="yes"/>
      <point x="29" y="57"/>
      <point x="86" y="-5"/>
      <point x="163" y="-11" type="curve"/>
      <point x="117" y="-83" type="line"/>
      <point x="191" y="-101"/>
      <point x="223" y="-106"/>
      <point x="223" y="-133" type="curve" smooth="yes"/>
      <point x="223" y="-149"/>
      <point x="203" y="-159"/>
      <point x="176" y="-159" type="curve" smooth="yes"/>
      <point x="150" y="-159"/>
      <point x="126" y="-150"/>
      <point x="106" y="-135" type="curve"/>
      <point x="97" y="-148" type="line"/>
      <point x="120" y="-167"/>
      <point x="143" y="-177"/>
      <point x="172" y="-177" type="curve" smooth="yes"/>
      <point x="222" y="-177"/>
      <point x="268" y="-143"/>
      <point x="268" y="-107" type="curve" smooth="yes"/>
      <point x="268" y="-74"/>
      <point x="221" y="-56"/>
      <point x="173" y="-45" type="curve"/>
      <point x="190" y="-10" type="line"/>
      <point x="244" y="2"/>
      <point x="325" y="78"/>
      <point x="373" y="218" type="curve"/>
    </contour>
  </outline>
</glyph>
<glyph name="egrave" format="1">
  <advance width="417"/>
  <unicode hex="00E8"/>
  <outline>
    <contour>
      <point x="217" y="701" type="line"/>
      <point x="97" y="701" type="line"/>
      <point x="220" y="572" type="line"/>
      <point x="235" y="572" type="line"/>
    </contour>
    <contour>
      <point x="372" y="227" type="line"/>
      <point x="372" y="227"/>
      <point x="303" y="59"/>
      <point x="231" y="59" type="curve" smooth="yes"/>
      <point x="195" y="59"/>
      <point x="168" y="116"/>
      <point x="159" y="199" type="curve"/>
      <point x="379" y="388" type="line"/>
      <point x="379" y="408"/>
      <point x="349" y="503"/>
      <point x="254" y="503" type="curve" smooth="yes"/>
      <point x="131" y="503"/>
      <point x="29" y="332"/>
      <point x="29" y="188" type="curve" smooth="yes"/>
      <point x="29" y="55"/>
      <point x="88" y="-12"/>
      <point x="177" y="-12" type="curve" smooth="yes"/>
      <point x="274" y="-12"/>
      <point x="362" y="131"/>
      <point x="388" y="217" type="curve"/>
    </contour>
    <contour>
      <point x="157" y="223" type="line"/>
      <point x="156" y="237"/>
      <point x="155" y="252"/>
      <point x="155" y="268" type="curve" smooth="yes"/>
      <point x="155" y="428"/>
      <point x="186" y="461"/>
      <point x="204" y="472" type="curve"/>
      <point x="217" y="481"/>
      <point x="267" y="433"/>
      <point x="272" y="332" type="curve"/>
    </contour>
  </outline>
</glyph>
<glyph name="iacute" format="1">
  <advance width="323"/>
  <unicode hex="00ED"/>
  <outline>
    <contour>
      <point x="150" y="681" type="line"/>
      <point x="132" y="552" type="line"/>
      <point x="147" y="552" type="line"/>
      <point x="270" y="681" type="line"/>
    </contour>
    <contour>
      <point x="212" y="86" type="line"/>
      <point x="212" y="500" type="line"/>
      <point x="29" y="433" type="line"/>
      <point x="97" y="356" type="line"/>
      <point x="97" y="0" type="line"/>
      <point x="286" y="0" type="line"/>
    </contour>
  </outline>
</glyph>
<glyph name="icircumflex" format="1">
  <advance width="323"/>
  <unicode hex="00EE"/>
  <outline>
    <contour>
      <point x="188" y="681" type="line"/>
      <point x="106" y="681" type="line"/>
      <point x="57" y="552" type="line"/>
      <point x="72" y="555" type="line"/>
      <point x="147" y="622" type="line"/>
      <point x="222" y="555" type="line"/>
      <point x="237" y="552" type="line"/>
    </contour>
    <contour>
      <point x="214" y="86" type="line"/>
      <point x="214" y="500" type="line"/>
      <point x="31" y="433" type="line"/>
      <point x="99" y="356" type="line"/>
      <point x="99" y="0" type="line"/>
      <point x="288" y="0" type="line"/>
    </contour>
  </outline>
</glyph>
<glyph name="idieresis" format="1">
  <advance width="323"/>
  <unicode hex="00EF"/>
  <outline>
    <contour>
      <point x="116" y="622" type="line"/>
      <point x="55" y="698" type="line"/>
      <point x="-7" y="622" type="line"/>
      <point x="55" y="545" type="line"/>
    </contour>
    <contour>
      <point x="301" y="622" type="line"/>
      <point x="240" y="698" type="line"/>
      <point x="178" y="622" type="line"/>
      <point x="240" y="545" type="line"/>
    </contour>
    <contour>
      <point x="213" y="86" type="line"/>
      <point x="213" y="500" type="line"/>
      <point x="30" y="433" type="line"/>
      <point x="98" y="356" type="line"/>
      <point x="98" y="0" type="line"/>
      <point x="287" y="0" type="line"/>
    </contour>
  </outline>
</glyph>
<glyph name="eth" format="1">
  <advance width="491"/>
  <unicode hex="00F0"/>
  <outline>
    <contour>
      <point x="363" y="681" type="line"/>
      <point x="342" y="709" type="line"/>
      <point x="245" y="645" type="line"/>
      <point x="208" y="669"/>
      <point x="167" y="692"/>
      <point x="123" y="711" type="curve"/>
      <point x="76" y="693" type="line"/>
      <point x="121" y="674"/>
      <point x="164" y="650"/>
      <point x="203" y="617" type="curve"/>
      <point x="112" y="557" type="line"/>
      <point x="132" y="529" type="line"/>
      <point x="230" y="593" type="line"/>
      <point x="256" y="567"/>
      <point x="280" y="537"/>
      <point x="302" y="501" type="curve"/>
      <point x="271" y="501" type="line" smooth="yes"/>
      <point x="130" y="502"/>
      <point x="29" y="360"/>
      <point x="29" y="199" type="curve" smooth="yes"/>
      <point x="29" y="64"/>
      <point x="111" y="-14"/>
      <point x="218" y="-14" type="curve" smooth="yes"/>
      <point x="354" y="-14"/>
      <point x="472" y="129"/>
      <point x="472" y="286" type="curve" smooth="yes"/>
      <point x="472" y="404"/>
      <point x="400" y="528"/>
      <point x="275" y="623" type="curve"/>
    </contour>
    <contour>
      <point x="251" y="19" type="curve" smooth="yes"/>
      <point x="221" y="19"/>
      <point x="155" y="100"/>
      <point x="155" y="266" type="curve" smooth="yes"/>
      <point x="155" y="443"/>
      <point x="202" y="470"/>
      <point x="232" y="470" type="curve" smooth="yes"/>
      <point x="275" y="470"/>
      <point x="317" y="450"/>
      <point x="328" y="441" type="curve"/>
      <point x="348" y="373"/>
      <point x="356" y="304"/>
      <point x="356" y="239" type="curve" smooth="yes"/>
      <point x="356" y="123"/>
      <point x="331" y="19"/>
    </contour>
  </outline>
</glyph>
<glyph name="ntilde" format="1">
  <advance width="543"/>
  <unicode hex="00F1"/>
  <outline>
    <contour>
      <point x="161" y="572" type="line"/>
      <point x="175" y="563" type="line"/>
      <point x="187" y="585"/>
      <point x="200" y="606"/>
      <point x="213" y="606" type="curve" smooth="yes"/>
      <point x="259" y="606"/>
      <point x="307" y="597"/>
      <point x="354" y="593" type="curve"/>
      <point x="410" y="696" type="line"/>
      <point x="396" y="702" type="line"/>
      <point x="381" y="683"/>
      <point x="368" y="668"/>
      <point x="354" y="668" type="curve" smooth="yes"/>
      <point x="310" y="668"/>
      <point x="265" y="677"/>
      <point x="221" y="681" type="curve"/>
    </contour>
    <contour>
      <point x="193" y="500" type="line"/>
      <point x="10" y="433" type="line"/>
      <point x="78" y="356" type="line"/>
      <point x="78" y="0" type="line"/>
      <point x="208" y="0" type="line"/>
      <point x="193" y="61" type="line"/>
      <point x="193" y="145"/>
      <point x="264" y="311"/>
      <point x="314" y="410" type="curve"/>
      <point x="322" y="409" type="line"/>
      <point x="333" y="370"/>
      <point x="342" y="300"/>
      <point x="342" y="144" type="curve" smooth="yes"/>
      <point x="342" y="0" type="line"/>
      <point x="531" y="0" type="line"/>
      <point x="457" y="86" type="line"/>
      <point x="457" y="202" type="line" smooth="yes"/>
      <point x="457" y="406"/>
      <point x="455" y="435"/>
      <point x="429" y="515" type="curve"/>
      <point x="331" y="490" type="line"/>
      <point x="310" y="461"/>
      <point x="232" y="316"/>
      <point x="193" y="168" type="curve"/>
    </contour>
  </outline>
</glyph>
<glyph name="oacute" format="1">
  <advance width="501"/>
  <unicode hex="00F3"/>
  <outline>
    <contour>
      <point x="249" y="681" type="line"/>
      <point x="231" y="552" type="line"/>
      <point x="246" y="552" type="line"/>
      <point x="369" y="681" type="line"/>
    </contour>
    <contour>
      <point x="29" y="199" type="curve" smooth="yes"/>
      <point x="29" y="64"/>
      <point x="111" y="-14"/>
      <point x="218" y="-14" type="curve" smooth="yes"/>
      <point x="354" y="-14"/>
      <point x="472" y="129"/>
      <point x="472" y="285" type="curve" smooth="yes"/>
      <point x="472" y="417"/>
      <point x="396" y="502"/>
      <point x="271" y="502" type="curve" smooth="yes"/>
      <point x="130" y="502"/>
      <point x="29" y="360"/>
    </contour>
    <contour>
      <point x="232" y="470" type="curve" smooth="yes"/>
      <point x="262" y="470"/>
      <point x="340" y="416"/>
      <point x="340" y="240" type="curve" smooth="yes"/>
      <point x="340" y="75"/>
      <point x="281" y="19"/>
      <point x="251" y="19" type="curve" smooth="yes"/>
      <point x="221" y="19"/>
      <point x="155" y="100"/>
      <point x="155" y="266" type="curve" smooth="yes"/>
      <point x="155" y="443"/>
      <point x="202" y="470"/>
    </contour>
  </outline>
</glyph>
<glyph name="ocircumflex" format="1">
  <advance width="501"/>
  <unicode hex="00F4"/>
  <outline>
    <contour>
      <point x="287" y="681" type="line"/>
      <point x="205" y="681" type="line"/>
      <point x="156" y="552" type="line"/>
      <point x="171" y="555" type="line"/>
      <point x="246" y="622" type="line"/>
      <point x="321" y="555" type="line"/>
      <point x="336" y="552" type="line"/>
    </contour>
    <contour>
      <point x="29" y="199" type="curve" smooth="yes"/>
      <point x="29" y="360"/>
      <point x="130" y="502"/>
      <point x="271" y="502" type="curve" smooth="yes"/>
      <point x="396" y="502"/>
      <point x="472" y="417"/>
      <point x="472" y="285" type="curve" smooth="yes"/>
      <point x="472" y="129"/>
      <point x="354" y="-14"/>
      <point x="218" y="-14" type="curve" smooth="yes"/>
      <point x="111" y="-14"/>
      <point x="29" y="64"/>
    </contour>
    <contour>
      <point x="232" y="470" type="curve" smooth="yes"/>
      <point x="202" y="470"/>
      <point x="155" y="443"/>
      <point x="155" y="266" type="curve" smooth="yes"/>
      <point x="155" y="100"/>
      <point x="221" y="19"/>
      <point x="251" y="19" type="curve" smooth="yes"/>
      <point x="281" y="19"/>
      <point x="340" y="75"/>
      <point x="340" y="240" type="curve" smooth="yes"/>
      <point x="340" y="416"/>
      <point x="262" y="470"/>
    </contour>
  </outline>
</glyph>
<glyph name="otilde" format="1">
  <advance width="501"/>
  <unicode hex="00F5"/>
  <outline>
    <contour>
      <point x="132" y="572" type="line"/>
      <point x="146" y="563" type="line"/>
      <point x="158" y="585"/>
      <point x="171" y="606"/>
      <point x="184" y="606" type="curve" smooth="yes"/>
      <point x="230" y="606"/>
      <point x="278" y="597"/>
      <point x="325" y="593" type="curve"/>
      <point x="381" y="696" type="line"/>
      <point x="367" y="702" type="line"/>
      <point x="352" y="683"/>
      <point x="339" y="668"/>
      <point x="325" y="668" type="curve" smooth="yes"/>
      <point x="281" y="668"/>
      <point x="236" y="677"/>
      <point x="192" y="681" type="curve"/>
    </contour>
    <contour>
      <point x="29" y="199" type="curve" smooth="yes"/>
      <point x="29" y="360"/>
      <point x="130" y="502"/>
      <point x="271" y="502" type="curve" smooth="yes"/>
      <point x="396" y="502"/>
      <point x="472" y="417"/>
      <point x="472" y="285" type="curve" smooth="yes"/>
      <point x="472" y="129"/>
      <point x="354" y="-14"/>
      <point x="218" y="-14" type="curve" smooth="yes"/>
      <point x="111" y="-14"/>
      <point x="29" y="64"/>
    </contour>
    <contour>
      <point x="232" y="470" type="curve" smooth="yes"/>
      <point x="202" y="470"/>
      <point x="155" y="443"/>
      <point x="155" y="266" type="curve" smooth="yes"/>
      <point x="155" y="100"/>
      <point x="221" y="19"/>
      <point x="251" y="19" type="curve" smooth="yes"/>
      <point x="281" y="19"/>
      <point x="340" y="75"/>
      <point x="340" y="240" type="curve" smooth="yes"/>
      <point x="340" y="416"/>
      <point x="262" y="470"/>
    </contour>
  </outline>
</glyph>
<glyph name="odieresis" format="1">
  <advance width="501"/>
  <unicode hex="00F6"/>
  <outline>
    <contour>
      <point x="215" y="622" type="line"/>
      <point x="154" y="698" type="line"/>
      <point x="92" y="622" type="line"/>
      <point x="154" y="545" type="line"/>
    </contour>
    <contour>
      <point x="400" y="622" type="line"/>
      <point x="339" y="698" type="line"/>
      <point x="277" y="622" type="line"/>
      <point x="339" y="545" type="line"/>
    </contour>
    <contour>
      <point x="29" y="199" type="curve" smooth="yes"/>
      <point x="29" y="360"/>
      <point x="130" y="502"/>
      <point x="271" y="502" type="curve" smooth="yes"/>
      <point x="396" y="502"/>
      <point x="472" y="417"/>
      <point x="472" y="285" type="curve" smooth="yes"/>
      <point x="472" y="129"/>
      <point x="354" y="-14"/>
      <point x="218" y="-14" type="curve" smooth="yes"/>
      <point x="111" y="-14"/>
      <point x="29" y="64"/>
    </contour>
    <contour>
      <point x="232" y="470" type="curve" smooth="yes"/>
      <point x="202" y="470"/>
      <point x="155" y="443"/>
      <point x="155" y="266" type="curve" smooth="yes"/>
      <point x="155" y="100"/>
      <point x="221" y="19"/>
      <point x="251" y="19" type="curve" smooth="yes"/>
      <point x="281" y="19"/>
      <point x="340" y="75"/>
      <point x="340" y="240" type="curve" smooth="yes"/>
      <point x="340" y="416"/>
      <point x="262" y="470"/>
    </contour>
  </outline>
</glyph>
<glyph name="oslash" format="1">
  <advance width="501"/>
  <unicode hex="00F8"/>
  <outline>
    <contour>
      <point x="473" y="507" type="line"/>
      <point x="434" y="507" type="line"/>
      <point x="399" y="461" type="line"/>
      <point x="366" y="488"/>
      <point x="322" y="502"/>
      <point x="271" y="502" type="curve" smooth="yes"/>
      <point x="130" y="502"/>
      <point x="29" y="360"/>
      <point x="29" y="199" type="curve" smooth="yes"/>
      <point x="29" y="135"/>
      <point x="47" y="85"/>
      <point x="78" y="48" type="curve"/>
      <point x="29" y="-14" type="line"/>
      <point x="68" y="-14" type="line"/>
      <point x="100" y="27" type="line"/>
      <point x="132" y="0"/>
      <point x="173" y="-14"/>
      <point x="218" y="-14" type="curve" smooth="yes"/>
      <point x="354" y="-14"/>
      <point x="472" y="129"/>
      <point x="472" y="285" type="curve" smooth="yes"/>
      <point x="472" y="349"/>
      <point x="454" y="402"/>
      <point x="421" y="440" type="curve"/>
    </contour>
    <contour>
      <point x="165" y="161" type="line"/>
      <point x="159" y="191"/>
      <point x="155" y="226"/>
      <point x="155" y="266" type="curve" smooth="yes"/>
      <point x="155" y="443"/>
      <point x="202" y="470"/>
      <point x="232" y="470" type="curve" smooth="yes"/>
      <point x="253" y="470"/>
      <point x="299" y="443"/>
      <point x="323" y="365" type="curve"/>
    </contour>
    <contour>
      <point x="333" y="326" type="line"/>
      <point x="337" y="302"/>
      <point x="340" y="273"/>
      <point x="340" y="240" type="curve" smooth="yes"/>
      <point x="340" y="75"/>
      <point x="281" y="19"/>
      <point x="251" y="19" type="curve" smooth="yes"/>
      <point x="231" y="19"/>
      <point x="197" y="53"/>
      <point x="175" y="123" type="curve"/>
    </contour>
  </outline>
</glyph>
<glyph name="ugrave" format="1">
  <advance width="522"/>
  <unicode hex="00F9"/>
  <outline>
    <contour>
      <point x="256" y="699" type="line"/>
      <point x="136" y="699" type="line"/>
      <point x="259" y="570" type="line"/>
      <point x="274" y="570" type="line"/>
    </contour>
    <contour>
      <point x="326" y="0" type="line"/>
      <point x="509" y="0" type="line"/>
      <point x="441" y="77" type="line"/>
      <point x="441" y="490" type="line"/>
      <point x="311" y="490" type="line"/>
      <point x="326" y="429" type="line"/>
      <point x="326" y="343"/>
      <point x="251" y="170"/>
      <point x="201" y="73" type="curve"/>
      <point x="197" y="113"/>
      <point x="194" y="177"/>
      <point x="194" y="346" type="curve" smooth="yes"/>
      <point x="194" y="510" type="line"/>
      <point x="5" y="490" type="line"/>
      <point x="79" y="404" type="line"/>
      <point x="79" y="163" type="line" smooth="yes"/>
      <point x="79" y="90"/>
      <point x="92" y="24"/>
      <point x="98" y="-8" type="curve"/>
      <point x="188" y="0" type="line"/>
      <point x="209" y="29"/>
      <point x="287" y="174"/>
      <point x="326" y="322" type="curve"/>
    </contour>
  </outline>
</glyph>
<glyph name="ucircumflex" format="1">
  <advance width="522"/>
  <unicode hex="00FB"/>
  <outline>
    <contour>
      <point x="294" y="699" type="line"/>
      <point x="212" y="699" type="line"/>
      <point x="163" y="570" type="line"/>
      <point x="178" y="573" type="line"/>
      <point x="253" y="640" type="line"/>
      <point x="328" y="573" type="line"/>
      <point x="343" y="570" type="line"/>
    </contour>
    <contour>
      <point x="326" y="0" type="line"/>
      <point x="509" y="0" type="line"/>
      <point x="441" y="77" type="line"/>
      <point x="441" y="490" type="line"/>
      <point x="311" y="490" type="line"/>
      <point x="326" y="429" type="line"/>
      <point x="326" y="343"/>
      <point x="251" y="170"/>
      <point x="201" y="73" type="curve"/>
      <point x="197" y="113"/>
      <point x="194" y="177"/>
      <point x="194" y="346" type="curve" smooth="yes"/>
      <point x="194" y="510" type="line"/>
      <point x="5" y="490" type="line"/>
      <point x="79" y="404" type="line"/>
      <point x="79" y="163" type="line" smooth="yes"/>
      <point x="79" y="90"/>
      <point x="92" y="24"/>
      <point x="98" y="-8" type="curve"/>
      <point x="188" y="0" type="line"/>
      <point x="209" y="29"/>
      <point x="287" y="174"/>
      <point x="326" y="322" type="curve"/>
    </contour>
  </outline>
</glyph>
<glyph name="udieresis" format="1">
  <advance width="522"/>
  <unicode hex="00FC"/>
  <outline>
    <contour>
      <point x="222" y="640" type="line"/>
      <point x="161" y="716" type="line"/>
      <point x="99" y="640" type="line"/>
      <point x="161" y="563" type="line"/>
    </contour>
    <contour>
      <point x="407" y="640" type="line"/>
      <point x="346" y="716" type="line"/>
      <point x="284" y="640" type="line"/>
      <point x="346" y="563" type="line"/>
    </contour>
    <contour>
      <point x="326" y="0" type="line"/>
      <point x="509" y="0" type="line"/>
      <point x="441" y="77" type="line"/>
      <point x="441" y="490" type="line"/>
      <point x="311" y="490" type="line"/>
      <point x="326" y="429" type="line"/>
      <point x="326" y="343"/>
      <point x="251" y="170"/>
      <point x="201" y="73" type="curve"/>
      <point x="197" y="113"/>
      <point x="194" y="177"/>
      <point x="194" y="346" type="curve" smooth="yes"/>
      <point x="194" y="510" type="line"/>
      <point x="5" y="490" type="line"/>
      <point x="79" y="404" type="line"/>
      <point x="79" y="163" type="line" smooth="yes"/>
      <point x="79" y="90"/>
      <point x="92" y="24"/>
      <point x="98" y="-8" type="curve"/>
      <point x="188" y="0" type="line"/>
      <point x="209" y="29"/>
      <point x="287" y="174"/>
      <point x="326" y="322" type="curve"/>
    </contour>
  </outline>
</glyph>
<glyph name="Ccaron" format="1">
  <advance width="651"/>
  <unicode hex="010C"/>
  <outline>
    <contour>
      <point x="458" y="869" type="line"/>
      <point x="444" y="869" type="line"/>
      <point x="359" y="799" type="line"/>
      <point x="275" y="869" type="line"/>
      <point x="260" y="869" type="line"/>
      <point x="319" y="740" type="line"/>
      <point x="398" y="740" type="line"/>
    </contour>
    <contour>
      <point x="554" y="482" type="line"/>
      <point x="554" y="685" type="line"/>
      <point x="405" y="685" type="line" smooth="yes"/>
      <point x="176" y="685"/>
      <point x="49" y="497"/>
      <point x="49" y="319" type="curve" smooth="yes"/>
      <point x="49" y="123"/>
      <point x="156" y="-12"/>
      <point x="327" y="-12" type="curve" smooth="yes"/>
      <point x="473" y="-12"/>
      <point x="560" y="107"/>
      <point x="602" y="211" type="curve"/>
      <point x="588" y="221" type="line"/>
      <point x="557" y="170"/>
      <point x="500" y="105"/>
      <point x="385" y="105" type="curve" smooth="yes"/>
      <point x="252" y="105"/>
      <point x="187" y="237"/>
      <point x="187" y="406" type="curve" smooth="yes"/>
      <point x="187" y="538"/>
      <point x="235" y="644"/>
      <point x="346" y="644" type="curve" smooth="yes"/>
      <point x="445" y="644"/>
      <point x="510" y="566"/>
      <point x="548" y="482" type="curve"/>
    </contour>
  </outline>
</glyph>
<glyph name="dcaron" format="1">
  <advance width="691"/>
  <unicode hex="010F"/>
  <outline>
    <contour>
      <point x="514" y="429" type="line"/>
      <point x="535" y="443"/>
      <point x="654" y="516"/>
      <point x="654" y="614" type="curve" smooth="yes"/>
      <point x="654" y="648"/>
      <point x="608" y="691"/>
      <point x="577" y="711" type="curve"/>
      <point x="498" y="626" type="line"/>
      <point x="535" y="595" type="line"/>
      <point x="547" y="581"/>
      <point x="563" y="569"/>
      <point x="563" y="543" type="curve" smooth="yes"/>
      <point x="563" y="505"/>
      <point x="533" y="467"/>
      <point x="501" y="439" type="curve"/>
    </contour>
    <contour>
      <point x="508" y="0" type="line"/>
      <point x="434" y="70" type="line"/>
      <point x="434" y="710" type="line"/>
      <point x="251" y="653" type="line"/>
      <point x="319" y="576" type="line"/>
      <point x="319" y="488" type="line"/>
      <point x="132" y="468"/>
      <point x="29" y="333"/>
      <point x="29" y="163" type="curve" smooth="yes"/>
      <point x="29" y="82"/>
      <point x="62" y="10"/>
      <point x="92" y="-11" type="curve"/>
      <point x="166" y="0" type="line"/>
      <point x="225" y="95"/>
      <point x="294" y="230"/>
      <point x="329" y="373" type="curve"/>
      <point x="317" y="257" type="line"/>
      <point x="317" y="-9" type="line"/>
    </contour>
    <contour>
      <point x="182" y="77" type="curve" smooth="yes"/>
      <point x="170" y="77"/>
      <point x="153" y="119"/>
      <point x="153" y="217" type="curve" smooth="yes"/>
      <point x="153" y="318"/>
      <point x="185" y="460"/>
      <point x="319" y="461" type="curve"/>
      <point x="318" y="355"/>
      <point x="201" y="77"/>
    </contour>
  </outline>
</glyph>
<glyph name="Ecaron" format="1">
  <advance width="592"/>
  <unicode hex="011A"/>
  <outline>
    <contour>
      <point x="406" y="869" type="line"/>
      <point x="392" y="869" type="line"/>
      <point x="307" y="799" type="line"/>
      <point x="223" y="869" type="line"/>
      <point x="208" y="869" type="line"/>
      <point x="267" y="740" type="line"/>
      <point x="346" y="740" type="line"/>
    </contour>
    <contour>
      <point x="389" y="649" type="line"/>
      <point x="506" y="475" type="line"/>
      <point x="511" y="475" type="line"/>
      <point x="511" y="685" type="line"/>
      <point x="52" y="685" type="line"/>
      <point x="109" y="581" type="line"/>
      <point x="109" y="106" type="line"/>
      <point x="52" y="0" type="line"/>
      <point x="529" y="0" type="line"/>
      <point x="540" y="217" type="line"/>
      <point x="535" y="219" type="line"/>
      <point x="398" y="36" type="line"/>
      <point x="233" y="36" type="line"/>
      <point x="233" y="332" type="line"/>
      <point x="493" y="332" type="line"/>
      <point x="493" y="372" type="line"/>
      <point x="233" y="372" type="line"/>
      <point x="233" y="649" type="line"/>
    </contour>
  </outline>
</glyph>
<glyph name="IJ" format="1">
  <advance width="691"/>
  <unicode hex="0132"/>
  <outline>
    <contour>
      <point x="125" y="106" type="line"/>
      <point x="55" y="0" type="line"/>
      <point x="319" y="0" type="line"/>
      <point x="249" y="106" type="line"/>
      <point x="249" y="579" type="line"/>
      <point x="319" y="685" type="line"/>
      <point x="55" y="685" type="line"/>
      <point x="125" y="579" type="line"/>
    </contour>
    <contour>
      <point x="566" y="579" type="line"/>
      <point x="636" y="685" type="line"/>
      <point x="372" y="685" type="line"/>
      <point x="442" y="579" type="line"/>
      <point x="442" y="-73" type="line" smooth="yes"/>
      <point x="442" y="-106"/>
      <point x="433" y="-147"/>
      <point x="421" y="-172" type="curve"/>
      <point x="428" y="-176" type="line"/>
      <point x="481" y="-142"/>
      <point x="566" y="-73"/>
      <point x="566" y="4" type="curve" smooth="yes"/>
    </contour>
  </outline>
</glyph>
<glyph name="ij" format="1">
  <advance width="557"/>
  <unicode hex="0133"/>
  <outline>
    <contour>
      <point x="215" y="639" type="line"/>
      <point x="132" y="731" type="line"/>
      <point x="48" y="639" type="line"/>
      <point x="132" y="546" type="line"/>
    </contour>
    <contour>
      <point x="510" y="639" type="line"/>
      <point x="429" y="731" type="line"/>
      <point x="347" y="639" type="line"/>
      <point x="429" y="546" type="line"/>
    </contour>
    <contour>
      <point x="195" y="86" type="line"/>
      <point x="195" y="500" type="line"/>
      <point x="12" y="433" type="line"/>
      <point x="80" y="356" type="line"/>
      <point x="80" y="0" type="line"/>
      <point x="269" y="0" type="line"/>
    </contour>
    <contour>
      <point x="489" y="500" type="line"/>
      <point x="310" y="433" type="line"/>
      <point x="375" y="356" type="line"/>
      <point x="375" y="-63" type="line" smooth="yes"/>
      <point x="375" y="-133"/>
      <point x="369" y="-201"/>
      <point x="353" y="-222" type="curve"/>
      <point x="359" y="-225" type="line"/>
      <point x="418" y="-173"/>
      <point x="489" y="-89"/>
      <point x="489" y="6" type="curve" smooth="yes"/>
    </contour>
  </outline>
</glyph>
<glyph name="Lacute" format="1">
  <advance width="610"/>
  <unicode hex="0139"/>
  <outline>
    <contour>
      <point x="168" y="869" type="line"/>
      <point x="156" y="740" type="line"/>
      <point x="170" y="740" type="line"/>
      <point x="293" y="869" type="line"/>
    </contour>
    <contour>
      <point x="110" y="581" type="line"/>
      <point x="110" y="106" type="line"/>
      <point x="53" y="0" type="line"/>
      <point x="557" y="0" type="line"/>
      <point x="567" y="217" type="line"/>
      <point x="563" y="217" type="line"/>
      <point x="425" y="36" type="line"/>
      <point x="234" y="36" type="line"/>
      <point x="234" y="580" type="line"/>
      <point x="306" y="685" type="line"/>
      <point x="53" y="685" type="line"/>
    </contour>
  </outline>
</glyph>
<glyph name="Lcaron" format="1">
  <advance width="614"/>
  <unicode hex="013D"/>
  <outline>
    <contour>
      <point x="408" y="429" type="line"/>
      <point x="429" y="443"/>
      <point x="548" y="516"/>
      <point x="548" y="614" type="curve" smooth="yes"/>
      <point x="548" y="648"/>
      <point x="502" y="691"/>
      <point x="471" y="711" type="curve"/>
      <point x="392" y="626" type="line"/>
      <point x="429" y="595" type="line"/>
      <point x="441" y="581"/>
      <point x="457" y="569"/>
      <point x="457" y="543" type="curve" smooth="yes"/>
      <point x="457" y="505"/>
      <point x="427" y="467"/>
      <point x="395" y="439" type="curve"/>
    </contour>
    <contour>
      <point x="110" y="581" type="line"/>
      <point x="110" y="106" type="line"/>
      <point x="53" y="0" type="line"/>
      <point x="557" y="0" type="line"/>
      <point x="567" y="217" type="line"/>
      <point x="563" y="217" type="line"/>
      <point x="425" y="36" type="line"/>
      <point x="234" y="36" type="line"/>
      <point x="234" y="580" type="line"/>
      <point x="306" y="685" type="line"/>
      <point x="53" y="685" type="line"/>
    </contour>
  </outline>
</glyph>
<glyph name="Ldot" format="1">
  <advance width="614"/>
  <unicode hex="013F"/>
  <outline>
    <contour>
      <point x="110" y="581" type="line"/>
      <point x="110" y="106" type="line"/>
      <point x="53" y="0" type="line"/>
      <point x="557" y="0" type="line"/>
      <point x="567" y="217" type="line"/>
      <point x="563" y="217" type="line"/>
      <point x="425" y="36" type="line"/>
      <point x="234" y="36" type="line"/>
      <point x="234" y="580" type="line"/>
      <point x="306" y="685" type="line"/>
      <point x="53" y="685" type="line"/>
    </contour>
    <contour>
      <point x="531" y="379" type="line"/>
      <point x="450" y="472" type="line"/>
      <point x="368" y="379" type="line"/>
      <point x="450" y="287" type="line"/>
    </contour>
  </outline>
</glyph>
<glyph name="ldot" format="1">
  <advance width="441"/>
  <unicode hex="0140"/>
  <outline>
    <contour>
      <point x="80" y="576" type="line"/>
      <point x="80" y="546" type="line"/>
      <point x="12" y="517" type="line"/>
      <point x="80" y="440" type="line"/>
      <point x="80" y="0" type="line"/>
      <point x="269" y="0" type="line"/>
      <point x="195" y="86" type="line"/>
      <point x="195" y="710" type="line"/>
      <point x="12" y="653" type="line"/>
    </contour>
    <contour>
      <point x="429" y="263" type="line"/>
      <point x="348" y="356" type="line"/>
      <point x="266" y="263" type="line"/>
      <point x="348" y="171" type="line"/>
    </contour>
  </outline>
</glyph>
<glyph name="Lslash" format="1">
  <advance width="624"/>
  <unicode hex="0141"/>
  <outline>
    <contour>
      <point x="118" y="106" type="line"/>
      <point x="61" y="0" type="line"/>
      <point x="565" y="0" type="line"/>
      <point x="575" y="217" type="line"/>
      <point x="571" y="217" type="line"/>
      <point x="433" y="36" type="line"/>
      <point x="242" y="36" type="line"/>
      <point x="242" y="326" type="line"/>
      <point x="367" y="364" type="line"/>
      <point x="367" y="428" type="line"/>
      <point x="242" y="389" type="line"/>
      <point x="242" y="580" type="line"/>
      <point x="314" y="685" type="line"/>
      <point x="61" y="685" type="line"/>
      <point x="118" y="581" type="line"/>
      <point x="118" y="351" type="line"/>
      <point x="24" y="322" type="line"/>
      <point x="24" y="260" type="line"/>
      <point x="118" y="289" type="line"/>
    </contour>
  </outline>
</glyph>
<glyph name="Nacute" format="1">
  <advance width="756"/>
  <unicode hex="0143"/>
  <outline>
    <contour>
      <point x="359" y="869" type="line"/>
      <point x="347" y="740" type="line"/>
      <point x="361" y="740" type="line"/>
      <point x="484" y="869" type="line"/>
    </contour>
    <contour>
      <point x="256" y="0" type="line"/>
      <point x="174" y="86" type="line"/>
      <point x="174" y="487" type="line"/>
      <point x="527" y="0" type="line"/>
      <point x="675" y="0" type="line"/>
      <point x="634" y="58" type="line"/>
      <point x="634" y="592" type="line"/>
      <point x="704" y="685" type="line"/>
      <point x="500" y="685" type="line"/>
      <point x="582" y="599" type="line"/>
      <point x="582" y="130" type="line"/>
      <point x="187" y="685" type="line"/>
      <point x="30" y="685" type="line"/>
      <point x="122" y="558" type="line"/>
      <point x="122" y="93" type="line"/>
      <point x="52" y="0" type="line"/>
    </contour>
  </outline>
</glyph>
<glyph name="Ncaron" format="1">
  <advance width="756"/>
  <unicode hex="0147"/>
  <outline>
    <contour>
      <point x="478" y="869" type="line"/>
      <point x="464" y="869" type="line"/>
      <point x="379" y="799" type="line"/>
      <point x="295" y="869" type="line"/>
      <point x="280" y="869" type="line"/>
      <point x="339" y="740" type="line"/>
      <point x="418" y="740" type="line"/>
    </contour>
    <contour>
      <point x="256" y="0" type="line"/>
      <point x="174" y="86" type="line"/>
      <point x="174" y="487" type="line"/>
      <point x="527" y="0" type="line"/>
      <point x="675" y="0" type="line"/>
      <point x="634" y="58" type="line"/>
      <point x="634" y="592" type="line"/>
      <point x="704" y="685" type="line"/>
      <point x="500" y="685" type="line"/>
      <point x="582" y="599" type="line"/>
      <point x="582" y="130" type="line"/>
      <point x="187" y="685" type="line"/>
      <point x="30" y="685" type="line"/>
      <point x="122" y="558" type="line"/>
      <point x="122" y="93" type="line"/>
      <point x="52" y="0" type="line"/>
    </contour>
  </outline>
</glyph>
<glyph name="OE" format="1">
  <advance width="994"/>
  <unicode hex="0152"/>
  <outline>
    <contour>
      <point x="625" y="332" type="line"/>
      <point x="885" y="332" type="line"/>
      <point x="885" y="372" type="line"/>
      <point x="625" y="372" type="line"/>
      <point x="625" y="649" type="line"/>
      <point x="782" y="649" type="line"/>
      <point x="898" y="475" type="line"/>
      <point x="904" y="475" type="line"/>
      <point x="904" y="685" type="line"/>
      <point x="411" y="685" type="line" smooth="yes"/>
      <point x="179" y="685"/>
      <point x="57" y="514"/>
      <point x="57" y="313" type="curve" smooth="yes"/>
      <point x="57" y="150"/>
      <point x="164" y="0"/>
      <point x="339" y="0" type="curve" smooth="yes"/>
      <point x="922" y="0" type="line"/>
      <point x="932" y="217" type="line"/>
      <point x="927" y="219" type="line"/>
      <point x="790" y="36" type="line"/>
      <point x="625" y="36" type="line"/>
    </contour>
    <contour>
      <point x="501" y="648" type="line"/>
      <point x="501" y="36" type="line"/>
      <point x="406" y="36" type="line" smooth="yes"/>
      <point x="271" y="36"/>
      <point x="192" y="200"/>
      <point x="192" y="396" type="curve" smooth="yes"/>
      <point x="192" y="471"/>
      <point x="222" y="648"/>
      <point x="384" y="648" type="curve" smooth="yes"/>
    </contour>
  </outline>
</glyph>
<glyph name="oe" format="1">
  <advance width="735"/>
  <unicode hex="0153"/>
  <outline>
    <contour>
      <point x="687" y="227" type="line"/>
      <point x="687" y="227"/>
      <point x="618" y="59"/>
      <point x="546" y="59" type="curve" smooth="yes"/>
      <point x="510" y="59"/>
      <point x="483" y="116"/>
      <point x="474" y="199" type="curve"/>
      <point x="694" y="388" type="line"/>
      <point x="694" y="410"/>
      <point x="656" y="527"/>
      <point x="532" y="499" type="curve" smooth="yes"/>
      <point x="506" y="493"/>
      <point x="468" y="468"/>
      <point x="432" y="426" type="curve"/>
      <point x="397" y="474"/>
      <point x="342" y="502"/>
      <point x="271" y="502" type="curve" smooth="yes"/>
      <point x="130" y="502"/>
      <point x="29" y="360"/>
      <point x="29" y="199" type="curve" smooth="yes"/>
      <point x="29" y="64"/>
      <point x="111" y="-14"/>
      <point x="218" y="-14" type="curve" smooth="yes"/>
      <point x="276" y="-14"/>
      <point x="330" y="12"/>
      <point x="374" y="54" type="curve"/>
      <point x="400" y="10"/>
      <point x="441" y="-12"/>
      <point x="492" y="-12" type="curve" smooth="yes"/>
      <point x="589" y="-12"/>
      <point x="677" y="131"/>
      <point x="703" y="217" type="curve"/>
    </contour>
    <contour>
      <point x="472" y="223" type="line"/>
      <point x="470" y="252" type="line"/>
      <point x="471" y="263"/>
      <point x="472" y="274"/>
      <point x="472" y="285" type="curve" smooth="yes"/>
      <point x="472" y="294"/>
      <point x="472" y="303"/>
      <point x="471" y="312" type="curve"/>
      <point x="476" y="434"/>
      <point x="503" y="462"/>
      <point x="519" y="472" type="curve" smooth="yes"/>
      <point x="532" y="481"/>
      <point x="582" y="433"/>
      <point x="587" y="332" type="curve"/>
    </contour>
    <contour>
      <point x="251" y="19" type="curve" smooth="yes"/>
      <point x="221" y="19"/>
      <point x="155" y="100"/>
      <point x="155" y="266" type="curve" smooth="yes"/>
      <point x="155" y="443"/>
      <point x="202" y="470"/>
      <point x="232" y="470" type="curve" smooth="yes"/>
      <point x="262" y="470"/>
      <point x="340" y="416"/>
      <point x="340" y="240" type="curve" smooth="yes"/>
      <point x="340" y="75"/>
      <point x="281" y="19"/>
    </contour>
  </outline>
</glyph>
<glyph name="racute" format="1">
  <advance width="409"/>
  <unicode hex="0155"/>
  <outline>
    <contour>
      <point x="208" y="681" type="line"/>
      <point x="190" y="552" type="line"/>
      <point x="205" y="552" type="line"/>
      <point x="328" y="681" type="line"/>
    </contour>
    <contour>
      <point x="418" y="335" type="line"/>
      <point x="421" y="339" type="line"/>
      <point x="337" y="504" type="line"/>
      <point x="324" y="504" type="line"/>
      <point x="265" y="420"/>
      <point x="216" y="294"/>
      <point x="187" y="182" type="curve"/>
      <point x="187" y="500" type="line"/>
      <point x="4" y="433" type="line"/>
      <point x="72" y="356" type="line"/>
      <point x="72" y="0" type="line"/>
      <point x="195" y="0" type="line"/>
      <point x="187" y="61" type="line"/>
      <point x="187" y="162"/>
      <point x="272" y="365"/>
      <point x="286" y="371" type="curve"/>
    </contour>
  </outline>
</glyph>
<glyph name="Rcaron" format="1">
  <advance width="696"/>
  <unicode hex="0158"/>
  <outline>
    <contour>
      <point x="412" y="869" type="line"/>
      <point x="397" y="869" type="line"/>
      <point x="313" y="799" type="line"/>
      <point x="228" y="869" type="line"/>
      <point x="213" y="869" type="line"/>
      <point x="273" y="740" type="line"/>
      <point x="352" y="740" type="line"/>
    </contour>
    <contour>
      <point x="671" y="0" type="line"/>
      <point x="570" y="98" type="line"/>
      <point x="422" y="339" type="line"/>
      <point x="499" y="369"/>
      <point x="570" y="426"/>
      <point x="570" y="508" type="curve" smooth="yes"/>
      <point x="570" y="674"/>
      <point x="352" y="685"/>
      <point x="284" y="685" type="curve" smooth="yes"/>
      <point x="55" y="685" type="line"/>
      <point x="126" y="579" type="line"/>
      <point x="126" y="106" type="line"/>
      <point x="55" y="0" type="line"/>
      <point x="320" y="0" type="line"/>
      <point x="250" y="106" type="line"/>
      <point x="250" y="308" type="line"/>
      <point x="295" y="312" type="line"/>
      <point x="350" y="233"/>
      <point x="413" y="116"/>
      <point x="478" y="0" type="curve"/>
    </contour>
    <contour>
      <point x="250" y="655" type="line"/>
      <point x="352" y="655"/>
      <point x="430" y="616"/>
      <point x="430" y="496" type="curve" smooth="yes"/>
      <point x="430" y="394"/>
      <point x="341" y="343"/>
      <point x="250" y="341" type="curve"/>
    </contour>
  </outline>
</glyph>
<glyph name="rcaron" format="1">
  <advance width="409"/>
  <unicode hex="0159"/>
  <outline>
    <contour>
      <point x="295" y="681" type="line"/>
      <point x="280" y="678" type="line"/>
      <point x="205" y="611" type="line"/>
      <point x="130" y="678" type="line"/>
      <point x="115" y="681" type="line"/>
      <point x="164" y="552" type="line"/>
      <point x="246" y="552" type="line"/>
    </contour>
    <contour>
      <point x="418" y="335" type="line"/>
      <point x="421" y="339" type="line"/>
      <point x="337" y="504" type="line"/>
      <point x="324" y="504" type="line"/>
      <point x="265" y="420"/>
      <point x="216" y="294"/>
      <point x="187" y="182" type="curve"/>
      <point x="187" y="500" type="line"/>
      <point x="4" y="433" type="line"/>
      <point x="72" y="356" type="line"/>
      <point x="72" y="0" type="line"/>
      <point x="195" y="0" type="line"/>
      <point x="187" y="61" type="line"/>
      <point x="187" y="162"/>
      <point x="272" y="365"/>
      <point x="286" y="371" type="curve"/>
    </contour>
  </outline>
</glyph>
<glyph name="Sacute" format="1">
  <advance width="524"/>
  <unicode hex="015A"/>
  <outline>
    <contour>
      <point x="251" y="869" type="line"/>
      <point x="239" y="740" type="line"/>
      <point x="253" y="740" type="line"/>
      <point x="376" y="869" type="line"/>
    </contour>
    <contour>
      <point x="34" y="268" type="line"/>
      <point x="46" y="28" type="line"/>
      <point x="92" y="6"/>
      <point x="173" y="-8"/>
      <point x="235" y="-8" type="curve" smooth="yes"/>
      <point x="376" y="-8"/>
      <point x="478" y="55"/>
      <point x="478" y="215" type="curve" smooth="yes"/>
      <point x="478" y="438"/>
      <point x="130" y="399"/>
      <point x="130" y="562" type="curve" smooth="yes"/>
      <point x="130" y="620"/>
      <point x="168" y="653"/>
      <point x="221" y="653" type="curve" smooth="yes"/>
      <point x="307" y="653"/>
      <point x="383" y="591"/>
      <point x="418" y="485" type="curve"/>
      <point x="426" y="484" type="line"/>
      <point x="426" y="700" type="line"/>
      <point x="380" y="685" type="line"/>
      <point x="244" y="685" type="line" smooth="yes"/>
      <point x="103" y="685"/>
      <point x="37" y="595"/>
      <point x="37" y="492" type="curve" smooth="yes"/>
      <point x="37" y="248"/>
      <point x="373" y="303"/>
      <point x="373" y="120" type="curve" smooth="yes"/>
      <point x="373" y="58"/>
      <point x="317" y="30"/>
      <point x="266" y="30" type="curve" smooth="yes"/>
      <point x="165" y="30"/>
      <point x="77" y="138"/>
      <point x="45" y="268" type="curve"/>
    </contour>
  </outline>
</glyph>
<glyph name="Scaron" format="1">
  <advance width="541"/>
  <unicode hex="0160"/>
  <outline>
    <contour>
      <point x="378" y="869" type="line"/>
      <point x="363" y="869" type="line"/>
      <point x="278" y="799" type="line"/>
      <point x="194" y="869" type="line"/>
      <point x="179" y="869" type="line"/>
      <point x="238" y="740" type="line"/>
      <point x="318" y="740" type="line"/>
    </contour>
    <contour>
      <point x="46" y="268" type="line"/>
      <point x="58" y="28" type="line"/>
      <point x="104" y="6"/>
      <point x="185" y="-8"/>
      <point x="247" y="-8" type="curve" smooth="yes"/>
      <point x="388" y="-8"/>
      <point x="490" y="55"/>
      <point x="490" y="215" type="curve" smooth="yes"/>
      <point x="490" y="438"/>
      <point x="142" y="399"/>
      <point x="142" y="562" type="curve" smooth="yes"/>
      <point x="142" y="620"/>
      <point x="180" y="653"/>
      <point x="233" y="653" type="curve" smooth="yes"/>
      <point x="319" y="653"/>
      <point x="395" y="591"/>
      <point x="430" y="485" type="curve"/>
      <point x="438" y="484" type="line"/>
      <point x="438" y="700" type="line"/>
      <point x="392" y="685" type="line"/>
      <point x="256" y="685" type="line" smooth="yes"/>
      <point x="115" y="685"/>
      <point x="49" y="595"/>
      <point x="49" y="492" type="curve" smooth="yes"/>
      <point x="49" y="248"/>
      <point x="385" y="303"/>
      <point x="385" y="120" type="curve" smooth="yes"/>
      <point x="385" y="58"/>
      <point x="329" y="30"/>
      <point x="278" y="30" type="curve" smooth="yes"/>
      <point x="177" y="30"/>
      <point x="89" y="138"/>
      <point x="57" y="268" type="curve"/>
    </contour>
  </outline>
</glyph>
<glyph name="Tcaron" format="1">
  <advance width="660"/>
  <unicode hex="0164"/>
  <outline>
    <contour>
      <point x="413" y="869" type="line"/>
      <point x="399" y="869" type="line"/>
      <point x="314" y="799" type="line"/>
      <point x="230" y="869" type="line"/>
      <point x="215" y="869" type="line"/>
      <point x="274" y="740" type="line"/>
      <point x="353" y="740" type="line"/>
    </contour>
    <contour>
      <point x="611" y="685" type="line"/>
      <point x="34" y="685" type="line"/>
      <point x="34" y="466" type="line"/>
      <point x="38" y="465" type="line"/>
      <point x="166" y="649" type="line"/>
      <point x="258" y="649" type="line"/>
      <point x="258" y="106" type="line"/>
      <point x="188" y="0" type="line"/>
      <point x="453" y="0" type="line"/>
      <point x="382" y="106" type="line"/>
      <point x="382" y="650" type="line"/>
      <point x="478" y="650" type="line"/>
      <point x="605" y="465" type="line"/>
      <point x="611" y="466" type="line"/>
    </contour>
  </outline>
</glyph>
<glyph name="Uring" format="1">
  <advance width="763"/>
  <unicode hex="016E"/>
  <outline>
    <contour>
      <point x="318" y="808" type="curve" smooth="yes"/>
      <point x="318" y="754"/>
      <point x="360" y="710"/>
      <point x="412" y="710" type="curve" smooth="yes"/>
      <point x="463" y="710"/>
      <point x="505" y="754"/>
      <point x="505" y="808" type="curve" smooth="yes"/>
      <point x="505" y="862"/>
      <point x="463" y="906"/>
      <point x="412" y="906" type="curve" smooth="yes"/>
      <point x="360" y="906"/>
      <point x="318" y="862"/>
    </contour>
    <contour>
      <point x="351" y="808" type="curve" smooth="yes"/>
      <point x="351" y="843"/>
      <point x="378" y="872"/>
      <point x="412" y="872" type="curve" smooth="yes"/>
      <point x="445" y="872"/>
      <point x="473" y="843"/>
      <point x="473" y="808" type="curve" smooth="yes"/>
      <point x="473" y="773"/>
      <point x="445" y="744"/>
      <point x="412" y="744" type="curve" smooth="yes"/>
      <point x="378" y="744"/>
      <point x="351" y="773"/>
    </contour>
    <contour>
      <point x="251" y="579" type="line"/>
      <point x="321" y="685" type="line"/>
      <point x="56" y="685" type="line"/>
      <point x="126" y="580" type="line"/>
      <point x="126" y="221" type="line" smooth="yes"/>
      <point x="126" y="-15"/>
      <point x="338" y="-15"/>
      <point x="396" y="-15" type="curve" smooth="yes"/>
      <point x="494" y="-15"/>
      <point x="568" y="30"/>
      <point x="602" y="96" type="curve" smooth="yes"/>
      <point x="629" y="148"/>
      <point x="641" y="186"/>
      <point x="641" y="277" type="curve" smooth="yes"/>
      <point x="641" y="595" type="line"/>
      <point x="712" y="685" type="line"/>
      <point x="522" y="685" type="line"/>
      <point x="595" y="595" type="line"/>
      <point x="595" y="301" type="line" smooth="yes"/>
      <point x="595" y="77"/>
      <point x="508" y="33"/>
      <point x="432" y="33" type="curve" smooth="yes"/>
      <point x="339" y="33"/>
      <point x="251" y="51"/>
      <point x="251" y="236" type="curve" smooth="yes"/>
    </contour>
  </outline>
</glyph>
<glyph name="uring" format="1">
  <advance width="522"/>
  <unicode hex="016F"/>
  <outline>
    <contour>
      <point x="175" y="646" type="curve" smooth="yes"/>
      <point x="175" y="601"/>
      <point x="210" y="564"/>
      <point x="253" y="564" type="curve" smooth="yes"/>
      <point x="296" y="564"/>
      <point x="331" y="601"/>
      <point x="331" y="646" type="curve" smooth="yes"/>
      <point x="331" y="691"/>
      <point x="296" y="728"/>
      <point x="253" y="728" type="curve" smooth="yes"/>
      <point x="210" y="728"/>
      <point x="175" y="691"/>
    </contour>
    <contour>
      <point x="203" y="646" type="curve" smooth="yes"/>
      <point x="203" y="675"/>
      <point x="225" y="699"/>
      <point x="253" y="699" type="curve" smooth="yes"/>
      <point x="281" y="699"/>
      <point x="303" y="675"/>
      <point x="303" y="646" type="curve" smooth="yes"/>
      <point x="303" y="617"/>
      <point x="281" y="593"/>
      <point x="253" y="593" type="curve" smooth="yes"/>
      <point x="225" y="593"/>
      <point x="203" y="617"/>
    </contour>
    <contour>
      <point x="326" y="0" type="line"/>
      <point x="509" y="0" type="line"/>
      <point x="441" y="77" type="line"/>
      <point x="441" y="490" type="line"/>
      <point x="311" y="490" type="line"/>
      <point x="326" y="429" type="line"/>
      <point x="326" y="343"/>
      <point x="251" y="170"/>
      <point x="201" y="73" type="curve"/>
      <point x="197" y="113"/>
      <point x="194" y="177"/>
      <point x="194" y="346" type="curve" smooth="yes"/>
      <point x="194" y="510" type="line"/>
      <point x="5" y="490" type="line"/>
      <point x="79" y="404" type="line"/>
      <point x="79" y="163" type="line" smooth="yes"/>
      <point x="79" y="90"/>
      <point x="92" y="24"/>
      <point x="98" y="-8" type="curve"/>
      <point x="188" y="0" type="line"/>
      <point x="209" y="29"/>
      <point x="287" y="174"/>
      <point x="326" y="322" type="curve"/>
    </contour>
  </outline>
</glyph>
<glyph name="Wcircumflex" format="1">
  <advance width="1005"/>
  <unicode hex="0174"/>
  <outline>
    <contour>
      <point x="551" y="869" type="line"/>
      <point x="472" y="869" type="line"/>
      <point x="413" y="740" type="line"/>
      <point x="427" y="740" type="line"/>
      <point x="512" y="810" type="line"/>
      <point x="597" y="740" type="line"/>
      <point x="611" y="740" type="line"/>
    </contour>
    <contour>
      <point x="781" y="685" type="line"/>
      <point x="863" y="598" type="line"/>
      <point x="720" y="141" type="line"/>
      <point x="709" y="185" type="line"/>
      <point x="561" y="624" type="line"/>
      <point x="639" y="685" type="line"/>
      <point x="379" y="685" type="line"/>
      <point x="426" y="628" type="line"/>
      <point x="495" y="436" type="line"/>
      <point x="386" y="148" type="line"/>
      <point x="377" y="185" type="line"/>
      <point x="220" y="624" type="line"/>
      <point x="297" y="685" type="line"/>
      <point x="37" y="685" type="line"/>
      <point x="86" y="626" type="line"/>
      <point x="322" y="-12" type="line"/>
      <point x="380" y="-12" type="line"/>
      <point x="516" y="377" type="line"/>
      <point x="654" y="-12" type="line"/>
      <point x="712" y="-12" type="line"/>
      <point x="916" y="599" type="line"/>
      <point x="980" y="685" type="line"/>
    </contour>
  </outline>
</glyph>
<glyph name="Ycircumflex" format="1">
  <advance width="689"/>
  <unicode hex="0176"/>
  <outline>
    <contour>
      <point x="414" y="869" type="line"/>
      <point x="335" y="869" type="line"/>
      <point x="275" y="740" type="line"/>
      <point x="290" y="740" type="line"/>
      <point x="375" y="810" type="line"/>
      <point x="459" y="740" type="line"/>
      <point x="474" y="740" type="line"/>
    </contour>
    <contour>
      <point x="202" y="0" type="line"/>
      <point x="486" y="0" type="line"/>
      <point x="406" y="101" type="line"/>
      <point x="406" y="318" type="line"/>
      <point x="565" y="591" type="line"/>
      <point x="663" y="685" type="line"/>
      <point x="421" y="685" type="line"/>
      <point x="502" y="581" type="line"/>
      <point x="377" y="357" type="line"/>
      <point x="362" y="390" type="line"/>
      <point x="250" y="579" type="line"/>
      <point x="251" y="579" type="line"/>
      <point x="332" y="685" type="line"/>
      <point x="26" y="685" type="line"/>
      <point x="113" y="579" type="line"/>
      <point x="282" y="281" type="line"/>
      <point x="282" y="101" type="line"/>
    </contour>
  </outline>
</glyph>
<glyph name="Ydieresis" format="1">
  <advance width="689"/>
  <unicode hex="0178"/>
  <outline>
    <contour>
      <point x="328" y="830" type="line"/>
      <point x="255" y="917" type="line"/>
      <point x="181" y="830" type="line"/>
      <point x="255" y="742" type="line"/>
    </contour>
    <contour>
      <point x="550" y="830" type="line"/>
      <point x="477" y="917" type="line"/>
      <point x="403" y="830" type="line"/>
      <point x="477" y="742" type="line"/>
    </contour>
    <contour>
      <point x="202" y="0" type="line"/>
      <point x="486" y="0" type="line"/>
      <point x="406" y="101" type="line"/>
      <point x="406" y="318" type="line"/>
      <point x="565" y="591" type="line"/>
      <point x="663" y="685" type="line"/>
      <point x="421" y="685" type="line"/>
      <point x="502" y="581" type="line"/>
      <point x="377" y="357" type="line"/>
      <point x="362" y="390" type="line"/>
      <point x="250" y="579" type="line"/>
      <point x="251" y="579" type="line"/>
      <point x="332" y="685" type="line"/>
      <point x="26" y="685" type="line"/>
      <point x="113" y="579" type="line"/>
      <point x="282" y="281" type="line"/>
      <point x="282" y="101" type="line"/>
    </contour>
  </outline>
</glyph>
<glyph name="Zacute" format="1">
  <advance width="668"/>
  <unicode hex="0179"/>
  <outline>
    <contour>
      <point x="306" y="869" type="line"/>
      <point x="289" y="740" type="line"/>
      <point x="303" y="740" type="line"/>
      <point x="426" y="869" type="line"/>
    </contour>
    <contour>
      <point x="605" y="217" type="line"/>
      <point x="467" y="36" type="line"/>
      <point x="198" y="36" type="line"/>
      <point x="608" y="671" type="line"/>
      <point x="601" y="685" type="line"/>
      <point x="193" y="685" type="line"/>
      <point x="92" y="695" type="line"/>
      <point x="86" y="466" type="line"/>
      <point x="90" y="466" type="line"/>
      <point x="223" y="649" type="line"/>
      <point x="449" y="649" type="line"/>
      <point x="44" y="12" type="line"/>
      <point x="51" y="0" type="line"/>
      <point x="598" y="0" type="line"/>
      <point x="609" y="217" type="line"/>
    </contour>
  </outline>
</glyph>
<glyph name="Zdotaccent" format="1">
  <advance width="668"/>
  <unicode hex="017B"/>
  <outline>
    <contour>
      <point x="398" y="820" type="line"/>
      <point x="332" y="900" type="line"/>
      <point x="264" y="820" type="line"/>
      <point x="332" y="739" type="line"/>
    </contour>
    <contour>
      <point x="605" y="217" type="line"/>
      <point x="467" y="36" type="line"/>
      <point x="198" y="36" type="line"/>
      <point x="608" y="671" type="line"/>
      <point x="601" y="685" type="line"/>
      <point x="193" y="685" type="line"/>
      <point x="92" y="695" type="line"/>
      <point x="86" y="466" type="line"/>
      <point x="90" y="466" type="line"/>
      <point x="223" y="649" type="line"/>
      <point x="449" y="649" type="line"/>
      <point x="44" y="12" type="line"/>
      <point x="51" y="0" type="line"/>
      <point x="598" y="0" type="line"/>
      <point x="609" y="217" type="line"/>
    </contour>
  </outline>
</glyph>
<glyph name="Zcaron" format="1">
  <advance width="668"/>
  <unicode hex="017D"/>
  <outline>
    <contour>
      <point x="440" y="869" type="line"/>
      <point x="426" y="869" type="line"/>
      <point x="341" y="799" type="line"/>
      <point x="257" y="869" type="line"/>
      <point x="242" y="869" type="line"/>
      <point x="301" y="740" type="line"/>
      <point x="380" y="740" type="line"/>
    </contour>
    <contour>
      <point x="605" y="217" type="line"/>
      <point x="467" y="36" type="line"/>
      <point x="198" y="36" type="line"/>
      <point x="608" y="671" type="line"/>
      <point x="601" y="685" type="line"/>
      <point x="193" y="685" type="line"/>
      <point x="92" y="695" type="line"/>
      <point x="86" y="466" type="line"/>
      <point x="90" y="466" type="line"/>
      <point x="223" y="649" type="line"/>
      <point x="449" y="649" type="line"/>
      <point x="44" y="12" type="line"/>
      <point x="51" y="0" type="line"/>
      <point x="598" y="0" type="line"/>
      <point x="609" y="217" type="line"/>
    </contour>
  </outline>
</glyph>
<glyph name="circumflex" format="1">
  <advance width="213"/>
  <unicode hex="02C6"/>
  <outline>
    <contour>
      <point x="147" y="681" type="line"/>
      <point x="65" y="681" type="line"/>
      <point x="16" y="552" type="line"/>
      <point x="31" y="555" type="line"/>
      <point x="106" y="622" type="line"/>
      <point x="181" y="555" type="line"/>
      <point x="196" y="552" type="line"/>
    </contour>
  </outline>
</glyph>
<glyph name="caron" format="1">
  <advance width="212"/>
  <unicode hex="02C7"/>
  <outline>
    <contour>
      <point x="196" y="681" type="line"/>
      <point x="181" y="678" type="line"/>
      <point x="106" y="611" type="line"/>
      <point x="31" y="678" type="line"/>
      <point x="16" y="681" type="line"/>
      <point x="65" y="552" type="line"/>
      <point x="147" y="552" type="line"/>
    </contour>
  </outline>
</glyph>
